<?xml version="1.0" encoding="utf-8" standalone="no"?>
<!DOCTYPE svg PUBLIC "-//W3C//DTD SVG 1.1//EN"
  "http://www.w3.org/Graphics/SVG/1.1/DTD/svg11.dtd">
<!-- Created with matplotlib (https://matplotlib.org/) -->
<svg height="345.6pt" version="1.1" viewBox="0 0 460.8 345.6" width="460.8pt" xmlns="http://www.w3.org/2000/svg" xmlns:xlink="http://www.w3.org/1999/xlink">
 <defs>
  <style type="text/css">
*{stroke-linecap:butt;stroke-linejoin:round;}
  </style>
 </defs>
 <g id="figure_1">
  <g id="patch_1">
   <path d="M 0 345.6 
L 460.8 345.6 
L 460.8 0 
L 0 0 
z
" style="fill:#ffffff;"/>
  </g>
  <g id="axes_1">
   <g id="patch_2">
    <path d="M 57.6 307.584 
L 414.72 307.584 
L 414.72 41.472 
L 57.6 41.472 
z
" style="fill:#ffffff;"/>
   </g>
   <g id="matplotlib.axis_1">
    <g id="xtick_1">
     <g id="line2d_1">
      <path clip-path="url(#p40f92f4849)" d="M 73.832727 307.584 
L 73.832727 41.472 
" style="fill:none;stroke:#b0b0b0;stroke-linecap:square;stroke-width:0.8;"/>
     </g>
     <g id="line2d_2">
      <defs>
       <path d="M 0 0 
L 0 3.5 
" id="m7f34849f31" style="stroke:#000000;stroke-width:0.8;"/>
      </defs>
      <g>
       <use style="stroke:#000000;stroke-width:0.8;" x="73.832727" xlink:href="#m7f34849f31" y="307.584"/>
      </g>
     </g>
     <g id="text_1">
      <!-- 0 -->
      <defs>
       <path d="M 31.78125 66.40625 
Q 24.171875 66.40625 20.328125 58.90625 
Q 16.5 51.421875 16.5 36.375 
Q 16.5 21.390625 20.328125 13.890625 
Q 24.171875 6.390625 31.78125 6.390625 
Q 39.453125 6.390625 43.28125 13.890625 
Q 47.125 21.390625 47.125 36.375 
Q 47.125 51.421875 43.28125 58.90625 
Q 39.453125 66.40625 31.78125 66.40625 
z
M 31.78125 74.21875 
Q 44.046875 74.21875 50.515625 64.515625 
Q 56.984375 54.828125 56.984375 36.375 
Q 56.984375 17.96875 50.515625 8.265625 
Q 44.046875 -1.421875 31.78125 -1.421875 
Q 19.53125 -1.421875 13.0625 8.265625 
Q 6.59375 17.96875 6.59375 36.375 
Q 6.59375 54.828125 13.0625 64.515625 
Q 19.53125 74.21875 31.78125 74.21875 
z
" id="DejaVuSans-48"/>
      </defs>
      <g transform="translate(70.651477 322.182437)scale(0.1 -0.1)">
       <use xlink:href="#DejaVuSans-48"/>
      </g>
     </g>
    </g>
    <g id="xtick_2">
     <g id="line2d_3">
      <path clip-path="url(#p40f92f4849)" d="M 114.495872 307.584 
L 114.495872 41.472 
" style="fill:none;stroke:#b0b0b0;stroke-linecap:square;stroke-width:0.8;"/>
     </g>
     <g id="line2d_4">
      <g>
       <use style="stroke:#000000;stroke-width:0.8;" x="114.495872" xlink:href="#m7f34849f31" y="307.584"/>
      </g>
     </g>
     <g id="text_2">
      <!-- 250 -->
      <defs>
       <path d="M 19.1875 8.296875 
L 53.609375 8.296875 
L 53.609375 0 
L 7.328125 0 
L 7.328125 8.296875 
Q 12.9375 14.109375 22.625 23.890625 
Q 32.328125 33.6875 34.8125 36.53125 
Q 39.546875 41.84375 41.421875 45.53125 
Q 43.3125 49.21875 43.3125 52.78125 
Q 43.3125 58.59375 39.234375 62.25 
Q 35.15625 65.921875 28.609375 65.921875 
Q 23.96875 65.921875 18.8125 64.3125 
Q 13.671875 62.703125 7.8125 59.421875 
L 7.8125 69.390625 
Q 13.765625 71.78125 18.9375 73 
Q 24.125 74.21875 28.421875 74.21875 
Q 39.75 74.21875 46.484375 68.546875 
Q 53.21875 62.890625 53.21875 53.421875 
Q 53.21875 48.921875 51.53125 44.890625 
Q 49.859375 40.875 45.40625 35.40625 
Q 44.1875 33.984375 37.640625 27.21875 
Q 31.109375 20.453125 19.1875 8.296875 
z
" id="DejaVuSans-50"/>
       <path d="M 10.796875 72.90625 
L 49.515625 72.90625 
L 49.515625 64.59375 
L 19.828125 64.59375 
L 19.828125 46.734375 
Q 21.96875 47.46875 24.109375 47.828125 
Q 26.265625 48.1875 28.421875 48.1875 
Q 40.625 48.1875 47.75 41.5 
Q 54.890625 34.8125 54.890625 23.390625 
Q 54.890625 11.625 47.5625 5.09375 
Q 40.234375 -1.421875 26.90625 -1.421875 
Q 22.3125 -1.421875 17.546875 -0.640625 
Q 12.796875 0.140625 7.71875 1.703125 
L 7.71875 11.625 
Q 12.109375 9.234375 16.796875 8.0625 
Q 21.484375 6.890625 26.703125 6.890625 
Q 35.15625 6.890625 40.078125 11.328125 
Q 45.015625 15.765625 45.015625 23.390625 
Q 45.015625 31 40.078125 35.4375 
Q 35.15625 39.890625 26.703125 39.890625 
Q 22.75 39.890625 18.8125 39.015625 
Q 14.890625 38.140625 10.796875 36.28125 
z
" id="DejaVuSans-53"/>
      </defs>
      <g transform="translate(104.952122 322.182437)scale(0.1 -0.1)">
       <use xlink:href="#DejaVuSans-50"/>
       <use x="63.623047" xlink:href="#DejaVuSans-53"/>
       <use x="127.246094" xlink:href="#DejaVuSans-48"/>
      </g>
     </g>
    </g>
    <g id="xtick_3">
     <g id="line2d_5">
      <path clip-path="url(#p40f92f4849)" d="M 155.159016 307.584 
L 155.159016 41.472 
" style="fill:none;stroke:#b0b0b0;stroke-linecap:square;stroke-width:0.8;"/>
     </g>
     <g id="line2d_6">
      <g>
       <use style="stroke:#000000;stroke-width:0.8;" x="155.159016" xlink:href="#m7f34849f31" y="307.584"/>
      </g>
     </g>
     <g id="text_3">
      <!-- 500 -->
      <g transform="translate(145.615266 322.182437)scale(0.1 -0.1)">
       <use xlink:href="#DejaVuSans-53"/>
       <use x="63.623047" xlink:href="#DejaVuSans-48"/>
       <use x="127.246094" xlink:href="#DejaVuSans-48"/>
      </g>
     </g>
    </g>
    <g id="xtick_4">
     <g id="line2d_7">
      <path clip-path="url(#p40f92f4849)" d="M 195.822161 307.584 
L 195.822161 41.472 
" style="fill:none;stroke:#b0b0b0;stroke-linecap:square;stroke-width:0.8;"/>
     </g>
     <g id="line2d_8">
      <g>
       <use style="stroke:#000000;stroke-width:0.8;" x="195.822161" xlink:href="#m7f34849f31" y="307.584"/>
      </g>
     </g>
     <g id="text_4">
      <!-- 750 -->
      <defs>
       <path d="M 8.203125 72.90625 
L 55.078125 72.90625 
L 55.078125 68.703125 
L 28.609375 0 
L 18.3125 0 
L 43.21875 64.59375 
L 8.203125 64.59375 
z
" id="DejaVuSans-55"/>
      </defs>
      <g transform="translate(186.278411 322.182437)scale(0.1 -0.1)">
       <use xlink:href="#DejaVuSans-55"/>
       <use x="63.623047" xlink:href="#DejaVuSans-53"/>
       <use x="127.246094" xlink:href="#DejaVuSans-48"/>
      </g>
     </g>
    </g>
    <g id="xtick_5">
     <g id="line2d_9">
      <path clip-path="url(#p40f92f4849)" d="M 236.485305 307.584 
L 236.485305 41.472 
" style="fill:none;stroke:#b0b0b0;stroke-linecap:square;stroke-width:0.8;"/>
     </g>
     <g id="line2d_10">
      <g>
       <use style="stroke:#000000;stroke-width:0.8;" x="236.485305" xlink:href="#m7f34849f31" y="307.584"/>
      </g>
     </g>
     <g id="text_5">
      <!-- 1000 -->
      <defs>
       <path d="M 12.40625 8.296875 
L 28.515625 8.296875 
L 28.515625 63.921875 
L 10.984375 60.40625 
L 10.984375 69.390625 
L 28.421875 72.90625 
L 38.28125 72.90625 
L 38.28125 8.296875 
L 54.390625 8.296875 
L 54.390625 0 
L 12.40625 0 
z
" id="DejaVuSans-49"/>
      </defs>
      <g transform="translate(223.760305 322.182437)scale(0.1 -0.1)">
       <use xlink:href="#DejaVuSans-49"/>
       <use x="63.623047" xlink:href="#DejaVuSans-48"/>
       <use x="127.246094" xlink:href="#DejaVuSans-48"/>
       <use x="190.869141" xlink:href="#DejaVuSans-48"/>
      </g>
     </g>
    </g>
    <g id="xtick_6">
     <g id="line2d_11">
      <path clip-path="url(#p40f92f4849)" d="M 277.14845 307.584 
L 277.14845 41.472 
" style="fill:none;stroke:#b0b0b0;stroke-linecap:square;stroke-width:0.8;"/>
     </g>
     <g id="line2d_12">
      <g>
       <use style="stroke:#000000;stroke-width:0.8;" x="277.14845" xlink:href="#m7f34849f31" y="307.584"/>
      </g>
     </g>
     <g id="text_6">
      <!-- 1250 -->
      <g transform="translate(264.42345 322.182437)scale(0.1 -0.1)">
       <use xlink:href="#DejaVuSans-49"/>
       <use x="63.623047" xlink:href="#DejaVuSans-50"/>
       <use x="127.246094" xlink:href="#DejaVuSans-53"/>
       <use x="190.869141" xlink:href="#DejaVuSans-48"/>
      </g>
     </g>
    </g>
    <g id="xtick_7">
     <g id="line2d_13">
      <path clip-path="url(#p40f92f4849)" d="M 317.811594 307.584 
L 317.811594 41.472 
" style="fill:none;stroke:#b0b0b0;stroke-linecap:square;stroke-width:0.8;"/>
     </g>
     <g id="line2d_14">
      <g>
       <use style="stroke:#000000;stroke-width:0.8;" x="317.811594" xlink:href="#m7f34849f31" y="307.584"/>
      </g>
     </g>
     <g id="text_7">
      <!-- 1500 -->
      <g transform="translate(305.086594 322.182437)scale(0.1 -0.1)">
       <use xlink:href="#DejaVuSans-49"/>
       <use x="63.623047" xlink:href="#DejaVuSans-53"/>
       <use x="127.246094" xlink:href="#DejaVuSans-48"/>
       <use x="190.869141" xlink:href="#DejaVuSans-48"/>
      </g>
     </g>
    </g>
    <g id="xtick_8">
     <g id="line2d_15">
      <path clip-path="url(#p40f92f4849)" d="M 358.474739 307.584 
L 358.474739 41.472 
" style="fill:none;stroke:#b0b0b0;stroke-linecap:square;stroke-width:0.8;"/>
     </g>
     <g id="line2d_16">
      <g>
       <use style="stroke:#000000;stroke-width:0.8;" x="358.474739" xlink:href="#m7f34849f31" y="307.584"/>
      </g>
     </g>
     <g id="text_8">
      <!-- 1750 -->
      <g transform="translate(345.749739 322.182437)scale(0.1 -0.1)">
       <use xlink:href="#DejaVuSans-49"/>
       <use x="63.623047" xlink:href="#DejaVuSans-55"/>
       <use x="127.246094" xlink:href="#DejaVuSans-53"/>
       <use x="190.869141" xlink:href="#DejaVuSans-48"/>
      </g>
     </g>
    </g>
    <g id="xtick_9">
     <g id="line2d_17">
      <path clip-path="url(#p40f92f4849)" d="M 399.137883 307.584 
L 399.137883 41.472 
" style="fill:none;stroke:#b0b0b0;stroke-linecap:square;stroke-width:0.8;"/>
     </g>
     <g id="line2d_18">
      <g>
       <use style="stroke:#000000;stroke-width:0.8;" x="399.137883" xlink:href="#m7f34849f31" y="307.584"/>
      </g>
     </g>
     <g id="text_9">
      <!-- 2000 -->
      <g transform="translate(386.412883 322.182437)scale(0.1 -0.1)">
       <use xlink:href="#DejaVuSans-50"/>
       <use x="63.623047" xlink:href="#DejaVuSans-48"/>
       <use x="127.246094" xlink:href="#DejaVuSans-48"/>
       <use x="190.869141" xlink:href="#DejaVuSans-48"/>
      </g>
     </g>
    </g>
   </g>
   <g id="matplotlib.axis_2">
    <g id="ytick_1">
     <g id="line2d_19">
      <path clip-path="url(#p40f92f4849)" d="M 57.6 307.584 
L 414.72 307.584 
" style="fill:none;stroke:#b0b0b0;stroke-linecap:square;stroke-width:0.8;"/>
     </g>
     <g id="line2d_20">
      <defs>
       <path d="M 0 0 
L -3.5 0 
" id="m56af06537b" style="stroke:#000000;stroke-width:0.8;"/>
      </defs>
      <g>
       <use style="stroke:#000000;stroke-width:0.8;" x="57.6" xlink:href="#m56af06537b" y="307.584"/>
      </g>
     </g>
     <g id="text_10">
      <!-- 0.0 -->
      <defs>
       <path d="M 10.6875 12.40625 
L 21 12.40625 
L 21 0 
L 10.6875 0 
z
" id="DejaVuSans-46"/>
      </defs>
      <g transform="translate(34.696875 311.383219)scale(0.1 -0.1)">
       <use xlink:href="#DejaVuSans-48"/>
       <use x="63.623047" xlink:href="#DejaVuSans-46"/>
       <use x="95.410156" xlink:href="#DejaVuSans-48"/>
      </g>
     </g>
    </g>
    <g id="ytick_2">
     <g id="line2d_21">
      <path clip-path="url(#p40f92f4849)" d="M 57.6 254.3616 
L 414.72 254.3616 
" style="fill:none;stroke:#b0b0b0;stroke-linecap:square;stroke-width:0.8;"/>
     </g>
     <g id="line2d_22">
      <g>
       <use style="stroke:#000000;stroke-width:0.8;" x="57.6" xlink:href="#m56af06537b" y="254.3616"/>
      </g>
     </g>
     <g id="text_11">
      <!-- 0.2 -->
      <g transform="translate(34.696875 258.160819)scale(0.1 -0.1)">
       <use xlink:href="#DejaVuSans-48"/>
       <use x="63.623047" xlink:href="#DejaVuSans-46"/>
       <use x="95.410156" xlink:href="#DejaVuSans-50"/>
      </g>
     </g>
    </g>
    <g id="ytick_3">
     <g id="line2d_23">
      <path clip-path="url(#p40f92f4849)" d="M 57.6 201.1392 
L 414.72 201.1392 
" style="fill:none;stroke:#b0b0b0;stroke-linecap:square;stroke-width:0.8;"/>
     </g>
     <g id="line2d_24">
      <g>
       <use style="stroke:#000000;stroke-width:0.8;" x="57.6" xlink:href="#m56af06537b" y="201.1392"/>
      </g>
     </g>
     <g id="text_12">
      <!-- 0.4 -->
      <defs>
       <path d="M 37.796875 64.3125 
L 12.890625 25.390625 
L 37.796875 25.390625 
z
M 35.203125 72.90625 
L 47.609375 72.90625 
L 47.609375 25.390625 
L 58.015625 25.390625 
L 58.015625 17.1875 
L 47.609375 17.1875 
L 47.609375 0 
L 37.796875 0 
L 37.796875 17.1875 
L 4.890625 17.1875 
L 4.890625 26.703125 
z
" id="DejaVuSans-52"/>
      </defs>
      <g transform="translate(34.696875 204.938419)scale(0.1 -0.1)">
       <use xlink:href="#DejaVuSans-48"/>
       <use x="63.623047" xlink:href="#DejaVuSans-46"/>
       <use x="95.410156" xlink:href="#DejaVuSans-52"/>
      </g>
     </g>
    </g>
    <g id="ytick_4">
     <g id="line2d_25">
      <path clip-path="url(#p40f92f4849)" d="M 57.6 147.9168 
L 414.72 147.9168 
" style="fill:none;stroke:#b0b0b0;stroke-linecap:square;stroke-width:0.8;"/>
     </g>
     <g id="line2d_26">
      <g>
       <use style="stroke:#000000;stroke-width:0.8;" x="57.6" xlink:href="#m56af06537b" y="147.9168"/>
      </g>
     </g>
     <g id="text_13">
      <!-- 0.6 -->
      <defs>
       <path d="M 33.015625 40.375 
Q 26.375 40.375 22.484375 35.828125 
Q 18.609375 31.296875 18.609375 23.390625 
Q 18.609375 15.53125 22.484375 10.953125 
Q 26.375 6.390625 33.015625 6.390625 
Q 39.65625 6.390625 43.53125 10.953125 
Q 47.40625 15.53125 47.40625 23.390625 
Q 47.40625 31.296875 43.53125 35.828125 
Q 39.65625 40.375 33.015625 40.375 
z
M 52.59375 71.296875 
L 52.59375 62.3125 
Q 48.875 64.0625 45.09375 64.984375 
Q 41.3125 65.921875 37.59375 65.921875 
Q 27.828125 65.921875 22.671875 59.328125 
Q 17.53125 52.734375 16.796875 39.40625 
Q 19.671875 43.65625 24.015625 45.921875 
Q 28.375 48.1875 33.59375 48.1875 
Q 44.578125 48.1875 50.953125 41.515625 
Q 57.328125 34.859375 57.328125 23.390625 
Q 57.328125 12.15625 50.6875 5.359375 
Q 44.046875 -1.421875 33.015625 -1.421875 
Q 20.359375 -1.421875 13.671875 8.265625 
Q 6.984375 17.96875 6.984375 36.375 
Q 6.984375 53.65625 15.1875 63.9375 
Q 23.390625 74.21875 37.203125 74.21875 
Q 40.921875 74.21875 44.703125 73.484375 
Q 48.484375 72.75 52.59375 71.296875 
z
" id="DejaVuSans-54"/>
      </defs>
      <g transform="translate(34.696875 151.716019)scale(0.1 -0.1)">
       <use xlink:href="#DejaVuSans-48"/>
       <use x="63.623047" xlink:href="#DejaVuSans-46"/>
       <use x="95.410156" xlink:href="#DejaVuSans-54"/>
      </g>
     </g>
    </g>
    <g id="ytick_5">
     <g id="line2d_27">
      <path clip-path="url(#p40f92f4849)" d="M 57.6 94.6944 
L 414.72 94.6944 
" style="fill:none;stroke:#b0b0b0;stroke-linecap:square;stroke-width:0.8;"/>
     </g>
     <g id="line2d_28">
      <g>
       <use style="stroke:#000000;stroke-width:0.8;" x="57.6" xlink:href="#m56af06537b" y="94.6944"/>
      </g>
     </g>
     <g id="text_14">
      <!-- 0.8 -->
      <defs>
       <path d="M 31.78125 34.625 
Q 24.75 34.625 20.71875 30.859375 
Q 16.703125 27.09375 16.703125 20.515625 
Q 16.703125 13.921875 20.71875 10.15625 
Q 24.75 6.390625 31.78125 6.390625 
Q 38.8125 6.390625 42.859375 10.171875 
Q 46.921875 13.96875 46.921875 20.515625 
Q 46.921875 27.09375 42.890625 30.859375 
Q 38.875 34.625 31.78125 34.625 
z
M 21.921875 38.8125 
Q 15.578125 40.375 12.03125 44.71875 
Q 8.5 49.078125 8.5 55.328125 
Q 8.5 64.0625 14.71875 69.140625 
Q 20.953125 74.21875 31.78125 74.21875 
Q 42.671875 74.21875 48.875 69.140625 
Q 55.078125 64.0625 55.078125 55.328125 
Q 55.078125 49.078125 51.53125 44.71875 
Q 48 40.375 41.703125 38.8125 
Q 48.828125 37.15625 52.796875 32.3125 
Q 56.78125 27.484375 56.78125 20.515625 
Q 56.78125 9.90625 50.3125 4.234375 
Q 43.84375 -1.421875 31.78125 -1.421875 
Q 19.734375 -1.421875 13.25 4.234375 
Q 6.78125 9.90625 6.78125 20.515625 
Q 6.78125 27.484375 10.78125 32.3125 
Q 14.796875 37.15625 21.921875 38.8125 
z
M 18.3125 54.390625 
Q 18.3125 48.734375 21.84375 45.5625 
Q 25.390625 42.390625 31.78125 42.390625 
Q 38.140625 42.390625 41.71875 45.5625 
Q 45.3125 48.734375 45.3125 54.390625 
Q 45.3125 60.0625 41.71875 63.234375 
Q 38.140625 66.40625 31.78125 66.40625 
Q 25.390625 66.40625 21.84375 63.234375 
Q 18.3125 60.0625 18.3125 54.390625 
z
" id="DejaVuSans-56"/>
      </defs>
      <g transform="translate(34.696875 98.493619)scale(0.1 -0.1)">
       <use xlink:href="#DejaVuSans-48"/>
       <use x="63.623047" xlink:href="#DejaVuSans-46"/>
       <use x="95.410156" xlink:href="#DejaVuSans-56"/>
      </g>
     </g>
    </g>
    <g id="ytick_6">
     <g id="line2d_29">
      <path clip-path="url(#p40f92f4849)" d="M 57.6 41.472 
L 414.72 41.472 
" style="fill:none;stroke:#b0b0b0;stroke-linecap:square;stroke-width:0.8;"/>
     </g>
     <g id="line2d_30">
      <g>
       <use style="stroke:#000000;stroke-width:0.8;" x="57.6" xlink:href="#m56af06537b" y="41.472"/>
      </g>
     </g>
     <g id="text_15">
      <!-- 1.0 -->
      <g transform="translate(34.696875 45.271219)scale(0.1 -0.1)">
       <use xlink:href="#DejaVuSans-49"/>
       <use x="63.623047" xlink:href="#DejaVuSans-46"/>
       <use x="95.410156" xlink:href="#DejaVuSans-48"/>
      </g>
     </g>
    </g>
   </g>
   <g id="line2d_31">
    <path clip-path="url(#p40f92f4849)" d="M 73.832727 154.606374 
L 74.158032 220.82305 
L 74.483338 170.506221 
L 74.64599 198.693672 
L 74.808643 251.817805 
L 75.2966 285.853511 
L 75.459253 295.173569 
L 75.621906 287.791066 
L 75.784558 255.166142 
L 75.947211 288.431281 
L 76.109863 270.554725 
L 76.597821 175.159058 
L 76.760474 171.803713 
L 77.085779 190.853382 
L 77.248431 205.212002 
L 77.411084 182.554846 
L 77.573737 186.020951 
L 77.736389 216.149431 
L 77.899042 211.159133 
L 78.061694 211.159408 
L 78.224347 225.188216 
L 78.386999 222.741347 
L 78.549652 228.842171 
L 78.712305 240.718913 
L 78.874957 234.231571 
L 79.03761 233.150663 
L 79.200262 238.548503 
L 79.362915 230.26569 
L 79.525567 240.454765 
L 79.68822 240.454795 
L 79.850873 247.804268 
L 80.013525 247.804329 
L 80.176178 223.701471 
L 80.33883 223.701502 
L 80.664136 222.678639 
L 80.826788 207.074112 
L 81.314746 216.909334 
L 81.477398 213.442071 
L 81.965356 241.622971 
L 82.128009 267.729687 
L 82.290661 267.729779 
L 82.453314 280.124457 
L 82.615966 280.124548 
L 82.778619 271.857458 
L 82.941272 271.857397 
L 83.103924 243.989672 
L 83.266577 243.989642 
L 83.429229 240.928946 
L 83.591882 253.576894 
L 83.754535 209.628694 
L 83.917187 212.233917 
L 84.07984 212.2341 
L 84.242492 204.882373 
L 84.893103 231.365612 
L 85.055755 231.047287 
L 85.218408 240.614643 
L 85.543713 217.977506 
L 85.706365 242.765857 
L 85.869018 242.765857 
L 86.031671 241.727515 
L 86.194323 241.727698 
L 86.356976 244.694941 
L 86.519628 244.695063 
L 86.844934 268.796458 
L 87.007586 263.437224 
L 87.170239 271.100907 
L 87.332891 287.728205 
L 87.495544 286.353958 
L 87.658196 286.353958 
L 87.820849 271.695782 
L 87.983502 271.695782 
L 88.146154 267.640775 
L 88.308807 267.640775 
L 88.471459 282.583118 
L 88.634112 282.583148 
L 88.796764 294.192786 
L 88.959417 280.070585 
L 89.12207 280.070585 
L 89.284722 250.031505 
L 89.447375 250.031505 
L 89.610027 233.020249 
L 89.77268 233.02028 
L 89.935332 239.047578 
L 90.260638 237.672416 
L 90.42329 241.555632 
L 90.585943 253.46199 
L 90.748595 256.314238 
L 90.911248 268.456377 
L 91.073901 271.433523 
L 91.236553 270.549636 
L 91.561858 272.208478 
L 91.724511 272.225389 
L 91.887163 276.231156 
L 92.049816 267.396523 
L 92.212469 275.102805 
L 92.375121 269.425977 
L 92.537774 268.941893 
L 92.700426 270.444086 
L 93.025731 269.702679 
L 93.188384 269.607185 
L 93.351037 267.463772 
L 93.513689 267.463193 
L 93.676342 269.715416 
L 93.838994 269.715386 
L 94.001647 263.07755 
L 94.1643 263.07816 
L 94.326952 255.996736 
L 94.489605 255.996614 
L 94.652257 240.459183 
L 94.81491 240.459305 
L 94.977562 249.868763 
L 95.140215 249.868641 
L 95.302868 261.194202 
L 95.46552 261.194202 
L 95.628173 271.114497 
L 95.790825 271.114497 
L 95.953478 278.612422 
L 96.11613 278.612452 
L 96.441436 298.087366 
L 96.604088 298.087397 
L 96.766741 304.071001 
L 96.929393 304.071001 
L 97.092046 307.152356 
L 97.254698 307.152356 
L 97.580004 307.000399 
L 97.742656 306.4434 
L 97.905309 306.4434 
L 98.067961 299.821043 
L 98.230614 299.821043 
L 98.555919 284.980624 
L 99.206529 223.484857 
L 99.369182 223.484948 
L 99.531835 221.251312 
L 99.85714 205.841004 
L 100.182445 200.941538 
L 100.345097 211.00541 
L 100.50775 235.356175 
L 100.670403 235.823043 
L 100.833055 253.960761 
L 100.995708 233.989088 
L 101.15836 233.989088 
L 101.321013 254.900104 
L 101.483666 249.658974 
L 101.646318 281.55733 
L 101.808971 277.948623 
L 101.971623 283.376202 
L 102.296928 301.040593 
L 102.622234 303.685062 
L 102.947539 284.804383 
L 103.272844 257.101564 
L 103.760802 191.671391 
L 103.923454 191.683945 
L 104.086107 167.548637 
L 104.248759 168.882206 
L 104.411412 173.598819 
L 104.574064 149.389802 
L 104.736717 191.770634 
L 104.89937 187.093785 
L 105.062022 187.335507 
L 105.224675 196.390533 
L 105.387327 225.413423 
L 105.54998 215.176175 
L 105.712633 231.401202 
L 105.875285 215.236201 
L 106.037938 253.093816 
L 106.20059 253.093877 
L 106.363243 272.683543 
L 106.525895 277.08055 
L 106.688548 278.395777 
L 106.851201 281.511411 
L 107.013853 290.886833 
L 107.176506 291.876818 
L 107.339158 295.91787 
L 107.501811 295.91784 
L 107.664463 288.154274 
L 107.827116 288.154274 
L 107.989769 284.523567 
L 108.152421 284.523567 
L 108.315074 289.041726 
L 108.640379 259.840644 
L 108.803032 262.366675 
L 108.965684 262.366492 
L 109.128337 269.925754 
L 109.290989 269.925754 
L 109.453642 261.42075 
L 109.616294 261.42075 
L 109.778947 253.027208 
L 109.9416 253.027238 
L 110.104252 250.111368 
L 110.266905 250.111429 
L 110.59221 233.012418 
L 110.754862 226.21571 
L 110.917515 224.718362 
L 111.080168 234.094241 
L 111.24282 223.903978 
L 111.405473 222.546032 
L 111.568125 211.233999 
L 111.730778 214.329218 
L 111.89343 214.049164 
L 112.218736 227.283456 
L 112.381388 217.533003 
L 112.544041 227.32587 
L 112.706693 209.407661 
L 112.869346 206.451053 
L 113.031999 191.344443 
L 113.194651 187.530457 
L 113.357304 180.242413 
L 114.333219 287.753679 
L 114.495872 287.753679 
L 114.658524 296.509454 
L 114.821177 296.509393 
L 114.983829 294.447823 
L 115.146482 294.447762 
L 115.309135 298.198401 
L 115.471787 298.198401 
L 115.63444 294.274386 
L 115.959745 274.66787 
L 116.122398 278.64725 
L 116.28505 278.647219 
L 116.447703 283.906053 
L 116.610355 283.906023 
L 116.93566 286.395733 
L 117.098313 285.708594 
L 117.260966 285.639517 
L 117.423618 285.708289 
L 117.748923 285.628639 
L 118.236881 263.155463 
L 118.562186 215.90774 
L 118.724839 216.04833 
L 118.887491 193.459641 
L 119.050144 201.78755 
L 119.375449 198.601499 
L 119.538102 187.366831 
L 119.700754 200.676141 
L 120.026059 198.13067 
L 120.188712 215.457904 
L 120.351365 218.76663 
L 120.514017 218.875409 
L 120.67667 222.99864 
L 121.164627 284.860875 
L 121.32728 294.542861 
L 121.489933 288.608131 
L 121.652585 288.768131 
L 122.140543 239.507743 
L 122.303195 262.281175 
L 122.465848 266.295443 
L 122.628501 280.872567 
L 122.791153 268.335775 
L 122.953806 245.524743 
L 123.279111 248.179968 
L 123.767069 184.837265 
L 123.929721 184.837235 
L 124.092374 188.963665 
L 124.255026 188.964 
L 124.580332 197.595609 
L 124.742984 204.19694 
L 124.905637 204.19691 
L 125.068289 191.357089 
L 125.230942 191.357363 
L 125.393594 172.779621 
L 125.556247 235.318361 
L 125.881552 251.791814 
L 126.044205 252.084574 
L 126.206857 251.491405 
L 126.532163 237.162402 
L 126.694815 237.168131 
L 126.857468 226.062962 
L 127.02012 226.246394 
L 127.182773 220.940635 
L 127.345425 232.000312 
L 127.508078 226.327659 
L 127.670731 229.816312 
L 127.833383 221.613514 
L 128.158688 174.730705 
L 128.321341 156.277983 
L 128.646646 250.949092 
L 128.809299 245.300541 
L 128.971951 243.861117 
L 129.297256 208.642061 
L 129.459909 208.575361 
L 129.622561 199.590052 
L 129.785214 214.408167 
L 129.947867 203.296264 
L 130.110519 216.260466 
L 130.273172 218.273343 
L 130.435824 222.312384 
L 130.598477 191.483693 
L 130.76113 181.909421 
L 130.923782 210.558987 
L 131.086435 203.169568 
L 131.249087 229.381011 
L 131.41174 202.163586 
L 131.574392 198.400089 
L 131.737045 198.40012 
L 132.06235 223.202518 
L 132.225003 197.012374 
L 132.387655 209.876754 
L 132.550308 205.015133 
L 132.71296 210.101534 
L 132.875613 185.895626 
L 133.200918 212.314573 
L 133.363571 212.140282 
L 133.526223 204.083834 
L 133.851529 144.588939 
L 134.014181 146.155608 
L 134.176834 163.117807 
L 134.339486 165.803076 
L 134.502139 180.59066 
L 134.664791 167.322942 
L 134.827444 181.831295 
L 134.990097 134.970607 
L 135.315402 192.544278 
L 135.478054 202.706539 
L 135.640707 203.089309 
L 135.803359 208.844141 
L 135.966012 219.71161 
L 136.128665 211.548698 
L 136.45397 219.517025 
L 136.616622 210.52611 
L 136.779275 210.446277 
L 136.941927 189.832439 
L 137.10458 197.250805 
L 137.267233 211.468286 
L 137.429885 211.468439 
L 137.592538 193.800331 
L 137.75519 202.79731 
L 137.917843 223.358313 
L 138.080496 205.148746 
L 138.243148 217.578831 
L 138.405801 214.259014 
L 138.568453 214.259227 
L 138.731106 213.843001 
L 138.893758 213.842971 
L 139.056411 206.575646 
L 139.219064 206.575646 
L 139.381716 228.900644 
L 139.544369 228.262106 
L 139.869674 232.399597 
L 140.032326 230.708547 
L 141.008242 165.590697 
L 141.170895 163.278569 
L 141.4962 209.765049 
L 141.658852 211.514236 
L 141.821505 193.021567 
L 141.984157 207.245326 
L 142.14681 135.698546 
L 142.309463 138.351059 
L 142.79742 179.125762 
L 142.960073 203.194219 
L 143.285378 203.2604 
L 143.448031 203.15348 
L 143.610683 195.834691 
L 143.773336 211.497965 
L 143.935988 208.569633 
L 144.098641 209.655356 
L 144.261293 196.068033 
L 144.423946 205.394673 
L 144.586599 193.068461 
L 144.749251 193.0684 
L 144.911904 193.297934 
L 145.074556 193.297721 
L 145.237209 213.039038 
L 145.399862 213.038977 
L 145.562514 216.104792 
L 145.725167 216.104792 
L 145.887819 211.023083 
L 146.050472 210.260011 
L 146.375777 219.583542 
L 146.53843 219.583573 
L 146.701082 216.993585 
L 146.863735 216.993646 
L 147.026387 216.8022 
L 147.18904 216.802017 
L 147.351692 211.404329 
L 147.514345 211.404359 
L 147.676998 199.479779 
L 147.83965 199.479505 
L 148.002303 194.073743 
L 148.164955 194.073743 
L 148.490261 227.197468 
L 148.815566 244.233375 
L 148.978218 238.007012 
L 149.303523 169.196936 
L 149.466176 194.192486 
L 149.791481 201.436043 
L 149.954134 153.793026 
L 150.116786 179.464685 
L 150.279439 180.996983 
L 150.442091 196.200367 
L 150.604744 186.329708 
L 150.767397 194.017159 
L 150.930049 191.781725 
L 151.255354 195.805043 
L 151.418007 155.852859 
L 151.58066 193.85271 
L 151.743312 131.672272 
L 152.068617 180.672686 
L 152.23127 152.709375 
L 152.393922 166.312024 
L 152.556575 197.377714 
L 152.719228 203.09391 
L 152.88188 187.312136 
L 153.044533 158.569544 
L 153.207185 172.231549 
L 153.369838 204.55119 
L 153.53249 206.950768 
L 153.695143 207.261049 
L 153.857796 216.674986 
L 154.020448 203.769805 
L 154.183101 212.458393 
L 154.345753 212.458393 
L 154.508406 213.214091 
L 154.671058 207.285486 
L 154.833711 207.418611 
L 154.996364 207.339967 
L 155.321669 218.768427 
L 155.484321 203.889463 
L 155.646974 203.889432 
L 155.809627 180.311886 
L 155.972279 180.312129 
L 156.134932 178.006309 
L 156.297584 178.006065 
L 156.460237 171.891651 
L 156.622889 171.891407 
L 156.785542 165.037994 
L 156.948195 165.037963 
L 157.110847 157.622735 
L 157.2735 157.622796 
L 157.436152 185.462184 
L 157.598805 185.46194 
L 157.761457 163.392132 
L 157.92411 163.391919 
L 158.086763 191.51718 
L 158.249415 191.51715 
L 158.57472 227.805018 
L 158.737373 233.467616 
L 158.900026 243.474965 
L 159.062678 243.4746 
L 159.225331 240.302839 
L 159.387983 240.302778 
L 159.550636 244.982338 
L 159.713288 244.982643 
L 160.363899 182.377325 
L 160.526551 182.377295 
L 160.689204 172.220945 
L 160.851856 172.220884 
L 161.177162 198.273058 
L 161.339814 159.235445 
L 161.502467 157.532939 
L 161.990424 200.931574 
L 162.153077 157.508837 
L 162.31573 154.944657 
L 162.478382 182.991274 
L 162.641035 178.605845 
L 162.803687 221.074797 
L 162.96634 147.431192 
L 163.291645 161.429256 
L 163.454298 161.374897 
L 163.61695 177.513327 
L 163.779603 171.769099 
L 164.104908 211.905172 
L 164.267561 226.587693 
L 164.430213 225.706701 
L 164.592866 225.706823 
L 164.755518 225.364427 
L 164.918171 225.364274 
L 165.080823 225.632902 
L 165.243476 204.871739 
L 165.406129 214.230829 
L 165.731434 171.943481 
L 165.894086 193.814652 
L 166.056739 193.814652 
L 166.219392 175.984838 
L 166.382044 175.984625 
L 167.032654 222.941477 
L 167.195307 221.685394 
L 167.35796 221.685211 
L 167.520612 222.200284 
L 167.683265 222.200467 
L 167.845917 225.966096 
L 168.00857 225.966279 
L 168.171222 190.815537 
L 168.333875 200.514038 
L 168.496528 231.68735 
L 168.65918 231.68735 
L 168.821833 260.175392 
L 168.984485 260.175423 
L 169.147138 243.828483 
L 169.30979 243.828392 
L 169.472443 225.201227 
L 169.635096 225.201257 
L 169.797748 226.850013 
L 169.960401 226.849892 
L 170.123053 205.058462 
L 170.285706 205.058736 
L 170.448359 207.261902 
L 170.611011 207.262024 
L 170.773664 189.129424 
L 170.936316 189.129181 
L 171.098969 197.568246 
L 171.261621 198.774663 
L 171.424274 203.472871 
L 171.586927 199.325081 
L 171.912232 210.670631 
L 172.074884 214.677739 
L 172.237537 195.560822 
L 172.400189 192.133171 
L 172.562842 192.133232 
L 172.725495 235.299012 
L 173.0508 226.472028 
L 173.213452 225.855397 
L 173.376105 215.134308 
L 173.538758 225.976913 
L 173.864063 230.832867 
L 174.189368 173.993472 
L 174.35202 152.161669 
L 174.514673 171.200916 
L 174.839978 232.247762 
L 175.165283 221.025099 
L 175.653241 248.674473 
L 175.815894 252.444643 
L 176.141199 252.896672 
L 176.303851 250.784064 
L 176.466504 258.651992 
L 176.629156 261.108763 
L 176.954462 257.744307 
L 177.117114 254.671332 
L 177.279767 258.752087 
L 177.442419 259.228188 
L 177.605072 265.024704 
L 177.767725 263.719167 
L 178.255682 221.984979 
L 178.74364 291.586861 
L 178.906293 270.706254 
L 179.068945 271.145577 
L 179.231598 276.040563 
L 179.556903 272.079314 
L 179.719555 277.821348 
L 179.882208 277.82147 
L 180.044861 276.377963 
L 180.532818 206.800518 
L 180.695471 188.604632 
L 180.858124 183.320568 
L 181.020776 195.888502 
L 181.183429 172.369336 
L 181.346081 197.129929 
L 181.508734 197.130172 
L 181.671386 184.082665 
L 181.834039 184.082665 
L 181.996692 199.193753 
L 182.159344 202.237416 
L 182.321997 219.515715 
L 182.484649 210.591713 
L 182.647302 233.878541 
L 182.809954 241.025293 
L 183.13526 277.834511 
L 183.297912 279.737178 
L 183.460565 279.737208 
L 183.623217 280.662413 
L 183.78587 280.662443 
L 183.948522 245.072897 
L 184.111175 245.072927 
L 184.273828 278.696124 
L 184.43648 278.696124 
L 184.599133 248.620754 
L 184.761785 248.620784 
L 184.924438 240.278097 
L 185.087091 240.278219 
L 185.249743 224.956244 
L 185.412396 224.956244 
L 185.575048 226.678191 
L 185.737701 226.678191 
L 185.900353 196.98041 
L 186.063006 196.98041 
L 186.225659 166.197943 
L 186.388311 166.197729 
L 186.550964 197.610691 
L 186.713616 197.610905 
L 186.876269 186.654279 
L 187.038921 186.65434 
L 187.201574 175.030839 
L 187.364227 175.030839 
L 187.526879 203.135106 
L 187.689532 203.13535 
L 187.852184 217.961478 
L 188.014837 222.518517 
L 188.17749 222.518517 
L 188.340142 216.465989 
L 188.502795 216.466019 
L 188.665447 207.76049 
L 188.990752 147.094707 
L 189.153405 160.880575 
L 189.316058 161.732498 
L 189.47871 181.999613 
L 189.641363 134.739823 
L 189.966668 179.396675 
L 190.12932 193.322311 
L 190.291973 192.221688 
L 190.454626 186.250363 
L 190.617278 221.583714 
L 190.779931 195.519078 
L 190.942583 212.179528 
L 191.105236 212.431914 
L 191.267889 203.041531 
L 191.430541 203.041592 
L 191.593194 199.636824 
L 191.755846 199.636611 
L 191.918499 203.162529 
L 192.081151 203.162377 
L 192.243804 186.746666 
L 192.406457 214.824271 
L 192.569109 214.824271 
L 192.731762 191.783309 
L 193.057067 232.428818 
L 193.219719 232.428848 
L 193.382372 223.375346 
L 193.545025 223.375316 
L 193.707677 229.6057 
L 193.87033 229.605578 
L 194.032982 211.495283 
L 194.195635 211.495466 
L 194.358287 202.756846 
L 194.52094 202.756663 
L 194.846245 198.848828 
L 195.008898 180.524112 
L 195.334203 195.685934 
L 195.496856 214.323916 
L 195.659508 245.758878 
L 195.822161 247.818071 
L 195.984813 247.770232 
L 196.147466 246.008492 
L 196.310118 240.886043 
L 196.472771 240.937051 
L 196.635424 230.465058 
L 196.798076 233.192377 
L 197.123381 219.071547 
L 197.286034 219.434877 
L 197.448686 201.797849 
L 197.611339 210.077585 
L 197.773992 211.070952 
L 197.936644 213.502524 
L 198.099297 212.717362 
L 198.261949 174.770743 
L 198.424602 177.676771 
L 198.587255 152.471066 
L 198.749907 186.783779 
L 198.91256 183.775126 
L 199.075212 188.244532 
L 199.237865 169.759755 
L 199.400517 129.226988 
L 199.56317 176.553995 
L 199.725823 176.626058 
L 199.888475 213.067619 
L 200.051128 183.229888 
L 200.21378 204.778316 
L 200.376433 204.778286 
L 200.701738 211.389795 
L 200.864391 205.339612 
L 201.027043 183.736246 
L 201.189696 204.203522 
L 201.352348 183.361399 
L 201.515001 200.809997 
L 201.677653 187.161612 
L 201.840306 187.161765 
L 202.002959 202.705594 
L 202.165611 202.705747 
L 202.328264 194.244316 
L 202.490916 194.244316 
L 202.653569 204.48324 
L 202.816222 204.483058 
L 202.978874 220.574533 
L 203.141527 220.57438 
L 203.304179 204.706772 
L 203.466832 204.706772 
L 203.629484 193.858316 
L 203.792137 193.858164 
L 203.95479 223.112417 
L 204.117442 223.112295 
L 204.280095 249.486816 
L 204.442747 239.69928 
L 204.6054 256.139094 
L 204.768052 233.787647 
L 205.093358 248.901173 
L 205.25601 219.100616 
L 205.581315 201.690807 
L 205.743968 220.139963 
L 205.906621 220.749677 
L 206.069273 214.831432 
L 206.231926 218.625003 
L 206.394578 212.817548 
L 206.557231 220.543819 
L 206.719883 207.699153 
L 206.882536 205.58947 
L 207.045189 266.074807 
L 207.207841 248.865554 
L 207.533146 241.46294 
L 207.695799 206.386212 
L 208.183757 246.717996 
L 208.346409 249.610221 
L 208.509062 245.661921 
L 208.671714 244.491063 
L 208.834367 237.016205 
L 208.997019 237.85725 
L 209.159672 237.078243 
L 209.322325 223.705463 
L 209.484977 236.412646 
L 209.64763 237.564368 
L 209.810282 219.22131 
L 209.972935 215.777265 
L 210.135588 204.426047 
L 210.460893 172.881301 
L 210.623545 189.571977 
L 210.786198 177.658671 
L 210.94885 203.94501 
L 211.111503 177.632924 
L 211.274156 178.326675 
L 211.436808 203.992148 
L 211.599461 183.051606 
L 211.762113 183.051362 
L 211.924766 255.013272 
L 212.087418 255.013272 
L 212.250071 239.795933 
L 212.575376 200.4371 
L 212.738029 208.536603 
L 212.900681 208.536572 
L 213.063334 250.939464 
L 213.225987 250.939281 
L 213.388639 257.169635 
L 213.551292 257.170031 
L 213.713944 256.293884 
L 213.876597 256.293884 
L 214.039249 235.721729 
L 214.201902 235.721729 
L 214.364555 210.233197 
L 214.527207 210.233197 
L 214.68986 185.34405 
L 214.852512 185.34408 
L 215.015165 209.907224 
L 215.177817 209.907407 
L 215.34047 194.89163 
L 215.503123 194.891691 
L 215.665775 188.375921 
L 215.828428 188.375829 
L 215.99108 196.517046 
L 216.153733 196.517168 
L 216.316385 186.848742 
L 216.479038 186.848742 
L 216.641691 161.451957 
L 216.804343 161.452231 
L 216.966996 159.525219 
L 217.129648 159.525219 
L 217.617606 192.510212 
L 217.780259 179.021035 
L 217.942911 178.960399 
L 218.105564 225.407725 
L 218.268216 225.407817 
L 218.430869 206.276152 
L 218.593522 206.276091 
L 218.756174 252.135581 
L 218.918827 252.136252 
L 219.081479 262.795181 
L 219.244132 262.794967 
L 219.406784 268.291136 
L 219.569437 268.291105 
L 219.73209 269.780958 
L 219.894742 269.781049 
L 220.057395 261.505123 
L 220.220047 261.505001 
L 220.3827 262.09951 
L 220.545353 262.099571 
L 220.708005 259.362227 
L 221.195963 245.949196 
L 221.358615 236.950602 
L 221.846573 172.297639 
L 222.009226 184.028031 
L 222.171878 165.285779 
L 222.334531 178.289897 
L 222.497183 181.920482 
L 222.659836 178.873863 
L 222.985141 160.248374 
L 223.473099 239.609971 
L 223.635752 227.025858 
L 223.798404 226.235577 
L 223.961057 216.050829 
L 224.123709 269.260675 
L 224.286362 218.610895 
L 224.449014 204.000832 
L 224.77432 213.101899 
L 225.099625 150.324605 
L 225.262277 201.672037 
L 225.42493 195.877685 
L 225.587582 201.113849 
L 225.750235 243.20905 
L 225.912888 194.68952 
L 226.238193 246.856362 
L 226.400845 242.011256 
L 226.72615 252.683897 
L 227.051456 253.324447 
L 227.214108 255.628896 
L 227.376761 264.455272 
L 227.702066 259.65901 
L 227.864719 259.713643 
L 228.027371 259.454979 
L 228.352676 262.603278 
L 228.677981 252.436964 
L 228.840634 252.784419 
L 229.165939 211.691117 
L 229.491244 283.004859 
L 229.653897 290.886437 
L 229.816549 268.286931 
L 229.979202 268.508512 
L 230.141855 267.759823 
L 230.46716 280.569204 
L 230.629812 280.549855 
L 230.792465 280.29113 
L 230.955118 280.515911 
L 231.11777 281.962953 
L 231.280423 257.146081 
L 231.443075 210.047724 
L 231.605728 198.681423 
L 231.76838 207.128807 
L 231.931033 223.357064 
L 232.093686 211.46207 
L 232.256338 186.213677 
L 232.581643 213.52556 
L 232.906948 184.266341 
L 233.069601 184.266615 
L 233.232254 147.285757 
L 233.394906 147.285757 
L 233.557559 172.712586 
L 233.720211 171.945675 
L 234.045516 188.183043 
L 234.370822 190.665501 
L 234.533474 201.971165 
L 234.696127 201.971196 
L 234.858779 212.521193 
L 235.021432 212.521193 
L 235.184085 227.933177 
L 235.346737 227.932994 
L 235.50939 189.13692 
L 235.672042 189.136981 
L 235.834695 165.901922 
L 235.997347 165.901953 
L 236.16 203.759506 
L 236.322653 203.759445 
L 236.485305 231.461259 
L 236.647958 231.461198 
L 236.81061 257.005582 
L 236.973263 257.005673 
L 237.135915 265.613789 
L 237.298568 265.613728 
L 237.461221 262.66562 
L 237.623873 262.665529 
L 237.786526 261.582579 
L 237.949178 261.582518 
L 238.111831 260.090532 
L 238.274484 260.090624 
L 238.437136 258.176805 
L 238.599789 258.176866 
L 238.762441 257.517851 
L 238.925094 257.517821 
L 239.087746 256.143969 
L 239.250399 256.143969 
L 239.413052 255.014734 
L 239.575704 255.014704 
L 239.901009 235.320799 
L 240.226314 221.830555 
L 240.388967 226.770973 
L 240.55162 204.866955 
L 240.714272 202.991103 
L 240.876925 206.820507 
L 241.039577 178.42354 
L 241.20223 180.140063 
L 241.364882 220.804646 
L 241.527535 230.468379 
L 241.690188 231.701671 
L 241.85284 247.094276 
L 242.015493 210.886971 
L 242.178145 219.8256 
L 242.340798 241.44411 
L 242.503451 218.928885 
L 242.828756 223.856627 
L 242.991408 207.945171 
L 243.316713 220.455942 
L 243.642019 194.609169 
L 243.804671 247.115879 
L 243.967324 247.287001 
L 244.129976 245.351701 
L 244.292629 234.333251 
L 244.455281 247.351172 
L 244.617934 236.561921 
L 244.780587 250.9813 
L 244.943239 254.793488 
L 245.105892 253.692956 
L 245.268544 253.936537 
L 245.431197 250.690642 
L 245.59385 244.194434 
L 245.919155 255.147311 
L 246.081807 255.090484 
L 246.24446 252.258408 
L 246.407112 254.580561 
L 246.569765 236.456798 
L 246.89507 251.823808 
L 247.220375 226.120551 
L 247.383028 222.403065 
L 247.54568 208.848437 
L 247.870986 204.364131 
L 248.033638 175.903238 
L 248.196291 237.285503 
L 248.521596 255.681397 
L 248.846901 240.960818 
L 249.009554 245.637423 
L 249.172206 238.825601 
L 249.497511 263.202235 
L 249.660164 274.677681 
L 249.822817 274.677529 
L 249.985469 276.136515 
L 250.148122 268.128485 
L 250.310774 275.293824 
L 250.473427 268.245339 
L 250.636079 273.267143 
L 250.798732 274.50013 
L 250.961385 272.553708 
L 251.611995 243.873976 
L 251.774647 241.062924 
L 252.099953 228.065815 
L 252.262605 219.643021 
L 252.425258 218.850271 
L 252.58791 193.014468 
L 252.750563 207.685685 
L 252.913216 194.05412 
L 253.075868 156.239285 
L 253.238521 149.164687 
L 253.563826 226.652352 
L 253.726478 226.175763 
L 253.889131 226.175763 
L 254.377089 246.616865 
L 254.539741 252.252222 
L 255.027699 252.558328 
L 255.190352 250.35309 
L 255.353004 252.222788 
L 255.515657 251.927986 
L 255.678309 252.050294 
L 255.840962 257.601188 
L 256.003615 253.842962 
L 256.654225 219.071334 
L 256.816877 197.222894 
L 256.97953 197.894767 
L 257.142183 171.941135 
L 257.304835 172.833767 
L 257.467488 114.363319 
L 257.792793 192.31898 
L 257.955445 193.989918 
L 258.118098 128.008048 
L 258.280751 117.616345 
L 258.443403 217.15907 
L 258.606056 178.143486 
L 258.768708 179.923387 
L 258.931361 206.325728 
L 259.094013 200.719744 
L 259.419319 215.357687 
L 259.581971 204.44043 
L 259.744624 208.45933 
L 259.907276 208.247865 
L 260.069929 203.179562 
L 260.232582 212.201802 
L 260.395234 173.647297 
L 260.557887 173.931678 
L 260.720539 186.967576 
L 260.883192 209.913349 
L 261.045844 204.00845 
L 261.208497 213.812531 
L 261.37115 216.485185 
L 261.533802 216.484972 
L 261.696455 187.757462 
L 261.859107 187.757462 
L 262.02176 184.88096 
L 262.184412 184.88096 
L 262.347065 181.135532 
L 262.509718 167.453721 
L 262.67237 190.441391 
L 262.835023 160.330492 
L 262.997675 179.839776 
L 263.160328 179.983627 
L 263.322981 249.55449 
L 263.485633 249.554125 
L 263.648286 255.774576 
L 263.810938 251.428697 
L 263.973591 252.148623 
L 264.298896 252.378278 
L 264.461549 252.170104 
L 264.624201 256.17316 
L 265.274811 256.486548 
L 265.437464 255.086279 
L 265.600117 248.733525 
L 266.413379 148.226014 
L 266.901337 243.342723 
L 267.06399 250.80777 
L 267.226642 247.739731 
L 267.551948 267.163607 
L 267.7146 248.78115 
L 267.877253 248.584098 
L 268.039905 241.611179 
L 268.527863 251.642783 
L 269.178473 157.636477 
L 269.341126 187.242755 
L 269.666431 144.656523 
L 269.829084 209.748412 
L 269.991736 194.681019 
L 270.154389 211.701964 
L 270.317041 202.796732 
L 270.479694 226.825454 
L 270.642347 198.493329 
L 270.967652 224.94948 
L 271.130304 232.723254 
L 271.292957 233.371878 
L 271.455609 198.518254 
L 271.943567 245.41965 
L 272.431525 290.02909 
L 272.594177 267.780664 
L 272.75683 274.765771 
L 272.919483 274.765802 
L 273.082135 276.363581 
L 273.244788 276.363611 
L 273.40744 275.481949 
L 273.570093 275.481918 
L 273.732745 259.187815 
L 273.895398 259.187906 
L 274.058051 279.798819 
L 274.383356 247.751554 
L 274.708661 238.622485 
L 275.033966 219.999129 
L 275.196619 219.99919 
L 275.359271 213.080356 
L 275.521924 213.080356 
L 275.684576 215.372618 
L 276.009882 176.004126 
L 276.335187 248.833468 
L 276.660492 264.195481 
L 276.823144 264.195481 
L 276.985797 285.204521 
L 277.14845 285.204582 
L 277.311102 287.328098 
L 277.473755 287.328159 
L 277.636407 273.829414 
L 277.79906 273.829414 
L 277.961713 268.663637 
L 278.124365 268.663607 
L 278.287018 283.930186 
L 278.44967 283.930064 
L 278.612323 288.342398 
L 278.774975 286.206968 
L 278.937628 286.206907 
L 279.262933 271.162062 
L 279.588238 249.801667 
L 279.750891 251.918296 
L 279.913543 239.087556 
L 280.076196 272.832269 
L 280.238849 272.83233 
L 280.401501 269.385025 
L 280.564154 269.065573 
L 280.726806 278.138545 
L 280.889459 272.819959 
L 281.052111 272.82002 
L 281.214764 271.282237 
L 281.377417 263.474154 
L 281.540069 243.267096 
L 281.702722 243.267126 
L 281.865374 205.317521 
L 282.028027 205.317491 
L 282.19068 214.043771 
L 282.353332 214.043771 
L 282.515985 212.99315 
L 282.678637 212.99315 
L 282.84129 205.156424 
L 283.003942 205.156455 
L 283.166595 191.917989 
L 283.329248 219.460564 
L 283.4919 219.460594 
L 283.654553 228.972037 
L 283.817205 228.971854 
L 283.979858 231.658982 
L 284.14251 231.658982 
L 284.305163 228.350957 
L 284.467816 228.301687 
L 284.630468 229.543632 
L 284.793121 229.543632 
L 284.955773 233.065802 
L 285.118426 233.065833 
L 285.281079 231.512724 
L 285.443731 231.512785 
L 285.606384 224.468047 
L 285.769036 224.467956 
L 285.931689 225.903784 
L 286.094341 225.903845 
L 286.256994 208.344273 
L 286.419647 210.461421 
L 286.744952 229.746321 
L 287.070257 204.664083 
L 287.395562 222.46498 
L 287.720867 153.485336 
L 287.88352 189.261026 
L 288.046172 185.461178 
L 288.208825 209.200158 
L 288.371478 208.543093 
L 288.53413 197.592988 
L 288.696783 264.958918 
L 288.859435 255.249509 
L 289.022088 256.359273 
L 289.18474 252.296831 
L 289.347393 254.745345 
L 289.672698 246.808189 
L 289.835351 235.073988 
L 290.485961 152.629573 
L 290.648614 150.771028 
L 290.811266 185.982832 
L 290.973919 196.567322 
L 291.136571 196.552666 
L 291.299224 137.997145 
L 291.461876 120.532092 
L 291.624529 196.619244 
L 291.787182 179.058209 
L 291.949834 203.203512 
L 292.112487 203.802378 
L 292.437792 215.264844 
L 292.600445 216.22838 
L 292.763097 201.693457 
L 292.92575 231.749997 
L 293.251055 206.098113 
L 293.413707 206.098083 
L 293.57636 229.777553 
L 293.739013 229.777371 
L 293.901665 210.490916 
L 294.064318 210.490733 
L 294.389623 216.421289 
L 294.552275 210.512002 
L 294.714928 177.921783 
L 294.877581 202.341533 
L 295.040233 202.341533 
L 295.365538 211.016562 
L 295.528191 208.092953 
L 295.690844 208.092922 
L 295.853496 229.296608 
L 296.016149 210.802111 
L 296.178801 210.802141 
L 296.341454 229.931642 
L 296.504106 229.931612 
L 296.666759 231.537466 
L 296.829412 231.537252 
L 296.992064 228.171822 
L 297.154717 233.977113 
L 297.317369 231.560623 
L 297.480022 231.560562 
L 297.642674 229.744036 
L 297.805327 229.744097 
L 297.96798 220.389882 
L 298.130632 220.389699 
L 298.293285 230.80395 
L 298.455937 230.804011 
L 298.61859 223.029537 
L 298.781242 223.029567 
L 298.943895 212.924713 
L 299.106548 212.924713 
L 299.431853 207.983381 
L 299.594505 207.825757 
L 299.757158 185.799827 
L 299.919811 185.799796 
L 300.082463 217.093071 
L 300.245116 217.092918 
L 300.407768 216.181486 
L 300.570421 216.181517 
L 300.733073 215.062459 
L 300.895726 215.062428 
L 301.058379 214.574414 
L 301.221031 214.574414 
L 301.383684 199.255425 
L 301.546336 199.255425 
L 301.708989 204.466969 
L 302.034294 257.83453 
L 302.196947 240.751273 
L 302.359599 249.251706 
L 302.522252 251.482264 
L 302.684904 252.042921 
L 302.847557 256.320454 
L 303.01021 274.12449 
L 303.172862 266.047079 
L 303.335515 269.698718 
L 303.66082 267.049008 
L 303.823472 258.761899 
L 303.986125 256.290501 
L 304.148778 257.962506 
L 304.31143 255.074852 
L 304.799388 233.093165 
L 304.96204 218.989704 
L 305.124693 220.719907 
L 305.449998 150.422141 
L 305.612651 155.527069 
L 305.937956 125.990051 
L 306.100608 200.039278 
L 306.425914 179.113513 
L 306.588566 138.626939 
L 306.751219 150.632113 
L 306.913871 171.801062 
L 307.076524 208.872174 
L 307.239177 209.617572 
L 307.401829 215.030952 
L 307.727134 193.801215 
L 307.889787 205.851089 
L 308.052439 205.851089 
L 308.215092 211.487635 
L 308.377745 207.806165 
L 308.540397 208.197009 
L 308.865702 217.879269 
L 309.028355 217.879239 
L 309.191007 215.946315 
L 309.35366 215.946468 
L 309.516313 213.106043 
L 309.678965 213.10589 
L 309.841618 212.691157 
L 310.00427 212.691157 
L 310.166923 216.437011 
L 310.329576 216.436859 
L 310.492228 217.755651 
L 310.654881 217.755468 
L 310.817533 216.059635 
L 310.980186 208.407438 
L 311.142838 219.621752 
L 311.305491 219.121793 
L 311.468144 214.859769 
L 311.630796 195.138715 
L 311.793449 224.392785 
L 311.956101 222.107714 
L 312.444059 201.444575 
L 312.606712 201.444575 
L 312.769364 192.052973 
L 312.932017 192.053003 
L 313.094669 198.387688 
L 313.257322 198.387871 
L 313.419974 173.009703 
L 313.582627 173.009703 
L 313.74528 158.72668 
L 313.907932 178.290567 
L 314.070585 178.606546 
L 314.233237 163.054641 
L 314.883848 261.408105 
L 315.0465 260.711154 
L 315.209153 260.711215 
L 315.371805 260.475831 
L 315.534458 260.47577 
L 315.697111 259.812794 
L 315.859763 259.812794 
L 316.185068 259.945097 
L 316.347721 259.05603 
L 316.510373 259.055908 
L 316.673026 258.486385 
L 317.160984 258.541719 
L 317.323636 258.3436 
L 317.486289 258.343509 
L 317.648942 258.533949 
L 317.811594 258.53398 
L 317.974247 255.935216 
L 318.136899 256.331606 
L 318.462204 238.64613 
L 319.112815 151.348321 
L 319.763425 244.477199 
L 319.926078 246.009467 
L 320.251383 260.903941 
L 320.414035 264.184633 
L 320.576688 252.242837 
L 320.73934 250.413148 
L 320.901993 250.229106 
L 321.064646 252.560918 
L 321.227298 251.466267 
L 321.389951 244.395752 
L 321.552603 232.275765 
L 321.877909 167.569204 
L 322.040561 167.638525 
L 322.203214 169.674042 
L 322.528519 178.850767 
L 322.691171 171.108195 
L 322.853824 203.015966 
L 323.016477 184.721417 
L 323.341782 208.210782 
L 323.504434 194.271922 
L 323.667087 166.767039 
L 323.829739 166.766765 
L 323.992392 180.344702 
L 324.155045 180.344672 
L 324.317697 179.277353 
L 324.48035 185.448685 
L 324.643002 167.007329 
L 324.805655 212.368566 
L 324.968308 212.368566 
L 325.13096 206.870448 
L 325.293613 208.039538 
L 325.456265 217.201576 
L 325.618918 236.662565 
L 325.78157 232.659845 
L 325.944223 237.915997 
L 326.106876 234.360522 
L 326.432181 217.266082 
L 326.594833 201.670879 
L 326.757486 201.67094 
L 327.082791 230.804438 
L 327.408096 223.285946 
L 327.570749 223.671092 
L 327.733401 231.125322 
L 327.896054 249.74426 
L 328.058707 178.346785 
L 328.384012 248.264981 
L 328.546664 256.818189 
L 328.709317 291.800276 
L 328.871969 274.312737 
L 329.197275 275.010236 
L 329.52258 269.870419 
L 329.847885 257.318361 
L 330.010537 281.025864 
L 330.17319 274.044444 
L 330.335843 273.222382 
L 330.498495 275.588687 
L 330.661148 274.633834 
L 330.8238 274.427884 
L 331.149105 218.00883 
L 331.311758 218.00883 
L 331.474411 199.158164 
L 331.637063 197.242304 
L 331.799716 210.524556 
L 331.962368 209.99504 
L 332.125021 207.216318 
L 332.287674 191.990082 
L 332.450326 213.692325 
L 332.612979 204.68398 
L 332.775631 204.684193 
L 332.938284 199.600351 
L 333.100936 199.600412 
L 333.263589 206.033699 
L 333.426242 206.033729 
L 333.588894 216.130235 
L 333.751547 204.317816 
L 333.914199 214.68947 
L 334.076852 208.110809 
L 334.239504 208.204018 
L 334.402157 220.945297 
L 334.56481 216.063383 
L 334.890115 219.930083 
L 335.052767 219.930083 
L 335.21542 224.449582 
L 335.540725 174.265116 
L 335.703378 173.025395 
L 335.86603 173.149837 
L 336.028683 172.779011 
L 336.191335 162.897841 
L 336.353988 183.44955 
L 336.516641 172.311168 
L 336.679293 175.749484 
L 336.841946 193.182695 
L 337.004598 194.614166 
L 337.167251 188.305991 
L 337.329903 188.597654 
L 337.655209 199.84963 
L 337.817861 197.238129 
L 337.980514 142.336015 
L 338.143166 179.444209 
L 338.305819 188.752688 
L 338.468471 237.466132 
L 338.631124 241.894951 
L 338.793777 241.933435 
L 338.956429 241.766579 
L 339.119082 248.282501 
L 339.281734 248.289692 
L 339.444387 231.253847 
L 339.60704 242.529894 
L 339.932345 227.640569 
L 340.420302 211.026099 
L 340.582955 210.422084 
L 340.745608 209.246351 
L 340.90826 211.890546 
L 341.070913 231.11673 
L 341.233565 183.70538 
L 341.396218 176.830759 
L 341.55887 210.840869 
L 341.721523 221.161424 
L 341.884176 224.311886 
L 342.046828 233.012022 
L 342.209481 235.26004 
L 342.372133 218.095427 
L 342.534786 219.820968 
L 342.697439 224.268557 
L 343.022744 217.842248 
L 343.185396 191.943157 
L 343.348049 217.202216 
L 343.510701 220.151603 
L 343.673354 216.276158 
L 343.836007 191.347551 
L 344.161312 242.595649 
L 344.323964 247.565897 
L 344.486617 236.941309 
L 344.649269 259.347266 
L 344.811922 234.107892 
L 344.974575 227.3142 
L 345.137227 228.000456 
L 345.625185 253.840098 
L 345.787837 252.014035 
L 345.95049 239.417276 
L 346.113143 236.061291 
L 346.275795 237.089852 
L 346.6011 224.868429 
L 346.763753 237.609282 
L 346.926406 230.139207 
L 347.251711 204.382658 
L 347.414363 204.447011 
L 347.739668 181.976761 
L 347.902321 161.308959 
L 348.064974 41.472 
L 348.227626 43.402181 
L 348.552931 139.180952 
L 348.715584 140.194887 
L 348.878236 180.339492 
L 349.366194 202.655227 
L 349.528847 201.211659 
L 349.691499 208.166326 
L 349.854152 208.298019 
L 350.016805 210.061344 
L 350.179457 203.591157 
L 350.34211 205.146338 
L 350.504762 228.669404 
L 350.667415 198.280798 
L 350.830067 195.241553 
L 351.155373 216.267657 
L 351.318025 192.120617 
L 351.480678 194.148426 
L 351.64333 208.377912 
L 351.805983 208.377912 
L 351.968635 199.612234 
L 352.131288 199.612417 
L 352.293941 204.809244 
L 352.456593 196.226876 
L 352.781898 194.240964 
L 352.944551 184.917707 
L 353.107203 184.917677 
L 353.269856 170.087678 
L 353.432509 170.087678 
L 353.595161 178.730774 
L 353.757814 178.852107 
L 353.920466 178.812709 
L 354.083119 99.193849 
L 354.245772 169.773741 
L 354.571077 187.558277 
L 354.733729 192.729234 
L 354.896382 213.568249 
L 355.059034 213.56834 
L 355.221687 221.705505 
L 355.38434 221.705474 
L 355.546992 200.744912 
L 355.709645 200.745004 
L 355.872297 199.502754 
L 356.03495 249.837835 
L 356.197602 258.479102 
L 356.360255 258.479133 
L 356.522908 268.065228 
L 356.68556 268.065167 
L 356.848213 266.487498 
L 357.010865 266.48759 
L 357.173518 268.692523 
L 357.336171 268.692493 
L 357.498823 268.251829 
L 357.661476 268.251798 
L 357.824128 267.454631 
L 357.986781 260.321559 
L 358.312086 239.154255 
L 358.474739 234.697373 
L 358.800044 183.330532 
L 358.962696 147.334144 
L 359.125349 147.876762 
L 359.450654 112.164511 
L 359.775959 154.183079 
L 359.938612 152.976449 
L 360.101264 165.728423 
L 360.263917 148.318522 
L 360.751875 239.406703 
L 360.914527 214.442751 
L 361.07718 255.581332 
L 361.239832 214.947433 
L 361.565138 204.215954 
L 361.72779 144.547225 
L 361.890443 146.091376 
L 362.053095 148.864309 
L 362.3784 204.359591 
L 362.703706 171.482433 
L 362.866358 109.485427 
L 363.029011 167.731673 
L 363.191663 175.799943 
L 363.354316 177.72854 
L 363.516968 165.20619 
L 364.167579 206.387674 
L 364.492884 148.748704 
L 364.655537 152.160389 
L 364.818189 92.140458 
L 364.980842 114.855905 
L 365.143494 160.544851 
L 365.306147 134.081784 
L 365.468799 162.554743 
L 365.631452 159.892784 
L 365.794105 222.648717 
L 365.956757 201.482572 
L 366.11941 214.524503 
L 366.282062 196.249759 
L 366.607367 205.386293 
L 366.77002 205.386293 
L 366.932673 207.828774 
L 367.095325 207.828957 
L 367.257978 149.731711 
L 367.42063 149.731833 
L 367.583283 202.49221 
L 367.745936 191.654998 
L 368.071241 209.295408 
L 368.233893 209.295378 
L 368.396546 214.645318 
L 368.559198 214.645136 
L 368.721851 207.450819 
L 368.884504 189.20167 
L 369.047156 189.20167 
L 369.209809 189.867571 
L 369.372461 189.867541 
L 369.535114 221.811298 
L 369.697766 221.811237 
L 369.860419 220.763145 
L 370.023072 218.526279 
L 370.185724 225.575313 
L 370.348377 225.575313 
L 370.511029 229.946756 
L 370.673682 229.946603 
L 370.836334 227.115411 
L 370.998987 227.115472 
L 371.16164 224.397386 
L 371.324292 224.397386 
L 371.649597 200.680589 
L 371.81225 207.125333 
L 371.974903 252.678961 
L 372.137555 252.678991 
L 372.300208 269.81152 
L 372.46286 269.81152 
L 372.625513 249.326358 
L 372.788165 249.326328 
L 372.950818 243.1961 
L 373.113471 243.196008 
L 373.276123 226.510298 
L 373.438776 226.510298 
L 373.601428 212.732353 
L 373.764081 212.732262 
L 374.089386 181.431431 
L 374.414691 185.193374 
L 374.902649 226.524315 
L 375.227954 252.146825 
L 375.553259 287.638196 
L 375.715912 295.80775 
L 375.878564 274.230253 
L 376.041217 278.357658 
L 376.20387 286.129787 
L 376.366522 285.803875 
L 376.529175 285.875876 
L 376.691827 285.767584 
L 376.85448 285.305256 
L 377.179785 285.774044 
L 377.50509 285.396332 
L 377.830395 262.312712 
L 378.1557 216.660299 
L 378.318353 198.509631 
L 378.481006 198.043585 
L 378.643658 193.117915 
L 378.806311 192.868667 
L 378.968963 200.100676 
L 379.131616 188.293498 
L 379.456921 216.199098 
L 379.619574 216.766763 
L 379.782226 216.052139 
L 379.944879 216.543353 
L 380.432837 230.300853 
L 380.595489 246.398361 
L 380.758142 285.844126 
L 380.920794 281.139214 
L 381.083447 299.89335 
L 381.246099 295.637055 
L 381.408752 281.872333 
L 381.571405 281.330843 
L 381.734057 268.614336 
L 381.89671 276.719079 
L 382.059362 277.273398 
L 382.222015 278.862462 
L 382.384668 282.617671 
L 382.54732 282.509592 
L 382.709973 282.928531 
L 383.035278 230.156027 
L 383.360583 222.356902 
L 383.685888 218.109534 
L 383.848541 217.895358 
L 384.011193 214.038225 
L 384.336498 215.721535 
L 384.499151 207.11735 
L 384.661804 206.664711 
L 384.824456 199.669702 
L 385.149761 177.076929 
L 385.312414 170.817872 
L 385.475066 176.737001 
L 385.637719 202.517348 
L 385.800372 205.415453 
L 386.125677 157.179908 
L 386.288329 157.179908 
L 386.776287 224.322764 
L 386.93894 215.836561 
L 387.101592 256.924134 
L 387.264245 264.925675 
L 387.426897 264.546135 
L 387.58955 267.407706 
L 387.752203 267.407706 
L 387.914855 277.581271 
L 388.077508 277.58121 
L 388.24016 284.710747 
L 388.402813 284.710747 
L 388.565465 286.21358 
L 388.728118 286.213611 
L 388.890771 283.641966 
L 389.053423 283.641966 
L 389.216076 272.723459 
L 389.866686 187.341875 
L 390.029339 191.505723 
L 390.191991 178.106831 
L 390.354644 178.106831 
L 390.517296 180.873517 
L 390.679949 180.873456 
L 390.842602 198.390461 
L 391.005254 198.390491 
L 391.167907 202.256795 
L 391.330559 202.256612 
L 391.493212 209.053778 
L 391.655864 209.053778 
L 391.98117 240.33465 
L 392.143822 253.244492 
L 392.306475 253.244523 
L 392.469127 259.227609 
L 392.63178 259.227609 
L 392.794433 281.125107 
L 392.957085 273.210529 
L 393.119738 273.210499 
L 393.28239 275.573025 
L 393.445043 275.572964 
L 393.607695 284.02309 
L 393.770348 284.023151 
L 393.933001 287.897773 
L 394.095653 287.897743 
L 394.258306 282.419644 
L 394.420958 282.419583 
L 394.583611 272.641219 
L 394.746263 272.641219 
L 394.908916 268.389312 
L 395.071569 268.389312 
L 395.234221 280.460668 
L 395.396874 280.460668 
L 395.559526 253.03126 
L 395.722179 253.03126 
L 395.884831 247.686774 
L 396.047484 247.686652 
L 396.210137 220.880182 
L 396.372789 220.879999 
L 396.535442 183.233667 
L 396.698094 183.233667 
L 396.860747 205.71836 
L 397.0234 205.718147 
L 397.186052 183.824885 
L 397.348705 183.825128 
L 397.511357 167.059891 
L 397.67401 167.05986 
L 397.836662 208.583314 
L 397.999315 208.583314 
L 398.161968 169.227741 
L 398.32462 165.630339 
L 398.487273 300.510315 
L 398.487273 300.510315 
" style="fill:none;stroke:#1f77b4;stroke-linecap:square;stroke-width:1.5;"/>
   </g>
   <g id="line2d_32">
    <path clip-path="url(#p40f92f4849)" d="M 73.832727 154.606374 
L 74.158032 187.378278 
L 74.320685 188.565424 
L 74.483338 184.953583 
L 74.64599 187.243598 
L 75.2966 219.865894 
L 75.621906 231.801964 
L 75.784558 233.599209 
L 76.109863 239.718381 
L 76.272516 239.552483 
L 76.435169 237.642235 
L 76.923126 228.370373 
L 77.248431 231.108053 
L 77.411084 229.194643 
L 77.573737 228.889347 
L 77.736389 231.171508 
L 77.899042 231.794781 
L 78.549652 222.431471 
L 79.03761 215.929989 
L 79.362915 211.421399 
L 79.525567 211.590936 
L 79.68822 213.259763 
L 80.176178 222.850793 
L 80.826788 228.451397 
L 80.989441 228.192502 
L 81.314746 228.767508 
L 81.477398 228.180201 
L 81.965356 228.366858 
L 82.453314 233.849518 
L 82.778619 237.912595 
L 82.941272 239.482725 
L 83.266577 239.101261 
L 83.429229 239.962635 
L 83.591882 241.456405 
L 83.917187 240.255652 
L 84.07984 240.513652 
L 84.405145 239.930358 
L 84.567797 240.088 
L 84.893103 241.096238 
L 85.218408 241.10049 
L 86.194323 229.931469 
L 86.519628 230.002003 
L 86.844934 231.851794 
L 87.332891 241.260275 
L 87.820849 251.666603 
L 89.12207 269.874723 
L 89.447375 270.705113 
L 89.77268 269.537639 
L 90.42329 264.06607 
L 90.911248 259.955894 
L 91.236553 259.885474 
L 91.561858 260.299949 
L 91.887163 259.464463 
L 92.049816 258.12465 
L 92.212469 257.876261 
L 92.375121 257.344031 
L 92.700426 259.310179 
L 93.513689 267.470815 
L 93.838994 269.691474 
L 94.001647 270.02964 
L 94.1643 269.760729 
L 94.489605 268.261238 
L 95.140215 262.692652 
L 95.302868 262.382536 
L 95.46552 261.687106 
L 95.790825 261.880162 
L 96.11613 262.715743 
L 96.441436 265.114479 
L 97.092046 272.065678 
L 97.742656 281.538053 
L 98.230614 290.302965 
L 98.555919 293.638563 
L 98.718572 293.966614 
L 99.043877 290.615922 
L 99.531835 281.705873 
L 101.15836 240.859528 
L 101.646318 235.543535 
L 101.808971 235.191934 
L 101.971623 235.972984 
L 102.296928 241.906794 
L 103.272844 263.185472 
L 103.435496 264.936645 
L 103.598149 264.48027 
L 103.923454 260.089076 
L 105.224675 227.720563 
L 106.20059 208.330321 
L 106.363243 208.320398 
L 106.525895 209.319347 
L 106.688548 211.440886 
L 107.176506 225.392977 
L 108.152421 260.338353 
L 108.477726 269.081983 
L 108.965684 274.711133 
L 109.128337 277.445611 
L 109.453642 278.703551 
L 109.616294 278.140412 
L 110.104252 274.099315 
L 110.429557 269.398063 
L 112.056083 239.783505 
L 112.381388 235.409716 
L 112.869346 227.930582 
L 113.682609 214.328386 
L 113.845261 214.627096 
L 114.170567 218.105645 
L 114.658524 227.679273 
L 115.63444 251.181486 
L 116.122398 261.027642 
L 117.098313 285.618759 
L 117.423618 288.160896 
L 117.748923 287.949761 
L 118.074228 285.690467 
L 118.236881 284.125849 
L 118.562186 277.088136 
L 120.67667 225.309836 
L 121.001975 222.282892 
L 121.164627 222.59299 
L 121.489933 225.134064 
L 122.628501 245.266821 
L 122.953806 251.557699 
L 123.279111 256.459068 
L 123.441764 256.870741 
L 123.604416 256.204121 
L 123.929721 252.594143 
L 124.255026 245.953238 
L 125.230942 220.838788 
L 125.556247 216.154241 
L 126.044205 212.883016 
L 126.206857 213.181349 
L 126.36951 212.971659 
L 126.532163 212.420781 
L 126.857468 214.126056 
L 127.670731 223.859927 
L 127.833383 225.060822 
L 127.996036 224.322768 
L 128.321341 221.095503 
L 128.483993 222.169306 
L 128.646646 226.077779 
L 128.809299 226.576889 
L 128.971951 226.4598 
L 129.459909 220.465389 
L 129.785214 217.152122 
L 129.947867 215.458529 
L 130.273172 214.569752 
L 130.435824 214.638339 
L 130.923782 209.42873 
L 131.086435 208.506533 
L 131.574392 213.981539 
L 131.737045 213.259874 
L 132.225003 207.828721 
L 132.550308 207.228104 
L 132.71296 207.304413 
L 133.038266 206.11346 
L 133.200918 206.564375 
L 133.363571 206.358366 
L 133.526223 205.648891 
L 134.014181 198.422336 
L 134.664791 190.000402 
L 134.827444 189.171963 
L 135.152749 184.041528 
L 135.315402 182.508616 
L 135.478054 182.793324 
L 135.640707 182.453952 
L 135.803359 182.645403 
L 135.966012 183.125906 
L 136.291317 185.036059 
L 136.45397 185.396182 
L 136.616622 185.315473 
L 136.779275 185.633595 
L 136.941927 187.103725 
L 137.592538 196.819846 
L 137.75519 197.930179 
L 138.405801 208.136501 
L 138.731106 209.779072 
L 138.893758 210.316755 
L 139.056411 210.20333 
L 139.219064 209.546532 
L 140.357632 215.571916 
L 141.008242 210.807079 
L 141.170895 207.803092 
L 141.4962 206.751517 
L 141.658852 206.614278 
L 141.984157 205.222511 
L 142.634768 191.935797 
L 142.960073 188.070651 
L 143.448031 184.462078 
L 143.610683 183.950251 
L 144.098641 187.504051 
L 144.586599 191.190595 
L 144.911904 189.444947 
L 145.074556 189.458755 
L 145.237209 189.748441 
L 145.887819 203.053992 
L 146.213124 205.302576 
L 147.026387 208.948955 
L 147.18904 209.360574 
L 147.351692 209.448022 
L 147.514345 210.214839 
L 147.676998 209.919094 
L 147.83965 210.239646 
L 148.164955 210.328704 
L 148.978218 215.702843 
L 149.140871 214.935242 
L 149.466176 211.74013 
L 149.791481 209.724851 
L 150.116786 204.688375 
L 150.442091 201.868032 
L 150.767397 199.744941 
L 151.092702 199.069146 
L 151.255354 199.155711 
L 151.58066 196.231934 
L 152.23127 180.342269 
L 152.393922 178.874317 
L 152.719228 180.728427 
L 152.88188 180.22276 
L 153.044533 178.079435 
L 153.369838 180.255686 
L 153.857796 183.623673 
L 154.020448 184.111305 
L 154.508406 186.955428 
L 154.671058 189.527059 
L 154.833711 190.205354 
L 155.159016 196.504049 
L 155.646974 202.846711 
L 156.134932 200.389039 
L 156.297584 201.360865 
L 156.460237 201.34387 
L 156.948195 195.504088 
L 157.2735 190.244125 
L 157.598805 187.544492 
L 157.92411 182.858716 
L 158.249415 181.272503 
L 158.412068 181.322158 
L 158.57472 181.773987 
L 158.900026 185.232172 
L 160.038594 206.653827 
L 160.526551 210.273604 
L 160.851856 208.949489 
L 161.177162 212.083648 
L 161.665119 206.652292 
L 162.153077 198.514701 
L 162.641035 188.137779 
L 162.803687 186.942402 
L 163.128993 178.519193 
L 163.454298 174.593315 
L 163.61695 174.350115 
L 163.779603 173.819705 
L 164.104908 177.038553 
L 164.592866 183.503481 
L 165.080823 191.714585 
L 165.243476 191.911593 
L 165.568781 196.505344 
L 165.731434 195.952954 
L 165.894086 196.713395 
L 166.056739 195.350387 
L 166.870002 202.824147 
L 167.195307 206.621355 
L 167.35796 207.110357 
L 167.683265 206.715675 
L 168.00857 206.758731 
L 168.333875 203.775351 
L 168.65918 205.988958 
L 169.472443 221.366638 
L 169.960401 227.216392 
L 170.123053 226.725901 
L 170.773664 222.735887 
L 171.261621 218.30285 
L 171.424274 218.935716 
L 171.586927 218.876268 
L 172.074884 214.312874 
L 172.562842 205.91262 
L 172.888147 206.710932 
L 173.213452 206.642308 
L 173.376105 207.1461 
L 174.026715 210.628379 
L 174.189368 209.871594 
L 174.514673 206.222578 
L 174.677326 206.74948 
L 175.002631 209.347606 
L 175.327936 210.747046 
L 176.141199 220.87422 
L 176.466504 223.729652 
L 176.954462 229.17229 
L 177.117114 230.364213 
L 177.442419 237.904319 
L 177.767725 248.173384 
L 177.930377 250.090292 
L 178.09303 250.153808 
L 178.255682 249.954374 
L 178.418335 251.020875 
L 178.906293 256.705937 
L 180.044861 263.532139 
L 180.207513 263.07381 
L 180.532818 258.334066 
L 181.346081 241.507753 
L 181.508734 240.265013 
L 181.834039 232.830994 
L 182.159344 224.787897 
L 182.809954 215.413897 
L 182.972607 214.887277 
L 183.13526 214.887929 
L 183.297912 215.055889 
L 183.460565 216.613863 
L 185.087091 249.885052 
L 185.412396 252.309118 
L 185.575048 252.667242 
L 185.737701 253.471566 
L 186.063006 249.424415 
L 187.038921 221.174575 
L 187.852184 205.081314 
L 188.340142 201.697611 
L 188.502795 201.273099 
L 188.665447 200.413312 
L 188.8281 198.121644 
L 189.153405 192.337478 
L 189.316058 190.575083 
L 189.47871 191.365166 
L 189.966668 187.285782 
L 190.454626 188.458528 
L 190.617278 190.786171 
L 190.779931 190.40537 
L 190.942583 190.857579 
L 191.105236 190.581101 
L 191.755846 186.950476 
L 191.918499 186.720578 
L 192.081151 187.836455 
L 192.406457 192.516238 
L 192.569109 195.170826 
L 192.731762 195.660011 
L 193.219719 205.800521 
L 193.87033 211.429714 
L 194.032982 212.228524 
L 194.195635 212.194321 
L 194.358287 211.710568 
L 194.52094 211.696324 
L 194.846245 211.514659 
L 195.17155 209.714389 
L 195.334203 209.340567 
L 195.822161 213.91585 
L 196.147466 218.126412 
L 196.798076 219.820022 
L 196.960729 219.695182 
L 197.123381 219.16848 
L 197.286034 219.56546 
L 197.448686 219.080579 
L 197.773992 219.86233 
L 198.099297 221.221069 
L 198.424602 220.503758 
L 199.075212 210.888143 
L 199.888475 193.84652 
L 200.21378 190.231867 
L 200.539085 188.966601 
L 200.701738 189.446198 
L 200.864391 189.2093 
L 201.352348 185.909816 
L 201.840306 189.420556 
L 202.490916 192.687395 
L 202.816222 197.846661 
L 202.978874 200.044084 
L 203.141527 200.419422 
L 203.304179 201.493267 
L 203.466832 201.489689 
L 203.792137 200.215458 
L 204.117442 201.690223 
L 204.6054 210.391424 
L 204.768052 212.040307 
L 205.25601 218.783417 
L 205.581315 219.582334 
L 205.906621 221.690438 
L 206.069273 222.207857 
L 206.231926 222.110381 
L 206.394578 221.722539 
L 206.557231 222.514391 
L 206.719883 222.66401 
L 206.882536 223.250568 
L 207.207841 228.149057 
L 207.370494 229.240367 
L 207.533146 228.839173 
L 207.858451 225.495611 
L 208.346409 225.788208 
L 209.159672 232.247509 
L 209.322325 232.691211 
L 209.64763 234.817934 
L 209.810282 234.751809 
L 209.972935 235.155714 
L 210.135588 235.097543 
L 210.623545 224.263122 
L 210.786198 221.072909 
L 210.94885 220.950849 
L 211.436808 213.678394 
L 211.762113 207.219935 
L 212.250071 208.742833 
L 212.900681 203.461789 
L 213.225987 206.805797 
L 213.551292 213.26462 
L 214.039249 223.674497 
L 214.527207 228.488673 
L 214.68986 227.556268 
L 214.852512 227.670892 
L 215.015165 229.013685 
L 215.665775 220.344415 
L 216.153733 218.539404 
L 216.641691 207.344457 
L 217.292301 189.690448 
L 217.617606 186.597927 
L 217.780259 185.037319 
L 217.942911 184.718137 
L 218.268216 187.496348 
L 218.430869 187.314786 
L 218.593522 187.884009 
L 219.244132 200.969083 
L 219.73209 212.776511 
L 220.545353 237.933458 
L 221.195963 251.4581 
L 221.358615 252.035244 
L 221.521268 251.404511 
L 221.846573 248.049605 
L 222.334531 236.07644 
L 222.985141 217.182751 
L 223.310446 210.134584 
L 223.635752 207.28615 
L 223.961057 203.327381 
L 224.123709 204.056645 
L 224.611667 198.831266 
L 224.936972 198.758175 
L 225.099625 197.659523 
L 225.262277 198.541724 
L 225.587582 201.212516 
L 225.750235 204.276945 
L 225.912888 205.067728 
L 226.07554 207.311975 
L 226.400845 214.580662 
L 226.72615 217.310913 
L 227.539413 223.838133 
L 228.190024 235.971653 
L 228.515329 244.247313 
L 228.840634 249.658806 
L 229.003287 249.020319 
L 229.165939 249.870399 
L 229.816549 257.026978 
L 230.304507 259.643323 
L 230.792465 262.643452 
L 231.11777 264.798762 
L 231.280423 264.683317 
L 232.256338 250.834133 
L 232.418991 250.511575 
L 232.581643 248.510052 
L 233.069601 234.754015 
L 233.882864 207.237559 
L 234.533474 190.740127 
L 234.696127 190.336301 
L 235.021432 191.297909 
L 235.184085 191.526715 
L 235.346737 192.350261 
L 235.50939 192.496423 
L 235.672042 191.691275 
L 235.997347 187.678964 
L 236.322653 189.628264 
L 237.786526 224.777572 
L 238.274484 232.515076 
L 238.599789 235.539451 
L 239.738357 257.16234 
L 239.901009 257.35532 
L 240.226314 254.256875 
L 240.55162 249.277395 
L 241.039577 239.343466 
L 241.364882 233.307049 
L 241.690188 230.50218 
L 241.85284 229.948051 
L 242.178145 225.731896 
L 242.340798 224.996903 
L 242.991408 218.110375 
L 243.316713 216.506617 
L 243.479366 215.814378 
L 243.642019 214.206288 
L 244.292629 223.255574 
L 244.455281 226.61613 
L 244.780587 228.42964 
L 244.943239 229.584231 
L 245.105892 229.914165 
L 245.431197 233.609895 
L 245.59385 233.747411 
L 246.732418 245.652144 
L 246.89507 248.512876 
L 247.057723 247.987674 
L 247.54568 244.507679 
L 248.196291 236.231303 
L 248.358943 236.007712 
L 248.521596 236.094955 
L 248.846901 235.841214 
L 249.009554 235.53581 
L 249.172206 234.719725 
L 249.334859 234.804367 
L 249.497511 235.351558 
L 249.660164 236.356415 
L 249.985469 239.731058 
L 250.148122 240.546292 
L 250.636079 247.129835 
L 251.449342 261.305491 
L 251.611995 261.038133 
L 252.262605 257.71703 
L 252.425258 256.718264 
L 252.913216 246.722815 
L 253.401173 230.35799 
L 254.051784 221.479703 
L 254.377089 219.295546 
L 254.539741 219.025091 
L 254.865046 219.697836 
L 255.190352 220.993497 
L 255.515657 223.815594 
L 255.678309 225.475595 
L 256.654225 242.862159 
L 256.97953 239.976636 
L 257.304835 234.169751 
L 257.63014 223.53797 
L 257.955445 217.62361 
L 258.443403 202.995781 
L 259.094013 190.561286 
L 259.581971 185.405634 
L 259.907276 184.034453 
L 260.069929 184.332286 
L 260.232582 185.047638 
L 260.557887 185.187842 
L 260.883192 191.001984 
L 261.208497 192.577589 
L 261.533802 201.944877 
L 261.696455 200.474796 
L 262.02176 201.203374 
L 262.347065 199.151925 
L 262.997675 192.167901 
L 263.160328 190.754689 
L 263.648286 199.047416 
L 264.136243 208.299462 
L 265.112159 223.458233 
L 265.762769 236.951475 
L 266.088074 238.743706 
L 266.413379 235.917783 
L 266.738685 231.380131 
L 266.901337 230.758539 
L 267.06399 230.727492 
L 267.226642 230.507048 
L 267.389295 230.66589 
L 267.551948 231.405157 
L 267.7146 231.235709 
L 267.877253 230.856256 
L 268.36521 229.065028 
L 268.527863 228.822839 
L 268.690516 227.330574 
L 269.178473 219.432528 
L 269.341126 219.681058 
L 269.503778 220.434335 
L 269.666431 220.255861 
L 269.829084 221.455254 
L 270.154389 218.477515 
L 270.804999 209.554488 
L 271.130304 207.569862 
L 271.292957 207.157897 
L 271.618262 203.427328 
L 271.780915 203.116169 
L 271.943567 204.125103 
L 272.268872 212.784106 
L 272.919483 235.16716 
L 274.058051 257.31869 
L 274.383356 259.597653 
L 274.546008 260.110827 
L 274.708661 262.116039 
L 274.871314 262.672115 
L 275.196619 260.130069 
L 275.521924 254.509595 
L 276.335187 238.266938 
L 276.660492 236.815484 
L 276.823144 236.251162 
L 277.14845 238.852831 
L 277.311102 239.229295 
L 278.124365 247.103709 
L 278.937628 264.457953 
L 279.425586 275.024621 
L 279.588238 275.073031 
L 279.750891 274.737895 
L 279.913543 273.482499 
L 280.076196 273.914339 
L 280.401501 272.504751 
L 280.726806 271.132144 
L 281.052111 271.031202 
L 281.214764 271.162132 
L 281.377417 270.902659 
L 281.702722 266.836358 
L 282.515985 248.852005 
L 283.329248 237.137617 
L 283.979858 228.119717 
L 284.630468 219.992661 
L 284.955773 218.796422 
L 285.443731 222.36705 
L 285.931689 224.107536 
L 286.094341 225.144907 
L 286.256994 225.304298 
L 286.419647 226.231469 
L 286.582299 226.190694 
L 286.744952 226.70498 
L 286.907604 226.212003 
L 287.232909 224.283675 
L 287.395562 223.823975 
L 288.208825 212.262162 
L 288.53413 209.340038 
L 289.835351 221.639682 
L 289.998003 220.83304 
L 290.323308 217.246869 
L 290.648614 210.423641 
L 290.811266 210.714694 
L 290.973919 212.868794 
L 291.136571 213.233376 
L 291.299224 210.860174 
L 291.461876 206.426771 
L 291.787182 204.903839 
L 292.275139 196.90279 
L 292.92575 189.946706 
L 293.251055 188.582507 
L 293.413707 189.783267 
L 294.064318 200.84241 
L 294.389623 202.684708 
L 294.714928 209.179936 
L 294.877581 209.46605 
L 295.040233 210.630217 
L 295.528191 211.145359 
L 295.690844 210.786763 
L 296.016149 211.895607 
L 296.178801 210.848214 
L 296.504106 212.771203 
L 296.666759 214.043172 
L 296.829412 214.131157 
L 296.992064 214.05088 
L 297.480022 217.179479 
L 297.805327 218.807221 
L 298.130632 221.833034 
L 298.455937 224.409353 
L 298.943895 225.998422 
L 299.106548 225.179828 
L 299.431853 224.966402 
L 299.594505 223.861108 
L 300.082463 218.645426 
L 300.407768 217.201699 
L 301.383684 212.767787 
L 301.708989 209.873509 
L 301.871641 210.203149 
L 302.684904 219.460547 
L 302.847557 221.885282 
L 303.335515 232.944161 
L 304.148778 244.392516 
L 304.799388 251.774241 
L 304.96204 252.500378 
L 305.124693 252.055257 
L 305.612651 239.343955 
L 306.263261 220.347903 
L 306.588566 209.447636 
L 306.913871 198.792645 
L 307.889787 184.813614 
L 308.052439 183.451511 
L 308.377745 182.43072 
L 308.540397 183.457457 
L 309.35366 198.750282 
L 309.678965 201.862113 
L 310.166923 210.900074 
L 310.817533 212.501303 
L 311.305491 214.583683 
L 311.468144 214.75229 
L 311.630796 214.118917 
L 311.956101 215.367006 
L 312.118754 215.159017 
L 312.444059 213.976222 
L 312.769364 212.198474 
L 313.419974 207.544127 
L 314.39589 194.89454 
L 314.558543 195.292833 
L 315.859763 215.441994 
L 316.835679 236.845695 
L 317.486289 254.600301 
L 317.811594 259.531468 
L 318.136899 259.003991 
L 318.299552 258.362137 
L 318.462204 257.258883 
L 318.78751 252.299206 
L 319.43812 235.306686 
L 319.763425 232.917312 
L 319.926078 232.293466 
L 320.08873 232.155466 
L 320.251383 232.273577 
L 320.414035 232.555723 
L 321.227298 230.916824 
L 321.552603 229.540115 
L 322.203214 223.310191 
L 322.365866 224.491308 
L 322.528519 224.551809 
L 322.853824 222.00605 
L 323.667087 205.900078 
L 324.317697 190.964452 
L 324.805655 182.798792 
L 324.968308 183.296815 
L 325.456265 189.658305 
L 326.106876 200.340972 
L 326.432181 203.598589 
L 326.594833 203.271594 
L 326.757486 203.641545 
L 327.733401 218.304685 
L 327.896054 222.441532 
L 328.058707 220.740443 
L 328.221359 220.939217 
L 328.546664 225.447876 
L 328.871969 231.06032 
L 329.847885 244.08351 
L 330.17319 250.983865 
L 330.986453 260.71476 
L 331.149105 259.127989 
L 331.311758 261.111091 
L 331.474411 260.251797 
L 331.962368 251.29572 
L 334.076852 208.164301 
L 334.239504 206.896258 
L 334.402157 207.043081 
L 334.56481 206.945809 
L 335.21542 210.227297 
L 335.540725 208.814281 
L 336.191335 201.773843 
L 336.353988 200.9663 
L 336.841946 196.618584 
L 337.004598 196.133402 
L 337.329903 193.83857 
L 337.492556 193.244936 
L 337.817861 191.24889 
L 338.143166 185.429393 
L 338.305819 183.870523 
L 338.468471 184.521351 
L 338.793777 190.165465 
L 339.932345 213.103602 
L 340.582955 217.712591 
L 340.90826 218.960388 
L 341.233565 222.722786 
L 341.396218 222.592114 
L 341.55887 223.696523 
L 342.046828 221.556064 
L 342.209481 221.230737 
L 342.534786 218.297947 
L 342.697439 217.948682 
L 343.348049 214.215513 
L 343.673354 214.757188 
L 343.836007 213.803461 
L 343.998659 214.317302 
L 344.486617 219.336812 
L 344.649269 223.462638 
L 344.811922 224.625989 
L 345.29988 225.417646 
L 345.462532 226.227403 
L 345.95049 230.381726 
L 346.275795 232.059904 
L 346.438448 233.981279 
L 346.6011 234.36459 
L 347.089058 237.122733 
L 347.251711 236.365706 
L 347.577016 231.762083 
L 347.739668 229.013856 
L 347.902321 224.11194 
L 348.390279 198.806695 
L 349.040889 181.366108 
L 349.528847 175.78313 
L 350.34211 170.637426 
L 350.504762 171.851764 
L 350.667415 171.543453 
L 350.830067 171.623427 
L 350.99272 172.728785 
L 351.155373 175.47672 
L 351.64333 196.043186 
L 351.968635 202.473902 
L 352.293941 204.288706 
L 352.456593 204.247952 
L 352.781898 203.538224 
L 353.107203 201.206776 
L 353.757814 193.721276 
L 353.920466 192.747871 
L 354.245772 186.229977 
L 354.408424 184.503867 
L 354.733729 184.20479 
L 355.059034 184.723829 
L 355.38434 186.933145 
L 355.546992 186.729928 
L 355.872297 187.159405 
L 356.360255 197.295391 
L 357.986781 245.455331 
L 358.312086 248.43989 
L 358.474739 249.089484 
L 358.637391 248.703189 
L 358.800044 247.83247 
L 359.125349 242.580627 
L 360.589222 193.09939 
L 360.751875 191.657134 
L 360.914527 188.966682 
L 361.07718 188.373017 
L 361.72779 177.815204 
L 362.053095 172.697483 
L 362.215748 173.810046 
L 362.703706 182.467559 
L 362.866358 180.97678 
L 363.354316 183.39539 
L 363.516968 184.239773 
L 363.679621 184.338031 
L 363.842274 183.227019 
L 364.004926 180.8028 
L 364.167579 180.400046 
L 364.818189 164.574118 
L 364.980842 163.089551 
L 365.143494 163.812225 
L 365.468799 162.721566 
L 365.631452 160.498226 
L 365.956757 163.676687 
L 366.11941 168.92864 
L 367.095325 177.903002 
L 367.42063 173.01068 
L 367.745936 176.672783 
L 367.908588 179.206675 
L 368.233893 189.786396 
L 368.884504 200.229835 
L 369.209809 197.976733 
L 369.372461 196.743885 
L 369.860419 199.76746 
L 370.348377 202.199104 
L 370.673682 210.220595 
L 371.324292 215.057835 
L 371.486945 215.169026 
L 371.81225 214.0948 
L 372.137555 219.530073 
L 372.625513 230.530704 
L 373.113471 234.097341 
L 373.276123 234.496542 
L 373.438776 234.543292 
L 373.764081 233.040419 
L 374.577344 223.447765 
L 374.739996 224.166607 
L 375.065302 226.907045 
L 375.227954 226.880438 
L 375.878564 231.268852 
L 376.20387 234.867103 
L 376.529175 239.965775 
L 377.017132 250.197775 
L 377.830395 272.895774 
L 377.993048 273.277963 
L 378.1557 272.784762 
L 378.481006 268.200564 
L 380.270184 226.605704 
L 380.595489 221.878118 
L 380.758142 221.900508 
L 380.920794 222.15151 
L 381.246099 227.135403 
L 381.89671 242.245661 
L 382.709973 262.384366 
L 383.035278 264.528969 
L 383.19793 264.961186 
L 383.360583 265.026556 
L 383.523236 264.72428 
L 383.685888 264.114714 
L 383.848541 262.689564 
L 384.987109 235.206315 
L 386.288329 198.213967 
L 386.613635 194.451692 
L 386.776287 194.703388 
L 386.93894 194.58974 
L 387.426897 201.566649 
L 387.914855 210.711303 
L 388.402813 224.897578 
L 389.053423 244.108751 
L 389.541381 257.548014 
L 389.704034 259.061972 
L 389.866686 258.815816 
L 390.191991 255.288478 
L 391.818517 218.117397 
L 392.306475 212.783703 
L 392.469127 212.108911 
L 392.63178 212.513821 
L 392.957085 218.257813 
L 393.770348 242.08121 
L 394.420958 260.117387 
L 394.908916 269.782766 
L 395.396874 275.102762 
L 395.559526 275.092099 
L 395.722179 274.782282 
L 395.884831 274.20524 
L 396.210137 269.9168 
L 396.372789 267.300275 
L 398.32462 211.790789 
L 398.487273 212.793271 
L 398.487273 212.793271 
" style="fill:none;stroke:#ff7f0e;stroke-linecap:square;stroke-width:1.5;"/>
   </g>
   <g id="patch_3">
    <path d="M 57.6 307.584 
L 57.6 41.472 
" style="fill:none;stroke:#000000;stroke-linecap:square;stroke-linejoin:miter;stroke-width:0.8;"/>
   </g>
   <g id="patch_4">
    <path d="M 414.72 307.584 
L 414.72 41.472 
" style="fill:none;stroke:#000000;stroke-linecap:square;stroke-linejoin:miter;stroke-width:0.8;"/>
   </g>
   <g id="patch_5">
    <path d="M 57.6 307.584 
L 414.72 307.584 
" style="fill:none;stroke:#000000;stroke-linecap:square;stroke-linejoin:miter;stroke-width:0.8;"/>
   </g>
   <g id="patch_6">
    <path d="M 57.6 41.472 
L 414.72 41.472 
" style="fill:none;stroke:#000000;stroke-linecap:square;stroke-linejoin:miter;stroke-width:0.8;"/>
   </g>
   <g id="legend_1">
    <g id="patch_7">
     <path d="M 64.6 78.82825 
L 188.440625 78.82825 
Q 190.440625 78.82825 190.440625 76.82825 
L 190.440625 48.472 
Q 190.440625 46.472 188.440625 46.472 
L 64.6 46.472 
Q 62.6 46.472 62.6 48.472 
L 62.6 76.82825 
Q 62.6 78.82825 64.6 78.82825 
z
" style="fill:#ffffff;opacity:0.8;stroke:#cccccc;stroke-linejoin:miter;"/>
    </g>
    <g id="line2d_33">
     <path d="M 66.6 54.570437 
L 86.6 54.570437 
" style="fill:none;stroke:#1f77b4;stroke-linecap:square;stroke-width:1.5;"/>
    </g>
    <g id="line2d_34"/>
    <g id="text_16">
     <!-- Edge D-Optimality -->
     <defs>
      <path d="M 9.8125 72.90625 
L 55.90625 72.90625 
L 55.90625 64.59375 
L 19.671875 64.59375 
L 19.671875 43.015625 
L 54.390625 43.015625 
L 54.390625 34.71875 
L 19.671875 34.71875 
L 19.671875 8.296875 
L 56.78125 8.296875 
L 56.78125 0 
L 9.8125 0 
z
" id="DejaVuSans-69"/>
      <path d="M 45.40625 46.390625 
L 45.40625 75.984375 
L 54.390625 75.984375 
L 54.390625 0 
L 45.40625 0 
L 45.40625 8.203125 
Q 42.578125 3.328125 38.25 0.953125 
Q 33.9375 -1.421875 27.875 -1.421875 
Q 17.96875 -1.421875 11.734375 6.484375 
Q 5.515625 14.40625 5.515625 27.296875 
Q 5.515625 40.1875 11.734375 48.09375 
Q 17.96875 56 27.875 56 
Q 33.9375 56 38.25 53.625 
Q 42.578125 51.265625 45.40625 46.390625 
z
M 14.796875 27.296875 
Q 14.796875 17.390625 18.875 11.75 
Q 22.953125 6.109375 30.078125 6.109375 
Q 37.203125 6.109375 41.296875 11.75 
Q 45.40625 17.390625 45.40625 27.296875 
Q 45.40625 37.203125 41.296875 42.84375 
Q 37.203125 48.484375 30.078125 48.484375 
Q 22.953125 48.484375 18.875 42.84375 
Q 14.796875 37.203125 14.796875 27.296875 
z
" id="DejaVuSans-100"/>
      <path d="M 45.40625 27.984375 
Q 45.40625 37.75 41.375 43.109375 
Q 37.359375 48.484375 30.078125 48.484375 
Q 22.859375 48.484375 18.828125 43.109375 
Q 14.796875 37.75 14.796875 27.984375 
Q 14.796875 18.265625 18.828125 12.890625 
Q 22.859375 7.515625 30.078125 7.515625 
Q 37.359375 7.515625 41.375 12.890625 
Q 45.40625 18.265625 45.40625 27.984375 
z
M 54.390625 6.78125 
Q 54.390625 -7.171875 48.1875 -13.984375 
Q 42 -20.796875 29.203125 -20.796875 
Q 24.46875 -20.796875 20.265625 -20.09375 
Q 16.0625 -19.390625 12.109375 -17.921875 
L 12.109375 -9.1875 
Q 16.0625 -11.328125 19.921875 -12.34375 
Q 23.78125 -13.375 27.78125 -13.375 
Q 36.625 -13.375 41.015625 -8.765625 
Q 45.40625 -4.15625 45.40625 5.171875 
L 45.40625 9.625 
Q 42.625 4.78125 38.28125 2.390625 
Q 33.9375 0 27.875 0 
Q 17.828125 0 11.671875 7.65625 
Q 5.515625 15.328125 5.515625 27.984375 
Q 5.515625 40.671875 11.671875 48.328125 
Q 17.828125 56 27.875 56 
Q 33.9375 56 38.28125 53.609375 
Q 42.625 51.21875 45.40625 46.390625 
L 45.40625 54.6875 
L 54.390625 54.6875 
z
" id="DejaVuSans-103"/>
      <path d="M 56.203125 29.59375 
L 56.203125 25.203125 
L 14.890625 25.203125 
Q 15.484375 15.921875 20.484375 11.0625 
Q 25.484375 6.203125 34.421875 6.203125 
Q 39.59375 6.203125 44.453125 7.46875 
Q 49.3125 8.734375 54.109375 11.28125 
L 54.109375 2.78125 
Q 49.265625 0.734375 44.1875 -0.34375 
Q 39.109375 -1.421875 33.890625 -1.421875 
Q 20.796875 -1.421875 13.15625 6.1875 
Q 5.515625 13.8125 5.515625 26.8125 
Q 5.515625 40.234375 12.765625 48.109375 
Q 20.015625 56 32.328125 56 
Q 43.359375 56 49.78125 48.890625 
Q 56.203125 41.796875 56.203125 29.59375 
z
M 47.21875 32.234375 
Q 47.125 39.59375 43.09375 43.984375 
Q 39.0625 48.390625 32.421875 48.390625 
Q 24.90625 48.390625 20.390625 44.140625 
Q 15.875 39.890625 15.1875 32.171875 
z
" id="DejaVuSans-101"/>
      <path id="DejaVuSans-32"/>
      <path d="M 19.671875 64.796875 
L 19.671875 8.109375 
L 31.59375 8.109375 
Q 46.6875 8.109375 53.6875 14.9375 
Q 60.6875 21.78125 60.6875 36.53125 
Q 60.6875 51.171875 53.6875 57.984375 
Q 46.6875 64.796875 31.59375 64.796875 
z
M 9.8125 72.90625 
L 30.078125 72.90625 
Q 51.265625 72.90625 61.171875 64.09375 
Q 71.09375 55.28125 71.09375 36.53125 
Q 71.09375 17.671875 61.125 8.828125 
Q 51.171875 0 30.078125 0 
L 9.8125 0 
z
" id="DejaVuSans-68"/>
      <path d="M 4.890625 31.390625 
L 31.203125 31.390625 
L 31.203125 23.390625 
L 4.890625 23.390625 
z
" id="DejaVuSans-45"/>
      <path d="M 39.40625 66.21875 
Q 28.65625 66.21875 22.328125 58.203125 
Q 16.015625 50.203125 16.015625 36.375 
Q 16.015625 22.609375 22.328125 14.59375 
Q 28.65625 6.59375 39.40625 6.59375 
Q 50.140625 6.59375 56.421875 14.59375 
Q 62.703125 22.609375 62.703125 36.375 
Q 62.703125 50.203125 56.421875 58.203125 
Q 50.140625 66.21875 39.40625 66.21875 
z
M 39.40625 74.21875 
Q 54.734375 74.21875 63.90625 63.9375 
Q 73.09375 53.65625 73.09375 36.375 
Q 73.09375 19.140625 63.90625 8.859375 
Q 54.734375 -1.421875 39.40625 -1.421875 
Q 24.03125 -1.421875 14.8125 8.828125 
Q 5.609375 19.09375 5.609375 36.375 
Q 5.609375 53.65625 14.8125 63.9375 
Q 24.03125 74.21875 39.40625 74.21875 
z
" id="DejaVuSans-79"/>
      <path d="M 18.109375 8.203125 
L 18.109375 -20.796875 
L 9.078125 -20.796875 
L 9.078125 54.6875 
L 18.109375 54.6875 
L 18.109375 46.390625 
Q 20.953125 51.265625 25.265625 53.625 
Q 29.59375 56 35.59375 56 
Q 45.5625 56 51.78125 48.09375 
Q 58.015625 40.1875 58.015625 27.296875 
Q 58.015625 14.40625 51.78125 6.484375 
Q 45.5625 -1.421875 35.59375 -1.421875 
Q 29.59375 -1.421875 25.265625 0.953125 
Q 20.953125 3.328125 18.109375 8.203125 
z
M 48.6875 27.296875 
Q 48.6875 37.203125 44.609375 42.84375 
Q 40.53125 48.484375 33.40625 48.484375 
Q 26.265625 48.484375 22.1875 42.84375 
Q 18.109375 37.203125 18.109375 27.296875 
Q 18.109375 17.390625 22.1875 11.75 
Q 26.265625 6.109375 33.40625 6.109375 
Q 40.53125 6.109375 44.609375 11.75 
Q 48.6875 17.390625 48.6875 27.296875 
z
" id="DejaVuSans-112"/>
      <path d="M 18.3125 70.21875 
L 18.3125 54.6875 
L 36.8125 54.6875 
L 36.8125 47.703125 
L 18.3125 47.703125 
L 18.3125 18.015625 
Q 18.3125 11.328125 20.140625 9.421875 
Q 21.96875 7.515625 27.59375 7.515625 
L 36.8125 7.515625 
L 36.8125 0 
L 27.59375 0 
Q 17.1875 0 13.234375 3.875 
Q 9.28125 7.765625 9.28125 18.015625 
L 9.28125 47.703125 
L 2.6875 47.703125 
L 2.6875 54.6875 
L 9.28125 54.6875 
L 9.28125 70.21875 
z
" id="DejaVuSans-116"/>
      <path d="M 9.421875 54.6875 
L 18.40625 54.6875 
L 18.40625 0 
L 9.421875 0 
z
M 9.421875 75.984375 
L 18.40625 75.984375 
L 18.40625 64.59375 
L 9.421875 64.59375 
z
" id="DejaVuSans-105"/>
      <path d="M 52 44.1875 
Q 55.375 50.25 60.0625 53.125 
Q 64.75 56 71.09375 56 
Q 79.640625 56 84.28125 50.015625 
Q 88.921875 44.046875 88.921875 33.015625 
L 88.921875 0 
L 79.890625 0 
L 79.890625 32.71875 
Q 79.890625 40.578125 77.09375 44.375 
Q 74.3125 48.1875 68.609375 48.1875 
Q 61.625 48.1875 57.5625 43.546875 
Q 53.515625 38.921875 53.515625 30.90625 
L 53.515625 0 
L 44.484375 0 
L 44.484375 32.71875 
Q 44.484375 40.625 41.703125 44.40625 
Q 38.921875 48.1875 33.109375 48.1875 
Q 26.21875 48.1875 22.15625 43.53125 
Q 18.109375 38.875 18.109375 30.90625 
L 18.109375 0 
L 9.078125 0 
L 9.078125 54.6875 
L 18.109375 54.6875 
L 18.109375 46.1875 
Q 21.1875 51.21875 25.484375 53.609375 
Q 29.78125 56 35.6875 56 
Q 41.65625 56 45.828125 52.96875 
Q 50 49.953125 52 44.1875 
z
" id="DejaVuSans-109"/>
      <path d="M 34.28125 27.484375 
Q 23.390625 27.484375 19.1875 25 
Q 14.984375 22.515625 14.984375 16.5 
Q 14.984375 11.71875 18.140625 8.90625 
Q 21.296875 6.109375 26.703125 6.109375 
Q 34.1875 6.109375 38.703125 11.40625 
Q 43.21875 16.703125 43.21875 25.484375 
L 43.21875 27.484375 
z
M 52.203125 31.203125 
L 52.203125 0 
L 43.21875 0 
L 43.21875 8.296875 
Q 40.140625 3.328125 35.546875 0.953125 
Q 30.953125 -1.421875 24.3125 -1.421875 
Q 15.921875 -1.421875 10.953125 3.296875 
Q 6 8.015625 6 15.921875 
Q 6 25.140625 12.171875 29.828125 
Q 18.359375 34.515625 30.609375 34.515625 
L 43.21875 34.515625 
L 43.21875 35.40625 
Q 43.21875 41.609375 39.140625 45 
Q 35.0625 48.390625 27.6875 48.390625 
Q 23 48.390625 18.546875 47.265625 
Q 14.109375 46.140625 10.015625 43.890625 
L 10.015625 52.203125 
Q 14.9375 54.109375 19.578125 55.046875 
Q 24.21875 56 28.609375 56 
Q 40.484375 56 46.34375 49.84375 
Q 52.203125 43.703125 52.203125 31.203125 
z
" id="DejaVuSans-97"/>
      <path d="M 9.421875 75.984375 
L 18.40625 75.984375 
L 18.40625 0 
L 9.421875 0 
z
" id="DejaVuSans-108"/>
      <path d="M 32.171875 -5.078125 
Q 28.375 -14.84375 24.75 -17.8125 
Q 21.140625 -20.796875 15.09375 -20.796875 
L 7.90625 -20.796875 
L 7.90625 -13.28125 
L 13.1875 -13.28125 
Q 16.890625 -13.28125 18.9375 -11.515625 
Q 21 -9.765625 23.484375 -3.21875 
L 25.09375 0.875 
L 2.984375 54.6875 
L 12.5 54.6875 
L 29.59375 11.921875 
L 46.6875 54.6875 
L 56.203125 54.6875 
z
" id="DejaVuSans-121"/>
     </defs>
     <g transform="translate(94.6 58.070437)scale(0.1 -0.1)">
      <use xlink:href="#DejaVuSans-69"/>
      <use x="63.183594" xlink:href="#DejaVuSans-100"/>
      <use x="126.660156" xlink:href="#DejaVuSans-103"/>
      <use x="190.136719" xlink:href="#DejaVuSans-101"/>
      <use x="251.660156" xlink:href="#DejaVuSans-32"/>
      <use x="283.447266" xlink:href="#DejaVuSans-68"/>
      <use x="360.449219" xlink:href="#DejaVuSans-45"/>
      <use x="396.564453" xlink:href="#DejaVuSans-79"/>
      <use x="475.275391" xlink:href="#DejaVuSans-112"/>
      <use x="538.751953" xlink:href="#DejaVuSans-116"/>
      <use x="577.960938" xlink:href="#DejaVuSans-105"/>
      <use x="605.744141" xlink:href="#DejaVuSans-109"/>
      <use x="703.15625" xlink:href="#DejaVuSans-97"/>
      <use x="764.435547" xlink:href="#DejaVuSans-108"/>
      <use x="792.21875" xlink:href="#DejaVuSans-105"/>
      <use x="820.001953" xlink:href="#DejaVuSans-116"/>
      <use x="859.210938" xlink:href="#DejaVuSans-121"/>
     </g>
    </g>
    <g id="line2d_35">
     <path d="M 66.6 69.248562 
L 86.6 69.248562 
" style="fill:none;stroke:#ff7f0e;stroke-linecap:square;stroke-width:1.5;"/>
    </g>
    <g id="line2d_36"/>
    <g id="text_17">
     <!-- Running Average -->
     <defs>
      <path d="M 44.390625 34.1875 
Q 47.5625 33.109375 50.5625 29.59375 
Q 53.5625 26.078125 56.59375 19.921875 
L 66.609375 0 
L 56 0 
L 46.6875 18.703125 
Q 43.0625 26.03125 39.671875 28.421875 
Q 36.28125 30.8125 30.421875 30.8125 
L 19.671875 30.8125 
L 19.671875 0 
L 9.8125 0 
L 9.8125 72.90625 
L 32.078125 72.90625 
Q 44.578125 72.90625 50.734375 67.671875 
Q 56.890625 62.453125 56.890625 51.90625 
Q 56.890625 45.015625 53.6875 40.46875 
Q 50.484375 35.9375 44.390625 34.1875 
z
M 19.671875 64.796875 
L 19.671875 38.921875 
L 32.078125 38.921875 
Q 39.203125 38.921875 42.84375 42.21875 
Q 46.484375 45.515625 46.484375 51.90625 
Q 46.484375 58.296875 42.84375 61.546875 
Q 39.203125 64.796875 32.078125 64.796875 
z
" id="DejaVuSans-82"/>
      <path d="M 8.5 21.578125 
L 8.5 54.6875 
L 17.484375 54.6875 
L 17.484375 21.921875 
Q 17.484375 14.15625 20.5 10.265625 
Q 23.53125 6.390625 29.59375 6.390625 
Q 36.859375 6.390625 41.078125 11.03125 
Q 45.3125 15.671875 45.3125 23.6875 
L 45.3125 54.6875 
L 54.296875 54.6875 
L 54.296875 0 
L 45.3125 0 
L 45.3125 8.40625 
Q 42.046875 3.421875 37.71875 1 
Q 33.40625 -1.421875 27.6875 -1.421875 
Q 18.265625 -1.421875 13.375 4.4375 
Q 8.5 10.296875 8.5 21.578125 
z
M 31.109375 56 
z
" id="DejaVuSans-117"/>
      <path d="M 54.890625 33.015625 
L 54.890625 0 
L 45.90625 0 
L 45.90625 32.71875 
Q 45.90625 40.484375 42.875 44.328125 
Q 39.84375 48.1875 33.796875 48.1875 
Q 26.515625 48.1875 22.3125 43.546875 
Q 18.109375 38.921875 18.109375 30.90625 
L 18.109375 0 
L 9.078125 0 
L 9.078125 54.6875 
L 18.109375 54.6875 
L 18.109375 46.1875 
Q 21.34375 51.125 25.703125 53.5625 
Q 30.078125 56 35.796875 56 
Q 45.21875 56 50.046875 50.171875 
Q 54.890625 44.34375 54.890625 33.015625 
z
" id="DejaVuSans-110"/>
      <path d="M 34.1875 63.1875 
L 20.796875 26.90625 
L 47.609375 26.90625 
z
M 28.609375 72.90625 
L 39.796875 72.90625 
L 67.578125 0 
L 57.328125 0 
L 50.6875 18.703125 
L 17.828125 18.703125 
L 11.1875 0 
L 0.78125 0 
z
" id="DejaVuSans-65"/>
      <path d="M 2.984375 54.6875 
L 12.5 54.6875 
L 29.59375 8.796875 
L 46.6875 54.6875 
L 56.203125 54.6875 
L 35.6875 0 
L 23.484375 0 
z
" id="DejaVuSans-118"/>
      <path d="M 41.109375 46.296875 
Q 39.59375 47.171875 37.8125 47.578125 
Q 36.03125 48 33.890625 48 
Q 26.265625 48 22.1875 43.046875 
Q 18.109375 38.09375 18.109375 28.8125 
L 18.109375 0 
L 9.078125 0 
L 9.078125 54.6875 
L 18.109375 54.6875 
L 18.109375 46.1875 
Q 20.953125 51.171875 25.484375 53.578125 
Q 30.03125 56 36.53125 56 
Q 37.453125 56 38.578125 55.875 
Q 39.703125 55.765625 41.0625 55.515625 
z
" id="DejaVuSans-114"/>
     </defs>
     <g transform="translate(94.6 72.748562)scale(0.1 -0.1)">
      <use xlink:href="#DejaVuSans-82"/>
      <use x="69.419922" xlink:href="#DejaVuSans-117"/>
      <use x="132.798828" xlink:href="#DejaVuSans-110"/>
      <use x="196.177734" xlink:href="#DejaVuSans-110"/>
      <use x="259.556641" xlink:href="#DejaVuSans-105"/>
      <use x="287.339844" xlink:href="#DejaVuSans-110"/>
      <use x="350.71875" xlink:href="#DejaVuSans-103"/>
      <use x="414.195312" xlink:href="#DejaVuSans-32"/>
      <use x="445.982422" xlink:href="#DejaVuSans-65"/>
      <use x="514.3125" xlink:href="#DejaVuSans-118"/>
      <use x="573.492188" xlink:href="#DejaVuSans-101"/>
      <use x="635.015625" xlink:href="#DejaVuSans-114"/>
      <use x="676.128906" xlink:href="#DejaVuSans-97"/>
      <use x="737.408203" xlink:href="#DejaVuSans-103"/>
      <use x="800.884766" xlink:href="#DejaVuSans-101"/>
     </g>
    </g>
   </g>
  </g>
  <g id="text_18">
   <!-- D-Optimality -->
   <g transform="translate(179.605 19.0695)scale(0.16 -0.16)">
    <use xlink:href="#DejaVuSans-68"/>
    <use x="77.001953" xlink:href="#DejaVuSans-45"/>
    <use x="113.117188" xlink:href="#DejaVuSans-79"/>
    <use x="191.828125" xlink:href="#DejaVuSans-112"/>
    <use x="255.304688" xlink:href="#DejaVuSans-116"/>
    <use x="294.513672" xlink:href="#DejaVuSans-105"/>
    <use x="322.296875" xlink:href="#DejaVuSans-109"/>
    <use x="419.708984" xlink:href="#DejaVuSans-97"/>
    <use x="480.988281" xlink:href="#DejaVuSans-108"/>
    <use x="508.771484" xlink:href="#DejaVuSans-105"/>
    <use x="536.554688" xlink:href="#DejaVuSans-116"/>
    <use x="575.763672" xlink:href="#DejaVuSans-121"/>
   </g>
  </g>
 </g>
 <defs>
  <clipPath id="p40f92f4849">
   <rect height="266.112" width="357.12" x="57.6" y="41.472"/>
  </clipPath>
 </defs>
</svg>
