<?xml version="1.0" encoding="utf-8" standalone="no"?>
<!DOCTYPE svg PUBLIC "-//W3C//DTD SVG 1.1//EN"
  "http://www.w3.org/Graphics/SVG/1.1/DTD/svg11.dtd">
<!-- Created with matplotlib (https://matplotlib.org/) -->
<svg height="345.6pt" version="1.1" viewBox="0 0 460.8 345.6" width="460.8pt" xmlns="http://www.w3.org/2000/svg" xmlns:xlink="http://www.w3.org/1999/xlink">
 <defs>
  <style type="text/css">
*{stroke-linecap:butt;stroke-linejoin:round;}
  </style>
 </defs>
 <g id="figure_1">
  <g id="patch_1">
   <path d="M 0 345.6 
L 460.8 345.6 
L 460.8 0 
L 0 0 
z
" style="fill:#ffffff;"/>
  </g>
  <g id="axes_1">
   <g id="patch_2">
    <path d="M 57.6 307.584 
L 414.72 307.584 
L 414.72 41.472 
L 57.6 41.472 
z
" style="fill:#ffffff;"/>
   </g>
   <g id="matplotlib.axis_1">
    <g id="xtick_1">
     <g id="line2d_1">
      <path clip-path="url(#pdd5fb4ed7e)" d="M 73.832727 307.584 
L 73.832727 41.472 
" style="fill:none;stroke:#b0b0b0;stroke-linecap:square;stroke-width:0.8;"/>
     </g>
     <g id="line2d_2">
      <defs>
       <path d="M 0 0 
L 0 3.5 
" id="m535f4fce05" style="stroke:#000000;stroke-width:0.8;"/>
      </defs>
      <g>
       <use style="stroke:#000000;stroke-width:0.8;" x="73.832727" xlink:href="#m535f4fce05" y="307.584"/>
      </g>
     </g>
     <g id="text_1">
      <!-- 0 -->
      <defs>
       <path d="M 31.78125 66.40625 
Q 24.171875 66.40625 20.328125 58.90625 
Q 16.5 51.421875 16.5 36.375 
Q 16.5 21.390625 20.328125 13.890625 
Q 24.171875 6.390625 31.78125 6.390625 
Q 39.453125 6.390625 43.28125 13.890625 
Q 47.125 21.390625 47.125 36.375 
Q 47.125 51.421875 43.28125 58.90625 
Q 39.453125 66.40625 31.78125 66.40625 
z
M 31.78125 74.21875 
Q 44.046875 74.21875 50.515625 64.515625 
Q 56.984375 54.828125 56.984375 36.375 
Q 56.984375 17.96875 50.515625 8.265625 
Q 44.046875 -1.421875 31.78125 -1.421875 
Q 19.53125 -1.421875 13.0625 8.265625 
Q 6.59375 17.96875 6.59375 36.375 
Q 6.59375 54.828125 13.0625 64.515625 
Q 19.53125 74.21875 31.78125 74.21875 
z
" id="DejaVuSans-48"/>
      </defs>
      <g transform="translate(70.651477 322.182437)scale(0.1 -0.1)">
       <use xlink:href="#DejaVuSans-48"/>
      </g>
     </g>
    </g>
    <g id="xtick_2">
     <g id="line2d_3">
      <path clip-path="url(#pdd5fb4ed7e)" d="M 120.559058 307.584 
L 120.559058 41.472 
" style="fill:none;stroke:#b0b0b0;stroke-linecap:square;stroke-width:0.8;"/>
     </g>
     <g id="line2d_4">
      <g>
       <use style="stroke:#000000;stroke-width:0.8;" x="120.559058" xlink:href="#m535f4fce05" y="307.584"/>
      </g>
     </g>
     <g id="text_2">
      <!-- 250 -->
      <defs>
       <path d="M 19.1875 8.296875 
L 53.609375 8.296875 
L 53.609375 0 
L 7.328125 0 
L 7.328125 8.296875 
Q 12.9375 14.109375 22.625 23.890625 
Q 32.328125 33.6875 34.8125 36.53125 
Q 39.546875 41.84375 41.421875 45.53125 
Q 43.3125 49.21875 43.3125 52.78125 
Q 43.3125 58.59375 39.234375 62.25 
Q 35.15625 65.921875 28.609375 65.921875 
Q 23.96875 65.921875 18.8125 64.3125 
Q 13.671875 62.703125 7.8125 59.421875 
L 7.8125 69.390625 
Q 13.765625 71.78125 18.9375 73 
Q 24.125 74.21875 28.421875 74.21875 
Q 39.75 74.21875 46.484375 68.546875 
Q 53.21875 62.890625 53.21875 53.421875 
Q 53.21875 48.921875 51.53125 44.890625 
Q 49.859375 40.875 45.40625 35.40625 
Q 44.1875 33.984375 37.640625 27.21875 
Q 31.109375 20.453125 19.1875 8.296875 
z
" id="DejaVuSans-50"/>
       <path d="M 10.796875 72.90625 
L 49.515625 72.90625 
L 49.515625 64.59375 
L 19.828125 64.59375 
L 19.828125 46.734375 
Q 21.96875 47.46875 24.109375 47.828125 
Q 26.265625 48.1875 28.421875 48.1875 
Q 40.625 48.1875 47.75 41.5 
Q 54.890625 34.8125 54.890625 23.390625 
Q 54.890625 11.625 47.5625 5.09375 
Q 40.234375 -1.421875 26.90625 -1.421875 
Q 22.3125 -1.421875 17.546875 -0.640625 
Q 12.796875 0.140625 7.71875 1.703125 
L 7.71875 11.625 
Q 12.109375 9.234375 16.796875 8.0625 
Q 21.484375 6.890625 26.703125 6.890625 
Q 35.15625 6.890625 40.078125 11.328125 
Q 45.015625 15.765625 45.015625 23.390625 
Q 45.015625 31 40.078125 35.4375 
Q 35.15625 39.890625 26.703125 39.890625 
Q 22.75 39.890625 18.8125 39.015625 
Q 14.890625 38.140625 10.796875 36.28125 
z
" id="DejaVuSans-53"/>
      </defs>
      <g transform="translate(111.015308 322.182437)scale(0.1 -0.1)">
       <use xlink:href="#DejaVuSans-50"/>
       <use x="63.623047" xlink:href="#DejaVuSans-53"/>
       <use x="127.246094" xlink:href="#DejaVuSans-48"/>
      </g>
     </g>
    </g>
    <g id="xtick_3">
     <g id="line2d_5">
      <path clip-path="url(#pdd5fb4ed7e)" d="M 167.285389 307.584 
L 167.285389 41.472 
" style="fill:none;stroke:#b0b0b0;stroke-linecap:square;stroke-width:0.8;"/>
     </g>
     <g id="line2d_6">
      <g>
       <use style="stroke:#000000;stroke-width:0.8;" x="167.285389" xlink:href="#m535f4fce05" y="307.584"/>
      </g>
     </g>
     <g id="text_3">
      <!-- 500 -->
      <g transform="translate(157.741639 322.182437)scale(0.1 -0.1)">
       <use xlink:href="#DejaVuSans-53"/>
       <use x="63.623047" xlink:href="#DejaVuSans-48"/>
       <use x="127.246094" xlink:href="#DejaVuSans-48"/>
      </g>
     </g>
    </g>
    <g id="xtick_4">
     <g id="line2d_7">
      <path clip-path="url(#pdd5fb4ed7e)" d="M 214.011719 307.584 
L 214.011719 41.472 
" style="fill:none;stroke:#b0b0b0;stroke-linecap:square;stroke-width:0.8;"/>
     </g>
     <g id="line2d_8">
      <g>
       <use style="stroke:#000000;stroke-width:0.8;" x="214.011719" xlink:href="#m535f4fce05" y="307.584"/>
      </g>
     </g>
     <g id="text_4">
      <!-- 750 -->
      <defs>
       <path d="M 8.203125 72.90625 
L 55.078125 72.90625 
L 55.078125 68.703125 
L 28.609375 0 
L 18.3125 0 
L 43.21875 64.59375 
L 8.203125 64.59375 
z
" id="DejaVuSans-55"/>
      </defs>
      <g transform="translate(204.467969 322.182437)scale(0.1 -0.1)">
       <use xlink:href="#DejaVuSans-55"/>
       <use x="63.623047" xlink:href="#DejaVuSans-53"/>
       <use x="127.246094" xlink:href="#DejaVuSans-48"/>
      </g>
     </g>
    </g>
    <g id="xtick_5">
     <g id="line2d_9">
      <path clip-path="url(#pdd5fb4ed7e)" d="M 260.73805 307.584 
L 260.73805 41.472 
" style="fill:none;stroke:#b0b0b0;stroke-linecap:square;stroke-width:0.8;"/>
     </g>
     <g id="line2d_10">
      <g>
       <use style="stroke:#000000;stroke-width:0.8;" x="260.73805" xlink:href="#m535f4fce05" y="307.584"/>
      </g>
     </g>
     <g id="text_5">
      <!-- 1000 -->
      <defs>
       <path d="M 12.40625 8.296875 
L 28.515625 8.296875 
L 28.515625 63.921875 
L 10.984375 60.40625 
L 10.984375 69.390625 
L 28.421875 72.90625 
L 38.28125 72.90625 
L 38.28125 8.296875 
L 54.390625 8.296875 
L 54.390625 0 
L 12.40625 0 
z
" id="DejaVuSans-49"/>
      </defs>
      <g transform="translate(248.01305 322.182437)scale(0.1 -0.1)">
       <use xlink:href="#DejaVuSans-49"/>
       <use x="63.623047" xlink:href="#DejaVuSans-48"/>
       <use x="127.246094" xlink:href="#DejaVuSans-48"/>
       <use x="190.869141" xlink:href="#DejaVuSans-48"/>
      </g>
     </g>
    </g>
    <g id="xtick_6">
     <g id="line2d_11">
      <path clip-path="url(#pdd5fb4ed7e)" d="M 307.464381 307.584 
L 307.464381 41.472 
" style="fill:none;stroke:#b0b0b0;stroke-linecap:square;stroke-width:0.8;"/>
     </g>
     <g id="line2d_12">
      <g>
       <use style="stroke:#000000;stroke-width:0.8;" x="307.464381" xlink:href="#m535f4fce05" y="307.584"/>
      </g>
     </g>
     <g id="text_6">
      <!-- 1250 -->
      <g transform="translate(294.739381 322.182437)scale(0.1 -0.1)">
       <use xlink:href="#DejaVuSans-49"/>
       <use x="63.623047" xlink:href="#DejaVuSans-50"/>
       <use x="127.246094" xlink:href="#DejaVuSans-53"/>
       <use x="190.869141" xlink:href="#DejaVuSans-48"/>
      </g>
     </g>
    </g>
    <g id="xtick_7">
     <g id="line2d_13">
      <path clip-path="url(#pdd5fb4ed7e)" d="M 354.190711 307.584 
L 354.190711 41.472 
" style="fill:none;stroke:#b0b0b0;stroke-linecap:square;stroke-width:0.8;"/>
     </g>
     <g id="line2d_14">
      <g>
       <use style="stroke:#000000;stroke-width:0.8;" x="354.190711" xlink:href="#m535f4fce05" y="307.584"/>
      </g>
     </g>
     <g id="text_7">
      <!-- 1500 -->
      <g transform="translate(341.465711 322.182437)scale(0.1 -0.1)">
       <use xlink:href="#DejaVuSans-49"/>
       <use x="63.623047" xlink:href="#DejaVuSans-53"/>
       <use x="127.246094" xlink:href="#DejaVuSans-48"/>
       <use x="190.869141" xlink:href="#DejaVuSans-48"/>
      </g>
     </g>
    </g>
    <g id="xtick_8">
     <g id="line2d_15">
      <path clip-path="url(#pdd5fb4ed7e)" d="M 400.917042 307.584 
L 400.917042 41.472 
" style="fill:none;stroke:#b0b0b0;stroke-linecap:square;stroke-width:0.8;"/>
     </g>
     <g id="line2d_16">
      <g>
       <use style="stroke:#000000;stroke-width:0.8;" x="400.917042" xlink:href="#m535f4fce05" y="307.584"/>
      </g>
     </g>
     <g id="text_8">
      <!-- 1750 -->
      <g transform="translate(388.192042 322.182437)scale(0.1 -0.1)">
       <use xlink:href="#DejaVuSans-49"/>
       <use x="63.623047" xlink:href="#DejaVuSans-55"/>
       <use x="127.246094" xlink:href="#DejaVuSans-53"/>
       <use x="190.869141" xlink:href="#DejaVuSans-48"/>
      </g>
     </g>
    </g>
   </g>
   <g id="matplotlib.axis_2">
    <g id="ytick_1">
     <g id="line2d_17">
      <path clip-path="url(#pdd5fb4ed7e)" d="M 57.6 307.584 
L 414.72 307.584 
" style="fill:none;stroke:#b0b0b0;stroke-linecap:square;stroke-width:0.8;"/>
     </g>
     <g id="line2d_18">
      <defs>
       <path d="M 0 0 
L -3.5 0 
" id="mbf1e532fc0" style="stroke:#000000;stroke-width:0.8;"/>
      </defs>
      <g>
       <use style="stroke:#000000;stroke-width:0.8;" x="57.6" xlink:href="#mbf1e532fc0" y="307.584"/>
      </g>
     </g>
     <g id="text_9">
      <!-- 0.0 -->
      <defs>
       <path d="M 10.6875 12.40625 
L 21 12.40625 
L 21 0 
L 10.6875 0 
z
" id="DejaVuSans-46"/>
      </defs>
      <g transform="translate(34.696875 311.383219)scale(0.1 -0.1)">
       <use xlink:href="#DejaVuSans-48"/>
       <use x="63.623047" xlink:href="#DejaVuSans-46"/>
       <use x="95.410156" xlink:href="#DejaVuSans-48"/>
      </g>
     </g>
    </g>
    <g id="ytick_2">
     <g id="line2d_19">
      <path clip-path="url(#pdd5fb4ed7e)" d="M 57.6 254.3616 
L 414.72 254.3616 
" style="fill:none;stroke:#b0b0b0;stroke-linecap:square;stroke-width:0.8;"/>
     </g>
     <g id="line2d_20">
      <g>
       <use style="stroke:#000000;stroke-width:0.8;" x="57.6" xlink:href="#mbf1e532fc0" y="254.3616"/>
      </g>
     </g>
     <g id="text_10">
      <!-- 0.2 -->
      <g transform="translate(34.696875 258.160819)scale(0.1 -0.1)">
       <use xlink:href="#DejaVuSans-48"/>
       <use x="63.623047" xlink:href="#DejaVuSans-46"/>
       <use x="95.410156" xlink:href="#DejaVuSans-50"/>
      </g>
     </g>
    </g>
    <g id="ytick_3">
     <g id="line2d_21">
      <path clip-path="url(#pdd5fb4ed7e)" d="M 57.6 201.1392 
L 414.72 201.1392 
" style="fill:none;stroke:#b0b0b0;stroke-linecap:square;stroke-width:0.8;"/>
     </g>
     <g id="line2d_22">
      <g>
       <use style="stroke:#000000;stroke-width:0.8;" x="57.6" xlink:href="#mbf1e532fc0" y="201.1392"/>
      </g>
     </g>
     <g id="text_11">
      <!-- 0.4 -->
      <defs>
       <path d="M 37.796875 64.3125 
L 12.890625 25.390625 
L 37.796875 25.390625 
z
M 35.203125 72.90625 
L 47.609375 72.90625 
L 47.609375 25.390625 
L 58.015625 25.390625 
L 58.015625 17.1875 
L 47.609375 17.1875 
L 47.609375 0 
L 37.796875 0 
L 37.796875 17.1875 
L 4.890625 17.1875 
L 4.890625 26.703125 
z
" id="DejaVuSans-52"/>
      </defs>
      <g transform="translate(34.696875 204.938419)scale(0.1 -0.1)">
       <use xlink:href="#DejaVuSans-48"/>
       <use x="63.623047" xlink:href="#DejaVuSans-46"/>
       <use x="95.410156" xlink:href="#DejaVuSans-52"/>
      </g>
     </g>
    </g>
    <g id="ytick_4">
     <g id="line2d_23">
      <path clip-path="url(#pdd5fb4ed7e)" d="M 57.6 147.9168 
L 414.72 147.9168 
" style="fill:none;stroke:#b0b0b0;stroke-linecap:square;stroke-width:0.8;"/>
     </g>
     <g id="line2d_24">
      <g>
       <use style="stroke:#000000;stroke-width:0.8;" x="57.6" xlink:href="#mbf1e532fc0" y="147.9168"/>
      </g>
     </g>
     <g id="text_12">
      <!-- 0.6 -->
      <defs>
       <path d="M 33.015625 40.375 
Q 26.375 40.375 22.484375 35.828125 
Q 18.609375 31.296875 18.609375 23.390625 
Q 18.609375 15.53125 22.484375 10.953125 
Q 26.375 6.390625 33.015625 6.390625 
Q 39.65625 6.390625 43.53125 10.953125 
Q 47.40625 15.53125 47.40625 23.390625 
Q 47.40625 31.296875 43.53125 35.828125 
Q 39.65625 40.375 33.015625 40.375 
z
M 52.59375 71.296875 
L 52.59375 62.3125 
Q 48.875 64.0625 45.09375 64.984375 
Q 41.3125 65.921875 37.59375 65.921875 
Q 27.828125 65.921875 22.671875 59.328125 
Q 17.53125 52.734375 16.796875 39.40625 
Q 19.671875 43.65625 24.015625 45.921875 
Q 28.375 48.1875 33.59375 48.1875 
Q 44.578125 48.1875 50.953125 41.515625 
Q 57.328125 34.859375 57.328125 23.390625 
Q 57.328125 12.15625 50.6875 5.359375 
Q 44.046875 -1.421875 33.015625 -1.421875 
Q 20.359375 -1.421875 13.671875 8.265625 
Q 6.984375 17.96875 6.984375 36.375 
Q 6.984375 53.65625 15.1875 63.9375 
Q 23.390625 74.21875 37.203125 74.21875 
Q 40.921875 74.21875 44.703125 73.484375 
Q 48.484375 72.75 52.59375 71.296875 
z
" id="DejaVuSans-54"/>
      </defs>
      <g transform="translate(34.696875 151.716019)scale(0.1 -0.1)">
       <use xlink:href="#DejaVuSans-48"/>
       <use x="63.623047" xlink:href="#DejaVuSans-46"/>
       <use x="95.410156" xlink:href="#DejaVuSans-54"/>
      </g>
     </g>
    </g>
    <g id="ytick_5">
     <g id="line2d_25">
      <path clip-path="url(#pdd5fb4ed7e)" d="M 57.6 94.6944 
L 414.72 94.6944 
" style="fill:none;stroke:#b0b0b0;stroke-linecap:square;stroke-width:0.8;"/>
     </g>
     <g id="line2d_26">
      <g>
       <use style="stroke:#000000;stroke-width:0.8;" x="57.6" xlink:href="#mbf1e532fc0" y="94.6944"/>
      </g>
     </g>
     <g id="text_13">
      <!-- 0.8 -->
      <defs>
       <path d="M 31.78125 34.625 
Q 24.75 34.625 20.71875 30.859375 
Q 16.703125 27.09375 16.703125 20.515625 
Q 16.703125 13.921875 20.71875 10.15625 
Q 24.75 6.390625 31.78125 6.390625 
Q 38.8125 6.390625 42.859375 10.171875 
Q 46.921875 13.96875 46.921875 20.515625 
Q 46.921875 27.09375 42.890625 30.859375 
Q 38.875 34.625 31.78125 34.625 
z
M 21.921875 38.8125 
Q 15.578125 40.375 12.03125 44.71875 
Q 8.5 49.078125 8.5 55.328125 
Q 8.5 64.0625 14.71875 69.140625 
Q 20.953125 74.21875 31.78125 74.21875 
Q 42.671875 74.21875 48.875 69.140625 
Q 55.078125 64.0625 55.078125 55.328125 
Q 55.078125 49.078125 51.53125 44.71875 
Q 48 40.375 41.703125 38.8125 
Q 48.828125 37.15625 52.796875 32.3125 
Q 56.78125 27.484375 56.78125 20.515625 
Q 56.78125 9.90625 50.3125 4.234375 
Q 43.84375 -1.421875 31.78125 -1.421875 
Q 19.734375 -1.421875 13.25 4.234375 
Q 6.78125 9.90625 6.78125 20.515625 
Q 6.78125 27.484375 10.78125 32.3125 
Q 14.796875 37.15625 21.921875 38.8125 
z
M 18.3125 54.390625 
Q 18.3125 48.734375 21.84375 45.5625 
Q 25.390625 42.390625 31.78125 42.390625 
Q 38.140625 42.390625 41.71875 45.5625 
Q 45.3125 48.734375 45.3125 54.390625 
Q 45.3125 60.0625 41.71875 63.234375 
Q 38.140625 66.40625 31.78125 66.40625 
Q 25.390625 66.40625 21.84375 63.234375 
Q 18.3125 60.0625 18.3125 54.390625 
z
" id="DejaVuSans-56"/>
      </defs>
      <g transform="translate(34.696875 98.493619)scale(0.1 -0.1)">
       <use xlink:href="#DejaVuSans-48"/>
       <use x="63.623047" xlink:href="#DejaVuSans-46"/>
       <use x="95.410156" xlink:href="#DejaVuSans-56"/>
      </g>
     </g>
    </g>
    <g id="ytick_6">
     <g id="line2d_27">
      <path clip-path="url(#pdd5fb4ed7e)" d="M 57.6 41.472 
L 414.72 41.472 
" style="fill:none;stroke:#b0b0b0;stroke-linecap:square;stroke-width:0.8;"/>
     </g>
     <g id="line2d_28">
      <g>
       <use style="stroke:#000000;stroke-width:0.8;" x="57.6" xlink:href="#mbf1e532fc0" y="41.472"/>
      </g>
     </g>
     <g id="text_14">
      <!-- 1.0 -->
      <g transform="translate(34.696875 45.271219)scale(0.1 -0.1)">
       <use xlink:href="#DejaVuSans-49"/>
       <use x="63.623047" xlink:href="#DejaVuSans-46"/>
       <use x="95.410156" xlink:href="#DejaVuSans-48"/>
      </g>
     </g>
    </g>
   </g>
   <g id="line2d_29">
    <path clip-path="url(#pdd5fb4ed7e)" d="M 73.832727 190.81849 
L 74.206538 273.727429 
L 74.393443 282.098669 
L 74.580349 143.271704 
L 74.767254 120.592773 
L 74.954159 128.081273 
L 75.32797 120.272686 
L 75.514875 132.860254 
L 75.70178 96.196018 
L 75.888686 96.196018 
L 76.262496 127.826285 
L 76.449402 120.137122 
L 76.823212 164.607338 
L 77.010118 161.669476 
L 77.197023 152.977 
L 77.383928 171.332409 
L 77.570834 155.898032 
L 77.757739 124.366716 
L 77.944644 190.932968 
L 78.13155 105.611669 
L 78.50536 128.521397 
L 78.692266 129.08079 
L 78.879171 128.622725 
L 79.252982 153.431462 
L 79.439887 144.292154 
L 79.813698 175.083809 
L 80.000603 184.148741 
L 80.187508 163.646619 
L 80.374414 165.569322 
L 80.561319 204.963819 
L 80.748224 204.757521 
L 80.93513 209.227725 
L 81.30894 273.345427 
L 81.495846 274.486642 
L 81.682751 274.486604 
L 81.869656 275.985439 
L 82.056561 275.985324 
L 82.243467 276.224325 
L 82.430372 277.344799 
L 82.617277 277.214871 
L 82.804183 276.613573 
L 83.364899 220.988835 
L 83.738709 194.394684 
L 83.925615 184.587331 
L 84.11252 193.733847 
L 84.299425 179.293544 
L 84.486331 142.334409 
L 84.673236 198.246071 
L 84.860141 204.06747 
L 85.047047 170.013764 
L 85.420857 148.46378 
L 85.607763 111.359919 
L 85.794668 109.365101 
L 85.981573 133.474089 
L 86.168479 139.77671 
L 86.542289 187.421833 
L 86.729195 196.915464 
L 86.9161 153.208908 
L 87.103005 143.148408 
L 87.289911 174.984743 
L 87.476816 169.363853 
L 87.850626 135.174851 
L 88.037532 165.134796 
L 88.224437 126.147721 
L 88.411342 163.3416 
L 88.598248 163.341638 
L 88.785153 207.640751 
L 88.972058 156.549553 
L 89.158964 163.202317 
L 89.345869 155.44633 
L 89.532774 170.715814 
L 89.71968 162.182327 
L 89.906585 173.092212 
L 90.467301 246.389976 
L 90.654206 264.496646 
L 90.841112 240.499261 
L 91.214922 229.388407 
L 91.401828 206.103309 
L 91.588733 208.454442 
L 91.775638 207.218646 
L 92.336354 178.959847 
L 92.52326 196.748463 
L 92.710165 197.391242 
L 92.89707 190.880406 
L 93.083976 175.615638 
L 93.270881 198.874167 
L 93.457786 199.256093 
L 94.018502 194.517252 
L 94.205407 196.688272 
L 94.392313 207.85188 
L 94.579218 209.122985 
L 94.766123 216.151695 
L 94.953029 218.582303 
L 95.326839 110.19547 
L 95.513745 94.632468 
L 95.70065 129.481694 
L 95.887555 81.989463 
L 96.074461 74.985213 
L 96.261366 51.298445 
L 96.448271 90.738756 
L 96.635177 71.593656 
L 96.822082 231.102933 
L 97.008987 163.656932 
L 97.195893 166.783074 
L 97.382798 154.466174 
L 97.569703 159.664691 
L 97.756609 223.993521 
L 97.943514 225.996121 
L 98.130419 237.758304 
L 98.317325 239.244066 
L 98.50423 241.702431 
L 98.691135 241.702546 
L 98.878041 244.281639 
L 99.064946 223.446319 
L 99.251851 216.294812 
L 99.438756 225.386504 
L 99.625662 216.103849 
L 99.812567 218.937354 
L 99.999472 272.329769 
L 100.186378 252.606106 
L 100.373283 252.450452 
L 100.560188 257.524638 
L 100.747094 248.777799 
L 100.933999 248.777799 
L 101.120904 193.084244 
L 101.30781 193.084129 
L 101.494715 200.177898 
L 101.68162 239.368972 
L 102.055431 173.974875 
L 102.242336 143.083539 
L 102.429242 143.083961 
L 102.616147 83.300555 
L 102.803052 83.300517 
L 103.176863 102.224099 
L 103.363768 77.721148 
L 103.737579 154.771807 
L 103.924484 165.923721 
L 104.11139 143.729463 
L 104.298295 171.402146 
L 104.4852 243.217368 
L 104.672106 80.693169 
L 104.859011 80.693514 
L 105.045916 237.433004 
L 105.232821 237.433004 
L 105.419727 202.111106 
L 105.606632 200.350881 
L 105.793537 213.826785 
L 105.980443 206.49551 
L 106.167348 173.076954 
L 106.354253 170.600416 
L 106.541159 171.380447 
L 107.101875 51.321755 
L 107.28878 114.51167 
L 107.475685 111.416276 
L 107.662591 105.19083 
L 107.849496 105.190983 
L 108.036401 141.970963 
L 108.223307 141.970963 
L 108.410212 81.534848 
L 108.597117 154.241512 
L 108.784023 164.588131 
L 108.970928 184.140307 
L 109.157833 239.306174 
L 109.531644 234.317406 
L 109.718549 234.635422 
L 109.905455 226.298802 
L 110.09236 205.900346 
L 110.279265 201.742023 
L 110.653076 159.467172 
L 110.839981 112.723611 
L 111.026886 124.078105 
L 111.213792 117.981859 
L 111.400697 93.105915 
L 111.587602 91.873301 
L 112.148318 187.18728 
L 112.335224 191.263942 
L 112.522129 154.686964 
L 112.709034 161.738868 
L 113.082845 199.994181 
L 113.26975 94.783598 
L 113.456656 100.093564 
L 113.643561 115.966646 
L 113.830466 113.779984 
L 114.017372 121.873003 
L 114.204277 121.534016 
L 114.391182 219.213735 
L 114.578088 132.815897 
L 114.764993 142.750878 
L 114.951898 160.424517 
L 115.138804 219.809435 
L 115.325709 221.124514 
L 115.512614 209.030782 
L 115.886425 152.881576 
L 116.07333 147.49294 
L 116.634046 114.562622 
L 116.820951 124.655825 
L 117.194762 191.414075 
L 117.568573 145.709596 
L 117.755478 138.591367 
L 117.942383 140.433981 
L 118.129289 188.648543 
L 118.316194 191.319379 
L 118.503099 204.074217 
L 118.690005 246.738969 
L 118.87691 244.551962 
L 119.063815 250.856002 
L 119.250721 244.359964 
L 119.437626 247.905756 
L 119.624531 225.949233 
L 119.811437 235.252515 
L 119.998342 230.382365 
L 120.185247 218.693523 
L 120.372153 218.118372 
L 120.559058 228.552402 
L 120.745963 126.841605 
L 120.932869 168.991014 
L 121.119774 168.990975 
L 121.493585 203.282915 
L 121.68049 199.00007 
L 121.867395 184.387321 
L 122.054301 137.298063 
L 122.241206 172.909492 
L 122.428111 159.548756 
L 122.615016 163.971 
L 122.801922 164.548297 
L 122.988827 168.948726 
L 123.175732 176.464946 
L 123.362638 235.134624 
L 123.549543 238.114505 
L 123.736448 229.0245 
L 124.110259 158.841338 
L 124.297164 122.848175 
L 124.48407 122.848213 
L 124.670975 148.546399 
L 124.85788 148.546552 
L 125.044786 155.145336 
L 125.231691 197.813577 
L 125.792407 164.801828 
L 125.979312 190.968699 
L 126.166218 183.848399 
L 126.540028 217.330904 
L 126.726934 213.33571 
L 127.100744 229.130198 
L 127.28765 246.876565 
L 127.474555 251.382156 
L 127.848366 221.400627 
L 128.035271 168.585625 
L 128.222176 156.025277 
L 128.409081 209.182294 
L 128.595987 139.806268 
L 128.782892 170.25863 
L 128.969797 132.104799 
L 129.156703 179.630307 
L 129.343608 183.27505 
L 129.530513 190.509637 
L 129.717419 259.689792 
L 129.904324 178.640719 
L 130.091229 175.187744 
L 130.278135 184.608571 
L 130.46504 200.675644 
L 130.651945 171.7945 
L 130.838851 164.001057 
L 131.025756 162.073255 
L 131.212661 163.971076 
L 131.399567 196.559148 
L 131.586472 250.277745 
L 131.773377 251.86265 
L 131.960283 244.539655 
L 132.147188 167.87744 
L 132.334093 213.012863 
L 132.520999 201.890047 
L 132.707904 212.397994 
L 132.894809 212.397764 
L 133.081715 193.803163 
L 133.26862 193.803163 
L 133.455525 199.085564 
L 133.642431 199.085564 
L 133.829336 183.975912 
L 134.016241 183.975912 
L 134.203146 218.893342 
L 134.390052 231.232171 
L 134.576957 235.674082 
L 134.763862 243.604662 
L 134.950768 262.408168 
L 135.137673 261.768992 
L 135.324578 217.322009 
L 135.511484 208.585252 
L 135.698389 208.746733 
L 135.885294 205.969432 
L 136.0722 205.602113 
L 136.44601 267.940113 
L 136.632916 237.594447 
L 136.819821 233.880043 
L 137.006726 208.736689 
L 137.193632 205.344518 
L 137.380537 225.125535 
L 137.567442 206.917307 
L 137.754348 206.917307 
L 137.941253 220.701643 
L 138.128158 220.70172 
L 138.315064 214.129849 
L 138.501969 214.129849 
L 138.688874 218.26122 
L 138.87578 218.260952 
L 139.062685 236.651747 
L 139.24959 236.65167 
L 139.436496 265.005548 
L 139.623401 265.00574 
L 139.810306 241.84505 
L 139.997211 241.84505 
L 140.371022 226.337523 
L 140.557927 226.337523 
L 140.744833 264.871057 
L 140.931738 264.871211 
L 141.118643 217.05483 
L 141.305549 217.05483 
L 141.492454 200.938875 
L 141.679359 159.424655 
L 141.866265 161.6906 
L 142.05317 156.06258 
L 142.240075 154.056299 
L 142.426981 164.774186 
L 142.613886 165.793985 
L 142.800791 194.869542 
L 142.987697 164.802518 
L 143.174602 164.038437 
L 143.361507 128.030437 
L 143.548413 128.855055 
L 143.922223 197.582359 
L 144.109129 219.157109 
L 144.296034 214.496286 
L 144.482939 214.496325 
L 144.669845 182.302638 
L 144.85675 182.302907 
L 145.043655 225.748686 
L 145.230561 216.475347 
L 145.604371 224.118274 
L 145.791276 211.371142 
L 145.978182 216.378887 
L 146.165087 216.378657 
L 146.351992 228.207051 
L 146.538898 228.207281 
L 146.725803 230.376384 
L 146.912708 225.747306 
L 147.099614 225.460957 
L 147.286519 233.920528 
L 148.03414 193.25899 
L 148.221046 161.21164 
L 148.407951 164.004852 
L 148.594856 176.181396 
L 149.155572 244.529841 
L 149.342478 247.204357 
L 149.716288 164.866543 
L 149.903194 191.951424 
L 150.090099 193.326273 
L 150.277004 193.125036 
L 150.46391 168.352183 
L 150.650815 175.475895 
L 150.83772 165.70619 
L 151.024626 126.381661 
L 151.211531 166.247718 
L 151.398436 165.094963 
L 151.585341 206.810114 
L 151.772247 213.421013 
L 152.146057 250.917535 
L 152.332963 265.398592 
L 152.519868 268.996831 
L 152.706773 263.313181 
L 152.893679 265.336676 
L 153.080584 265.336599 
L 153.267489 248.282506 
L 153.454395 247.952606 
L 154.015111 211.309225 
L 154.202016 203.983317 
L 154.388921 203.983241 
L 154.575827 191.278971 
L 154.762732 191.278933 
L 154.949637 172.651207 
L 155.136543 172.651284 
L 155.323448 182.659338 
L 155.510353 182.659299 
L 155.697259 170.254451 
L 155.884164 203.079723 
L 156.257975 218.050896 
L 156.44488 210.095091 
L 156.631785 212.985145 
L 156.818691 206.876784 
L 157.005596 178.240468 
L 157.192501 189.533391 
L 157.379407 191.038015 
L 157.566312 191.410548 
L 157.753217 209.033197 
L 157.940122 158.478888 
L 158.127028 233.551905 
L 158.313933 167.59504 
L 158.500838 167.14491 
L 158.687744 197.659112 
L 158.874649 202.115247 
L 159.061554 181.561329 
L 159.24846 176.54074 
L 159.435365 143.308777 
L 159.62227 181.703219 
L 159.809176 97.687991 
L 159.996081 136.877723 
L 160.182986 106.38131 
L 160.369892 117.540126 
L 160.930608 178.167242 
L 161.117513 182.035651 
L 161.491324 198.825209 
L 161.678229 162.690424 
L 161.865134 162.373789 
L 162.05204 213.142178 
L 162.238945 170.046581 
L 162.42585 230.239401 
L 162.612756 230.239593 
L 162.799661 222.819066 
L 162.986566 222.819373 
L 163.173472 232.972154 
L 163.360377 232.972116 
L 163.547282 213.55328 
L 164.107998 213.452527 
L 164.294903 200.654865 
L 164.481809 200.654827 
L 164.668714 197.624301 
L 164.855619 197.624492 
L 165.042525 150.253027 
L 165.22943 173.214243 
L 165.416335 181.820726 
L 165.603241 162.7339 
L 165.790146 159.470929 
L 165.977051 197.406309 
L 166.163957 175.121534 
L 166.350862 208.932712 
L 166.537767 196.611403 
L 166.724673 174.535265 
L 166.911578 174.535265 
L 167.098483 145.77596 
L 167.285389 171.891227 
L 167.472294 175.539076 
L 167.659199 215.419127 
L 167.846105 222.647579 
L 168.03301 222.647541 
L 168.219915 187.57649 
L 168.406821 187.57649 
L 168.593726 161.968246 
L 168.780631 161.96794 
L 168.967537 178.020445 
L 169.154442 210.901114 
L 169.341347 210.901114 
L 169.528252 192.728119 
L 169.715158 187.544094 
L 169.902063 187.544248 
L 170.088968 181.57908 
L 170.275874 210.774253 
L 170.462779 190.813966 
L 170.649684 190.423682 
L 170.83659 194.511463 
L 171.023495 192.973178 
L 171.2104 190.187097 
L 171.397306 217.660344 
L 171.584211 185.409112 
L 171.958022 264.510907 
L 172.144927 263.666315 
L 172.331832 263.666354 
L 172.705643 243.660942 
L 172.892548 243.017933 
L 173.079454 247.253775 
L 173.266359 146.31791 
L 173.453264 133.594663 
L 173.64017 135.245969 
L 173.827075 162.130187 
L 174.01398 155.734404 
L 174.200886 176.024439 
L 174.387791 176.227938 
L 174.574696 168.409729 
L 174.761602 167.356231 
L 174.948507 165.391509 
L 175.135412 190.249818 
L 175.509223 203.145588 
L 175.696128 203.145588 
L 175.883033 230.287248 
L 176.069939 230.285867 
L 176.256844 236.311073 
L 176.443749 236.310881 
L 176.630655 240.675656 
L 176.81756 240.676154 
L 177.004465 233.895225 
L 177.191371 233.894381 
L 177.378276 229.828108 
L 177.565181 229.829182 
L 177.752087 232.780462 
L 177.938992 241.191995 
L 178.125897 235.996239 
L 178.312803 235.997389 
L 178.499708 223.579966 
L 178.686613 174.382104 
L 178.873519 197.02768 
L 179.060424 184.768135 
L 179.247329 184.768058 
L 179.434235 209.633843 
L 179.62114 209.633728 
L 179.808045 213.512526 
L 179.994951 213.512526 
L 180.181856 200.654635 
L 180.368761 215.718472 
L 180.555667 203.101422 
L 180.742572 228.402346 
L 180.929477 214.184136 
L 181.116382 212.884239 
L 181.303288 205.008253 
L 181.490193 220.131898 
L 181.677098 217.830835 
L 181.864004 228.46687 
L 182.050909 227.301808 
L 182.237814 188.73837 
L 182.42472 205.627148 
L 182.985436 177.101016 
L 183.172341 176.166904 
L 183.359246 176.211836 
L 183.546152 180.483449 
L 183.733057 193.337736 
L 183.919962 140.007506 
L 184.106868 170.930969 
L 184.293773 119.99389 
L 184.480678 152.877781 
L 184.667584 146.809023 
L 184.854489 151.742929 
L 185.041394 167.356384 
L 185.2283 156.249747 
L 185.415205 158.918053 
L 185.60211 159.3507 
L 185.789016 166.299053 
L 185.975921 181.159928 
L 186.162826 176.890232 
L 186.349732 176.890232 
L 186.536637 149.09939 
L 186.723542 149.09939 
L 186.910447 181.56225 
L 187.284258 159.470508 
L 187.471163 168.540692 
L 187.658069 170.825615 
L 187.844974 198.64314 
L 188.031879 161.330834 
L 188.218785 161.330566 
L 188.40569 203.634439 
L 188.592595 203.634631 
L 188.779501 207.560739 
L 188.966406 220.253315 
L 189.153311 201.047756 
L 189.340217 212.082048 
L 189.527122 200.983807 
L 189.714027 205.056751 
L 189.900933 198.034405 
L 190.461649 220.131591 
L 190.648554 244.064606 
L 190.835459 249.309014 
L 191.022365 240.602928 
L 191.20927 239.748138 
L 191.396175 169.873369 
L 191.583081 170.054057 
L 191.769986 169.164188 
L 192.143797 172.185857 
L 192.330702 170.763584 
L 192.517607 172.760088 
L 192.891418 192.281939 
L 193.078323 191.747771 
L 193.265228 210.781844 
L 193.452134 197.6723 
L 193.639039 156.432161 
L 193.825944 179.249378 
L 194.01285 165.475892 
L 194.199755 174.277709 
L 194.573566 215.889653 
L 194.760471 232.373655 
L 194.947376 226.839985 
L 195.321187 191.181898 
L 195.508092 187.53336 
L 195.694998 217.742465 
L 195.881903 209.335916 
L 196.068808 208.366341 
L 196.255714 206.343882 
L 196.442619 183.600887 
L 196.81643 175.803227 
L 197.19024 124.442971 
L 197.377146 164.640309 
L 197.564051 139.957475 
L 197.750956 169.250257 
L 197.937862 173.810557 
L 198.124767 153.79974 
L 198.498577 185.158227 
L 198.685483 174.534728 
L 199.059293 208.926348 
L 199.433104 197.943314 
L 199.99382 222.962643 
L 200.180725 226.325715 
L 200.367631 198.730628 
L 200.554536 198.730628 
L 200.741441 194.679691 
L 200.928347 194.679691 
L 201.115252 180.24901 
L 201.302157 155.656156 
L 201.489063 185.867638 
L 201.675968 137.211457 
L 201.862873 137.211419 
L 202.049779 188.543995 
L 202.236684 188.543957 
L 202.423589 195.015649 
L 202.610495 195.015649 
L 202.7974 205.209912 
L 202.984305 205.209912 
L 203.171211 223.050668 
L 203.358116 223.050476 
L 203.545021 226.534352 
L 203.731927 226.534314 
L 203.918832 216.600904 
L 204.105737 216.600828 
L 204.292642 213.528053 
L 204.479548 213.528092 
L 204.666453 217.377101 
L 204.853358 217.377101 
L 205.040264 211.384177 
L 205.227169 211.384177 
L 205.414074 208.48703 
L 205.60098 200.73158 
L 205.787885 200.495109 
L 205.97479 192.236124 
L 206.161696 192.236316 
L 206.348601 196.229094 
L 206.535506 196.228864 
L 206.722412 202.195565 
L 206.909317 202.195757 
L 207.096222 191.769777 
L 207.283128 191.769739 
L 207.470033 191.509806 
L 207.656938 191.509537 
L 207.843844 181.289779 
L 208.030749 181.289779 
L 208.217654 185.78199 
L 208.40456 185.782259 
L 208.591465 189.74521 
L 208.77837 189.744941 
L 208.965276 194.635487 
L 209.152181 194.635487 
L 209.339086 204.631579 
L 209.525992 204.631809 
L 209.712897 206.320841 
L 209.899802 206.320841 
L 210.086707 231.279519 
L 210.273613 231.279519 
L 210.460518 223.064585 
L 210.647423 223.064623 
L 210.834329 216.467219 
L 211.021234 216.467181 
L 211.208139 207.216039 
L 211.395045 207.215771 
L 211.58195 223.840896 
L 211.768855 223.840896 
L 211.955761 217.19626 
L 212.142666 217.19649 
L 212.329571 225.622898 
L 212.516477 225.623128 
L 212.703382 200.682737 
L 212.890287 200.682545 
L 213.077193 197.116434 
L 213.264098 197.116434 
L 213.451003 200.253501 
L 214.011719 200.224824 
L 214.198625 204.579324 
L 214.38553 204.579286 
L 214.572435 197.504072 
L 214.759341 197.504072 
L 214.946246 181.997887 
L 215.133151 181.997887 
L 215.320057 195.598199 
L 215.506962 195.598468 
L 215.693867 192.369618 
L 215.880772 192.369503 
L 216.067678 204.782786 
L 216.254583 204.782786 
L 216.441488 207.415628 
L 216.628394 207.415628 
L 216.815299 188.106287 
L 217.002204 188.106248 
L 217.18911 204.033042 
L 217.376015 204.032812 
L 217.56292 210.887274 
L 217.749826 210.887504 
L 217.936731 201.233888 
L 218.123636 201.233658 
L 218.310542 214.526114 
L 218.497447 214.526075 
L 218.684352 220.421774 
L 218.871258 220.421697 
L 219.058163 211.023912 
L 219.618879 210.967861 
L 219.99269 210.868565 
L 220.179595 216.475078 
L 220.3665 216.474925 
L 220.553406 227.386535 
L 220.740311 227.38642 
L 220.927216 201.101122 
L 221.114122 201.101084 
L 221.301027 186.173309 
L 221.487932 186.173309 
L 221.674837 191.980293 
L 221.861743 191.980293 
L 222.048648 189.522119 
L 222.235553 189.522158 
L 222.422459 194.029014 
L 222.609364 191.461653 
L 222.796269 198.120781 
L 222.983175 198.120551 
L 223.17008 188.37615 
L 223.356985 192.257824 
L 223.543891 181.241282 
L 223.730796 143.788964 
L 223.917701 142.111626 
L 224.291512 241.423597 
L 224.478417 157.766793 
L 224.665323 194.523654 
L 224.852228 193.793348 
L 225.039133 203.40671 
L 225.226039 192.823927 
L 225.412944 188.988834 
L 225.599849 188.988796 
L 225.786755 190.480155 
L 225.97366 190.480193 
L 226.160565 206.874292 
L 226.347471 206.874139 
L 226.534376 215.567573 
L 226.721281 215.567535 
L 226.908187 216.155682 
L 227.095092 216.155452 
L 227.281997 225.35775 
L 227.468902 225.35775 
L 227.655808 232.238129 
L 227.842713 232.238206 
L 228.029618 217.239505 
L 228.216524 217.239505 
L 228.403429 213.550673 
L 228.590334 213.550634 
L 228.77724 206.722664 
L 228.964145 206.722664 
L 229.15105 207.197905 
L 229.337956 207.197944 
L 229.524861 204.699246 
L 229.711766 198.627613 
L 229.898672 198.79588 
L 230.085577 199.140656 
L 230.646293 260.201148 
L 231.020104 245.424771 
L 231.207009 221.954346 
L 231.393914 153.269713 
L 231.58082 144.000093 
L 231.767725 105.838057 
L 231.95463 43.891797 
L 232.328441 69.727387 
L 232.515346 69.727655 
L 232.702252 121.862536 
L 232.889157 84.46094 
L 233.076062 117.795152 
L 233.262967 85.534642 
L 233.449873 170.464315 
L 233.636778 157.117304 
L 233.823683 172.716996 
L 234.010589 221.156144 
L 234.197494 237.524786 
L 234.571305 144.301777 
L 234.75821 152.52595 
L 235.132021 119.752168 
L 235.318926 121.103208 
L 235.505831 135.785772 
L 235.692737 135.78581 
L 235.879642 146.037312 
L 236.066547 146.037274 
L 236.253453 144.76843 
L 236.440358 144.768392 
L 236.627263 138.816182 
L 236.814169 41.472 
L 237.001074 144.583946 
L 237.187979 144.583946 
L 237.374885 100.156784 
L 237.56179 100.156784 
L 237.748695 142.422434 
L 237.935601 142.522459 
L 238.309411 161.057904 
L 238.496317 192.596619 
L 238.683222 175.788428 
L 238.870127 224.251844 
L 239.057033 234.379245 
L 239.243938 216.410938 
L 239.430843 169.705409 
L 239.804654 140.849261 
L 239.991559 142.586522 
L 240.178464 142.586522 
L 240.36537 198.75206 
L 240.552275 198.75206 
L 240.73918 184.593542 
L 240.926086 184.593504 
L 241.112991 195.974681 
L 241.299896 195.974681 
L 241.486802 205.409195 
L 241.673707 205.409463 
L 241.860612 181.142637 
L 242.047518 181.142637 
L 242.234423 187.5758 
L 242.421328 187.57603 
L 242.608234 187.438166 
L 242.795139 175.13917 
L 242.982044 199.526914 
L 243.16895 186.221999 
L 243.355855 186.221807 
L 243.54276 163.798937 
L 243.729666 163.798937 
L 243.916571 202.060883 
L 244.103476 202.060845 
L 244.290382 193.985538 
L 244.477287 193.985615 
L 244.664192 228.256086 
L 244.851098 228.255664 
L 245.038003 235.2141 
L 245.224908 235.212834 
L 245.411813 236.939859 
L 245.598719 236.939744 
L 245.785624 161.494347 
L 245.972529 142.626624 
L 246.159435 165.383152 
L 246.533245 143.099987 
L 246.720151 156.535061 
L 246.907056 140.703346 
L 247.093961 164.738455 
L 247.280867 146.315993 
L 247.467772 146.417934 
L 247.654677 175.224587 
L 248.028488 156.215971 
L 248.215393 168.462597 
L 248.402299 192.538997 
L 248.963015 155.169413 
L 249.14992 183.223217 
L 249.336825 178.665294 
L 249.523731 178.665179 
L 249.710636 229.939059 
L 249.897541 229.939098 
L 250.084447 224.818944 
L 250.271352 224.818982 
L 250.458257 182.937405 
L 250.645163 182.937444 
L 250.832068 199.939166 
L 251.018973 199.939396 
L 251.205878 181.386162 
L 251.392784 181.386162 
L 251.579689 194.151965 
L 251.766594 192.474857 
L 251.9535 187.233094 
L 252.140405 186.997927 
L 252.32731 198.238557 
L 252.514216 198.238787 
L 252.701121 185.007519 
L 252.888026 185.007519 
L 253.074932 194.339324 
L 253.261837 166.89759 
L 253.448742 198.670859 
L 253.635648 198.670859 
L 253.822553 187.330895 
L 254.196364 216.806589 
L 254.383269 156.223754 
L 254.570174 153.088718 
L 254.75708 171.575205 
L 255.13089 232.133811 
L 255.317796 240.30918 
L 255.504701 241.181261 
L 255.691606 237.344289 
L 256.065417 247.508227 
L 256.252322 179.417223 
L 256.626133 153.490656 
L 256.813038 174.683481 
L 256.999943 151.914263 
L 257.186849 152.040204 
L 257.373754 169.40131 
L 257.560659 159.371518 
L 257.747565 158.557213 
L 257.93447 158.877069 
L 258.121375 161.635432 
L 258.308281 144.937233 
L 258.495186 158.211095 
L 258.868997 75.721768 
L 259.055902 159.9778 
L 259.242807 157.712774 
L 259.429713 101.125362 
L 259.803523 181.596677 
L 259.990429 222.21474 
L 260.177334 203.525443 
L 260.364239 239.911689 
L 260.551145 243.737235 
L 260.73805 255.451764 
L 260.924955 258.068313 
L 261.111861 240.406636 
L 261.298766 234.990664 
L 261.485671 189.985591 
L 261.672577 190.532065 
L 262.233293 220.06956 
L 262.420198 214.405731 
L 262.607103 233.284611 
L 262.794008 227.887923 
L 262.980914 227.197451 
L 263.167819 236.961405 
L 263.354724 226.467567 
L 263.54163 198.828698 
L 263.728535 188.659316 
L 263.91544 122.57329 
L 264.102346 132.565893 
L 264.289251 121.312497 
L 264.476156 165.298501 
L 264.849967 161.823174 
L 265.223778 206.402961 
L 265.410683 205.306026 
L 265.597588 204.951474 
L 265.784494 206.193097 
L 265.971399 204.680537 
L 266.34521 169.832845 
L 266.532115 124.191127 
L 266.905926 159.983244 
L 267.092831 159.98332 
L 267.279736 180.116551 
L 267.466642 180.116551 
L 267.653547 172.56786 
L 267.840452 194.011838 
L 268.214263 169.833574 
L 268.401168 202.172831 
L 268.588073 191.553588 
L 268.774979 192.74403 
L 268.961884 190.143889 
L 269.148789 190.143889 
L 269.335695 209.711094 
L 269.5226 209.710903 
L 269.709505 213.328234 
L 269.896411 213.328004 
L 270.083316 238.582156 
L 270.270221 238.582156 
L 270.644032 256.628443 
L 271.017843 218.416414 
L 271.204748 207.909962 
L 271.391653 176.589698 
L 271.578559 174.909332 
L 271.765464 175.540418 
L 271.952369 164.520157 
L 272.139275 165.362487 
L 272.513085 113.228795 
L 272.699991 98.194363 
L 273.073801 126.627102 
L 273.260707 128.733446 
L 273.447612 117.332677 
L 273.634517 125.178759 
L 274.008328 164.23193 
L 274.195233 124.732846 
L 274.382138 122.54005 
L 274.569044 155.52063 
L 274.755949 156.245875 
L 274.942854 208.992942 
L 275.12976 175.899571 
L 275.316665 183.488901 
L 275.50357 178.506382 
L 275.690476 179.520315 
L 275.877381 121.891022 
L 276.064286 121.890983 
L 276.251192 161.992898 
L 276.438097 161.992898 
L 276.625002 166.645899 
L 276.811908 122.282762 
L 276.998813 122.108515 
L 277.185718 117.77882 
L 277.746434 183.53368 
L 277.93334 186.278931 
L 278.30715 196.239906 
L 278.680961 182.361986 
L 278.867866 182.361986 
L 279.054772 201.165761 
L 279.241677 201.165952 
L 279.428582 229.395154 
L 279.615488 229.395116 
L 279.802393 192.273427 
L 279.989298 192.273427 
L 280.176203 196.631684 
L 280.363109 196.631454 
L 280.550014 185.76815 
L 280.736919 185.76815 
L 280.923825 162.707945 
L 281.11073 162.707907 
L 281.297635 168.5599 
L 281.484541 168.559708 
L 281.671446 142.109747 
L 281.858351 142.109786 
L 282.045257 176.737109 
L 282.232162 176.737147 
L 282.419067 168.911922 
L 282.605973 168.911922 
L 282.792878 190.111992 
L 282.979783 168.092939 
L 283.166689 197.072766 
L 283.353594 193.145125 
L 283.540499 193.145125 
L 283.727405 174.068918 
L 283.91431 176.773799 
L 284.661931 238.503754 
L 284.848837 226.855397 
L 285.035742 196.876704 
L 285.222647 215.594026 
L 285.409553 214.257132 
L 285.596458 211.906727 
L 285.783363 205.318716 
L 285.970268 229.258708 
L 286.157174 228.0698 
L 286.344079 221.231517 
L 286.530984 227.426982 
L 286.71789 248.725314 
L 286.904795 254.466931 
L 287.0917 216.492445 
L 287.278606 214.919043 
L 287.465511 215.949 
L 287.652416 212.215542 
L 287.839322 198.496995 
L 288.213132 245.740142 
L 288.400038 249.342982 
L 288.586943 257.481086 
L 288.773848 255.71787 
L 288.960754 255.718062 
L 289.147659 243.59316 
L 289.334564 243.593198 
L 289.52147 212.440588 
L 289.708375 214.174667 
L 289.89528 227.169081 
L 290.082186 207.757261 
L 290.269091 202.401058 
L 290.455996 214.639557 
L 290.829807 206.670026 
L 291.016712 222.403058 
L 291.203618 218.136697 
L 291.390523 223.283343 
L 291.577428 223.283266 
L 291.764333 224.444303 
L 291.951239 224.444379 
L 292.138144 230.220616 
L 292.325049 230.220616 
L 292.511955 230.992097 
L 292.69886 230.992097 
L 292.885765 250.521769 
L 293.072671 250.520887 
L 293.259576 255.843926 
L 293.446481 255.843735 
L 293.633387 264.099154 
L 293.820292 264.099154 
L 294.007197 249.954362 
L 294.194103 249.954094 
L 294.381008 235.227978 
L 294.567913 235.227825 
L 294.754819 233.447088 
L 294.941724 233.447127 
L 295.128629 237.021136 
L 295.315535 237.021174 
L 295.50244 240.128913 
L 295.689345 240.128913 
L 295.876251 222.819948 
L 296.063156 222.81991 
L 296.250061 221.199312 
L 296.436967 221.199581 
L 296.623872 207.588074 
L 296.810777 207.587806 
L 296.997683 214.4632 
L 297.184588 214.463162 
L 297.371493 221.508204 
L 297.558398 221.508396 
L 297.745304 214.915899 
L 298.30602 214.97425 
L 298.492925 222.916445 
L 298.67983 222.916445 
L 298.866736 223.47929 
L 299.053641 223.479251 
L 299.240546 229.867022 
L 299.427452 229.866983 
L 299.614357 244.740586 
L 299.801262 244.740625 
L 299.988168 226.163583 
L 300.175073 226.163544 
L 300.361978 219.148061 
L 300.548884 219.1481 
L 300.735789 206.616812 
L 300.922694 206.616505 
L 301.1096 212.587999 
L 301.296505 212.58819 
L 301.48341 253.573725 
L 301.670316 253.573802 
L 301.857221 234.877144 
L 302.044126 234.877068 
L 302.231032 232.959656 
L 302.791748 232.947464 
L 302.978653 240.457894 
L 303.165558 240.457856 
L 303.352463 238.46323 
L 303.539369 238.463192 
L 303.726274 239.075569 
L 303.913179 239.075454 
L 304.100085 227.520604 
L 304.28699 227.520681 
L 304.473895 212.098764 
L 304.660801 212.098457 
L 304.847706 250.37639 
L 305.034611 250.376658 
L 305.221517 251.79065 
L 305.408422 251.790574 
L 305.595327 249.377256 
L 305.782233 249.377141 
L 305.969138 231.615132 
L 306.156043 231.615017 
L 306.342949 226.6246 
L 306.529854 226.624485 
L 306.716759 229.110339 
L 306.903665 229.110224 
L 307.09057 228.793818 
L 307.277475 228.793857 
L 307.464381 222.075495 
L 307.651286 222.07538 
L 307.838191 223.62417 
L 308.025097 223.624132 
L 308.212002 218.12025 
L 308.398907 218.12025 
L 308.585813 217.792075 
L 308.772718 217.792075 
L 308.959623 222.695195 
L 309.146528 222.695157 
L 309.333434 218.690034 
L 309.520339 218.689995 
L 309.707244 217.533828 
L 309.89415 217.533828 
L 310.081055 220.889117 
L 310.26796 220.889156 
L 310.454866 235.613163 
L 310.641771 235.613124 
L 310.828676 231.591784 
L 311.015582 231.592014 
L 311.202487 230.561635 
L 311.389392 230.561711 
L 311.576298 255.550945 
L 311.763203 237.597092 
L 311.950108 237.597245 
L 312.137014 238.558961 
L 312.323919 238.559076 
L 312.510824 231.57043 
L 312.69773 231.570161 
L 312.884635 219.623264 
L 313.07154 219.623034 
L 313.258446 233.265212 
L 313.445351 233.265173 
L 313.632256 227.845483 
L 313.819162 227.845444 
L 314.006067 231.316899 
L 314.192972 231.316899 
L 314.379878 239.021474 
L 314.566783 239.021474 
L 314.753688 239.946615 
L 314.940593 243.667038 
L 315.127499 242.753245 
L 315.501309 233.395983 
L 315.688215 233.396099 
L 315.87512 245.327239 
L 316.062025 245.327239 
L 316.248931 263.002028 
L 316.435836 263.00199 
L 316.622741 260.373057 
L 316.809647 260.372865 
L 316.996552 265.27867 
L 317.183457 265.278631 
L 317.370363 258.630237 
L 317.557268 258.630046 
L 317.744173 238.424969 
L 317.931079 235.841429 
L 318.117984 235.841352 
L 318.304889 232.899004 
L 318.491795 232.899043 
L 318.6787 230.603002 
L 318.865605 230.603232 
L 319.052511 225.800174 
L 319.239416 225.800481 
L 319.426321 226.846042 
L 319.613227 226.845851 
L 319.800132 215.979594 
L 319.987037 215.979863 
L 320.173943 238.644455 
L 320.360848 238.644532 
L 320.547753 228.50701 
L 320.734659 228.507163 
L 320.921564 230.78714 
L 321.108469 230.787179 
L 321.295374 238.840786 
L 321.48228 238.840786 
L 321.669185 240.658327 
L 321.85609 240.658365 
L 322.042996 240.289397 
L 322.229901 240.289436 
L 322.416806 234.109881 
L 322.603712 234.109957 
L 322.790617 235.534991 
L 322.977522 235.534914 
L 323.164428 241.069351 
L 323.351333 241.069198 
L 323.538238 261.29632 
L 323.725144 261.296128 
L 323.912049 259.25542 
L 324.098954 259.255573 
L 324.28586 266.259286 
L 324.472765 266.259325 
L 324.65967 264.807684 
L 324.846576 264.807837 
L 325.033481 248.661519 
L 325.220386 248.661442 
L 325.407292 238.444023 
L 325.594197 238.444061 
L 325.781102 240.355991 
L 325.968008 240.355991 
L 326.154913 241.823925 
L 326.341818 241.824002 
L 326.528724 231.85766 
L 326.715629 231.85766 
L 326.902534 230.964915 
L 327.089439 230.965107 
L 327.276345 216.987968 
L 327.46325 216.987891 
L 327.650155 237.341376 
L 327.837061 237.341337 
L 328.023966 223.585448 
L 328.210871 223.585487 
L 328.397777 229.033126 
L 328.584682 229.033164 
L 328.771587 236.549268 
L 328.958493 236.549268 
L 329.145398 236.238153 
L 329.332303 236.238192 
L 329.519209 238.972363 
L 329.706114 238.972171 
L 329.893019 234.127938 
L 330.079925 234.1279 
L 330.26683 237.629028 
L 330.453735 237.629066 
L 330.640641 237.9702 
L 330.827546 237.970238 
L 331.014451 243.817286 
L 331.201357 243.817324 
L 331.388262 265.177188 
L 331.575167 265.177342 
L 331.762073 263.505639 
L 331.948978 263.505678 
L 332.135883 264.693858 
L 332.322789 264.693858 
L 332.509694 256.318669 
L 332.696599 256.318823 
L 332.883504 243.067159 
L 333.07041 243.067121 
L 333.257315 233.085213 
L 333.44422 233.085175 
L 333.631126 233.435894 
L 333.818031 233.43597 
L 334.004936 231.204108 
L 334.191842 231.203916 
L 334.378747 225.245879 
L 334.565652 225.245879 
L 334.752558 218.033107 
L 334.939463 218.033222 
L 335.126368 229.504687 
L 335.313274 229.504763 
L 335.500179 232.096086 
L 335.687084 232.096316 
L 335.87399 226.532128 
L 336.060895 226.532128 
L 336.2478 234.210749 
L 336.434706 234.210749 
L 336.621611 229.446489 
L 336.808516 229.446528 
L 336.995422 237.793307 
L 337.182327 237.793269 
L 337.369232 233.970789 
L 337.556138 233.970866 
L 337.743043 237.460224 
L 337.929948 237.460148 
L 338.116854 237.973344 
L 338.303759 237.97342 
L 338.490664 236.884153 
L 338.677569 236.884077 
L 338.864475 258.00218 
L 339.05138 258.002333 
L 339.238285 260.616045 
L 339.425191 260.616045 
L 339.612096 261.836429 
L 339.799001 261.836353 
L 339.985907 262.854195 
L 340.172812 262.854272 
L 340.359717 242.773679 
L 340.546623 242.773871 
L 340.733528 236.953086 
L 340.920433 236.953201 
L 341.107339 242.559752 
L 341.294244 242.55979 
L 341.481149 238.605772 
L 341.668055 238.605772 
L 341.85496 229.201508 
L 342.041865 229.201814 
L 342.228771 223.967758 
L 342.415676 223.967681 
L 342.602581 215.317454 
L 342.789487 215.317492 
L 342.976392 232.84928 
L 343.163297 232.849203 
L 343.350203 230.398697 
L 343.537108 230.39885 
L 343.724013 231.839258 
L 343.910919 231.839219 
L 344.097824 235.067954 
L 344.284729 235.067954 
L 344.471634 234.86848 
L 344.65854 234.86848 
L 344.845445 241.332314 
L 345.03235 241.332352 
L 345.219256 239.544561 
L 345.406161 239.5446 
L 345.593066 239.687026 
L 345.779972 239.687103 
L 345.966877 240.538826 
L 346.153782 240.538788 
L 346.340688 258.099674 
L 346.527593 258.099521 
L 346.714498 255.70426 
L 346.901404 255.70426 
L 347.088309 253.837761 
L 347.275214 253.837646 
L 347.46212 261.98591 
L 347.649025 261.985987 
L 347.83593 246.441426 
L 348.022836 246.441311 
L 348.209741 234.602987 
L 348.396646 234.603026 
L 348.583552 234.207988 
L 348.770457 234.20795 
L 348.957362 230.236526 
L 349.144268 230.236488 
L 349.331173 226.028478 
L 349.518078 226.028133 
L 349.704984 220.683663 
L 349.891889 220.683739 
L 350.078794 223.964001 
L 350.265699 223.964001 
L 350.452605 229.457799 
L 350.63951 229.457952 
L 350.826415 222.282905 
L 351.013321 222.282982 
L 351.200226 230.536523 
L 351.387131 230.5366 
L 351.574037 219.568862 
L 351.760942 219.568785 
L 351.947847 219.425439 
L 352.134753 202.971877 
L 352.321658 206.250835 
L 352.508563 227.141055 
L 352.695469 191.86823 
L 353.069279 211.200613 
L 353.256185 205.48798 
L 353.44309 207.36667 
L 353.629995 228.676772 
L 353.816901 228.676695 
L 354.003806 236.214 
L 354.190711 236.213885 
L 354.377617 233.40875 
L 354.564522 233.408558 
L 355.125238 239.414595 
L 355.312143 238.569811 
L 355.499049 238.460432 
L 355.685954 232.080482 
L 355.872859 232.080329 
L 356.059764 236.64059 
L 356.24667 236.640552 
L 356.433575 251.791532 
L 356.62048 238.417263 
L 356.807386 238.417339 
L 356.994291 250.448197 
L 357.181196 239.723869 
L 357.368102 239.723946 
L 357.555007 212.255222 
L 357.741912 212.255107 
L 357.928818 201.881076 
L 358.115723 249.083585 
L 358.302628 221.696905 
L 358.489534 221.697557 
L 358.676439 251.036575 
L 358.863344 251.03669 
L 359.05025 247.967826 
L 359.237155 247.967711 
L 359.42406 257.39287 
L 359.610966 257.392793 
L 359.797871 246.365516 
L 359.984776 246.365401 
L 360.171682 242.055795 
L 360.358587 242.055872 
L 360.545492 243.857809 
L 360.732398 243.857848 
L 360.919303 245.05358 
L 361.106208 245.053657 
L 361.293114 246.526 
L 361.666924 242.437184 
L 362.040735 226.197052 
L 362.22764 226.197052 
L 362.414545 219.973791 
L 362.601451 219.973561 
L 362.788356 210.059551 
L 362.975261 210.059513 
L 363.162167 200.075228 
L 363.349072 200.075343 
L 363.722883 212.612458 
L 363.909788 212.612267 
L 364.096693 190.472602 
L 364.283599 206.957371 
L 364.657409 89.101482 
L 364.844315 111.699212 
L 365.218125 87.061425 
L 365.405031 107.88348 
L 365.591936 94.562731 
L 366.152652 121.434604 
L 366.339557 122.387081 
L 366.900273 184.792786 
L 367.087179 185.103518 
L 367.274084 218.502061 
L 367.460989 203.255619 
L 367.647894 203.255849 
L 367.8348 205.522178 
L 368.021705 202.008666 
L 368.20861 196.391802 
L 368.395516 198.561672 
L 368.582421 185.452895 
L 368.769326 185.500166 
L 368.956232 186.426764 
L 369.143137 195.518456 
L 369.330042 182.254102 
L 369.516948 198.864161 
L 369.703853 187.336799 
L 369.890758 188.164944 
L 370.077664 201.448276 
L 370.264569 197.838152 
L 370.451474 197.838152 
L 370.63838 211.737387 
L 370.825285 204.698556 
L 371.199096 151.839887 
L 371.386001 174.506358 
L 371.572906 157.080806 
L 371.759812 108.593544 
L 371.946717 135.605773 
L 372.133622 197.674217 
L 372.507433 171.041728 
L 372.694338 194.297727 
L 372.881244 184.860913 
L 373.068149 181.70621 
L 373.255054 165.833166 
L 373.441959 228.7038 
L 373.628865 228.7038 
L 373.81577 194.646758 
L 374.002675 194.646758 
L 374.189581 186.536181 
L 374.376486 186.536143 
L 374.563391 201.212994 
L 374.750297 201.213032 
L 374.937202 194.145639 
L 375.124107 194.145639 
L 375.311013 190.328642 
L 375.497918 190.328833 
L 375.684823 199.051443 
L 375.871729 199.051443 
L 376.058634 186.154217 
L 376.245539 186.154217 
L 376.432445 179.547918 
L 376.61935 177.556436 
L 376.806255 194.933337 
L 376.993161 142.345106 
L 377.180066 142.345106 
L 377.366971 177.008582 
L 377.553877 177.008621 
L 377.740782 186.710697 
L 377.927687 186.710697 
L 378.114593 200.794953 
L 378.301498 200.794723 
L 378.488403 195.218037 
L 378.675309 195.218037 
L 378.862214 127.052274 
L 379.049119 127.052082 
L 379.236024 197.978125 
L 379.42293 154.547988 
L 379.609835 179.103501 
L 379.79674 180.43752 
L 379.983646 172.942463 
L 380.170551 172.349523 
L 380.357456 150.746748 
L 380.544362 158.412448 
L 380.731267 156.161991 
L 380.918172 164.161157 
L 381.105078 226.743794 
L 381.291983 234.113484 
L 381.478888 233.741335 
L 381.665794 234.085919 
L 381.852699 234.111261 
L 382.039604 238.442029 
L 382.22651 239.415706 
L 382.60032 228.101582 
L 382.787226 215.991441 
L 382.974131 216.58902 
L 383.161036 229.226811 
L 383.347942 228.2493 
L 383.534847 210.581948 
L 384.095563 191.605115 
L 384.282468 177.839718 
L 384.656279 134.311473 
L 384.843184 132.054307 
L 385.030089 86.911101 
L 385.4039 191.562521 
L 385.590805 195.513932 
L 385.777711 192.744605 
L 385.964616 192.727506 
L 386.151521 142.723543 
L 386.338427 149.984966 
L 386.525332 144.024591 
L 386.712237 148.844402 
L 386.899143 97.864002 
L 387.086048 125.893269 
L 387.459859 224.007898 
L 387.646764 228.359101 
L 387.833669 158.53191 
L 388.020575 158.53191 
L 388.20748 269.574665 
L 388.394385 269.574665 
L 388.581291 234.462899 
L 388.768196 221.397406 
L 388.955101 234.538387 
L 389.142007 235.367874 
L 389.328912 226.89293 
L 389.515817 235.007073 
L 389.889628 235.951038 
L 390.263439 245.31336 
L 390.450344 242.860707 
L 390.637249 187.564682 
L 390.824154 224.061571 
L 391.01106 191.390497 
L 391.197965 191.768474 
L 391.38487 191.79903 
L 391.571776 212.852993 
L 391.758681 168.406431 
L 391.945586 200.683772 
L 392.132492 169.23634 
L 392.506302 173.000469 
L 392.693208 158.567794 
L 392.880113 125.266209 
L 393.067018 149.996698 
L 393.253924 195.442009 
L 393.440829 212.155198 
L 393.627734 193.024321 
L 394.001545 202.382848 
L 394.18845 224.202848 
L 394.375356 168.732882 
L 394.562261 168.869174 
L 394.749166 164.821841 
L 394.936072 174.550869 
L 395.122977 224.50089 
L 395.496788 207.140129 
L 395.683693 246.915709 
L 395.870598 228.682714 
L 396.057504 225.455245 
L 396.244409 233.180254 
L 396.61822 232.919669 
L 396.805125 217.311849 
L 396.99203 233.989767 
L 397.178935 237.195882 
L 397.365841 237.693474 
L 397.552746 237.86431 
L 397.739651 237.811825 
L 397.926557 243.200691 
L 398.113462 231.246586 
L 398.300367 246.900488 
L 398.487273 233.798229 
L 398.487273 233.798229 
" style="fill:none;stroke:#1f77b4;stroke-linecap:square;stroke-width:1.5;"/>
   </g>
   <g id="line2d_30">
    <path clip-path="url(#pdd5fb4ed7e)" d="M 73.832727 190.81849 
L 74.206538 236.503556 
L 74.393443 247.902334 
L 74.767254 209.245636 
L 75.32797 180.744277 
L 75.70178 168.704979 
L 76.075591 158.971668 
L 76.449402 154.306339 
L 76.636307 153.862499 
L 77.010118 154.893156 
L 77.197023 154.792305 
L 77.383928 155.619311 
L 77.570834 153.873288 
L 78.13155 134.879313 
L 78.318455 133.630183 
L 78.50536 134.026614 
L 78.692266 134.07659 
L 78.879171 134.36419 
L 79.252982 136.567046 
L 79.626792 142.355977 
L 80.187508 150.36772 
L 80.374414 151.285941 
L 80.93513 158.270703 
L 81.122035 161.529217 
L 81.869656 187.603954 
L 82.804183 224.359468 
L 83.364899 236.788288 
L 83.551804 238.309655 
L 83.738709 238.821952 
L 84.11252 241.277214 
L 84.299425 239.9937 
L 84.486331 236.872544 
L 84.673236 236.323462 
L 84.860141 234.701701 
L 85.420857 217.391054 
L 86.168479 186.812851 
L 86.542289 177.071442 
L 86.9161 170.118176 
L 87.103005 166.226155 
L 87.663721 161.481676 
L 87.850626 158.553726 
L 88.224437 157.036454 
L 88.598248 153.254939 
L 88.785153 155.136289 
L 88.972058 155.082356 
L 89.158964 155.819283 
L 90.467301 170.382164 
L 90.841112 180.814093 
L 92.149449 200.239759 
L 92.336354 201.02067 
L 92.52326 200.476055 
L 92.89707 203.902044 
L 93.270881 206.318427 
L 93.644691 209.414151 
L 93.831597 209.068368 
L 94.205407 204.79025 
L 94.579218 200.389198 
L 94.953029 199.023094 
L 95.139934 196.198725 
L 96.448271 159.221999 
L 96.635177 153.257661 
L 96.822082 156.032026 
L 97.569703 148.655964 
L 98.691135 157.030094 
L 99.438756 178.30428 
L 99.812567 192.207606 
L 100.373283 220.39538 
L 100.560188 221.716465 
L 101.120904 232.003148 
L 101.30781 233.67412 
L 101.494715 232.483339 
L 101.68162 233.151981 
L 101.868526 231.184275 
L 102.242336 222.989871 
L 102.429242 218.058942 
L 102.989958 196.842967 
L 103.924484 169.169252 
L 104.298295 159.427078 
L 104.4852 159.149056 
L 104.859011 145.125288 
L 105.232821 149.205488 
L 105.419727 147.342594 
L 105.606632 147.439929 
L 106.167348 154.102773 
L 106.541159 162.871763 
L 106.728064 164.484556 
L 107.28878 161.263226 
L 108.036401 152.660322 
L 108.223307 147.598002 
L 108.410212 147.640086 
L 108.597117 151.317486 
L 108.970928 145.010607 
L 109.531644 149.714166 
L 109.718549 151.121161 
L 110.09236 155.54725 
L 110.279265 157.065329 
L 111.026886 167.360548 
L 111.213792 167.688827 
L 111.774508 165.617981 
L 111.961413 166.917373 
L 112.148318 172.199994 
L 112.335224 174.051116 
L 112.522129 173.556058 
L 112.709034 172.435986 
L 113.082845 167.980432 
L 113.830466 144.154023 
L 114.204277 137.149236 
L 114.391182 140.136564 
L 114.764993 142.074817 
L 114.951898 144.19695 
L 115.512614 161.148394 
L 115.69952 161.465516 
L 116.447141 155.098675 
L 116.820951 147.713024 
L 117.568573 159.68085 
L 117.942383 161.461767 
L 118.129289 159.933507 
L 119.063815 172.964272 
L 119.250721 174.730731 
L 119.998342 191.140439 
L 120.559058 205.920443 
L 120.932869 202.942636 
L 121.119774 203.248087 
L 121.306679 205.165601 
L 121.68049 211.328483 
L 121.867395 211.115422 
L 122.428111 202.496609 
L 123.175732 186.809573 
L 123.362638 187.268843 
L 123.549543 187.411942 
L 123.736448 187.344049 
L 124.110259 182.436349 
L 124.297164 177.151138 
L 124.48407 176.951468 
L 125.418596 172.447733 
L 125.605502 171.690538 
L 126.353123 177.212345 
L 126.913839 184.34327 
L 127.100744 184.043049 
L 127.28765 184.481152 
L 127.474555 185.599034 
L 128.409081 198.37664 
L 128.595987 197.939625 
L 128.782892 198.69529 
L 128.969797 195.409851 
L 129.156703 195.181453 
L 129.343608 195.883034 
L 129.530513 197.168424 
L 129.717419 200.604479 
L 129.904324 200.344095 
L 130.651945 194.101168 
L 131.025756 186.604546 
L 131.399567 180.399001 
L 131.586472 181.842857 
L 131.960283 190.432427 
L 132.147188 188.367184 
L 132.707904 197.623745 
L 132.894809 199.262118 
L 133.081715 199.788523 
L 133.26862 199.9532 
L 133.455525 196.922988 
L 133.829336 198.384639 
L 134.016241 198.353006 
L 134.203146 199.263891 
L 134.763862 209.895996 
L 135.137673 218.078343 
L 135.698389 212.47704 
L 135.885294 214.38164 
L 136.0722 214.011102 
L 136.259105 215.581524 
L 136.632916 219.618464 
L 136.819821 221.622308 
L 137.380537 223.983931 
L 137.754348 226.27807 
L 137.941253 226.368485 
L 138.128158 225.841963 
L 138.501969 223.29101 
L 138.87578 218.908261 
L 139.24959 221.278069 
L 139.810306 228.854972 
L 139.997211 229.2823 
L 140.184117 227.504755 
L 140.557927 226.564783 
L 140.931738 232.347836 
L 141.118643 231.944301 
L 141.305549 232.451177 
L 141.492454 232.152255 
L 142.613886 214.933109 
L 142.800791 212.843999 
L 143.174602 204.203186 
L 143.548413 191.704921 
L 143.922223 186.278511 
L 144.296034 185.327429 
L 144.482939 182.808692 
L 144.85675 176.942667 
L 145.043655 177.37736 
L 145.230561 178.154184 
L 146.351992 195.914557 
L 146.538898 197.581444 
L 147.099614 208.817107 
L 147.473424 216.806434 
L 147.66033 217.304375 
L 148.03414 215.576534 
L 148.221046 212.9123 
L 148.407951 211.997411 
L 148.594856 211.691335 
L 148.781762 210.464654 
L 149.342478 213.994755 
L 149.529383 213.64943 
L 149.903194 209.852451 
L 150.277004 206.3543 
L 151.398436 187.422673 
L 151.585341 187.471299 
L 151.772247 188.479401 
L 152.706773 205.646664 
L 153.080584 207.593618 
L 153.267489 209.78451 
L 153.6413 216.017628 
L 154.015111 217.825993 
L 154.949637 225.876594 
L 155.136543 226.25441 
L 155.510353 223.508785 
L 156.071069 215.093378 
L 157.005596 200.842508 
L 157.379407 195.797062 
L 157.566312 194.802121 
L 157.753217 194.688319 
L 157.940122 192.413098 
L 158.127028 193.891531 
L 158.500838 191.500633 
L 158.874649 194.224227 
L 159.061554 194.169326 
L 159.24846 193.863398 
L 159.62227 191.447289 
L 160.369892 171.713936 
L 160.556797 168.343143 
L 160.930608 166.501475 
L 161.117513 166.051357 
L 161.304418 166.103321 
L 161.491324 165.592921 
L 161.678229 165.803498 
L 161.865134 162.244592 
L 162.05204 164.521949 
L 162.238945 164.667033 
L 162.986566 172.079083 
L 164.294903 201.961617 
L 164.668714 205.328548 
L 164.855619 206.10799 
L 165.22943 202.717602 
L 165.416335 203.674117 
L 165.603241 203.692123 
L 165.790146 201.00856 
L 165.977051 202.376547 
L 166.163957 199.620653 
L 166.537767 197.244926 
L 166.911578 191.908876 
L 167.285389 185.465966 
L 167.472294 183.56526 
L 167.659199 183.663586 
L 167.846105 184.123338 
L 168.03301 185.222972 
L 168.406821 184.066665 
L 168.593726 182.283853 
L 168.967537 183.109908 
L 169.154442 184.563928 
L 169.528252 188.635148 
L 169.715158 188.142037 
L 169.902063 188.763173 
L 170.088968 187.395491 
L 170.649684 189.71199 
L 171.023495 193.202862 
L 171.2104 193.935263 
L 171.397306 194.047324 
L 171.584211 192.185401 
L 171.771116 192.397573 
L 172.892548 214.551047 
L 173.079454 216.36868 
L 174.01398 205.011347 
L 174.387791 203.562083 
L 175.135412 198.365844 
L 175.322317 199.020079 
L 175.509223 197.832809 
L 175.883033 193.09559 
L 176.256844 190.614231 
L 176.443749 190.246728 
L 176.630655 190.129614 
L 176.81756 189.800733 
L 177.938992 214.419322 
L 178.499708 223.598307 
L 178.873519 224.38673 
L 179.247329 222.78157 
L 179.434235 223.105982 
L 179.994951 220.094712 
L 180.555667 215.185304 
L 180.742572 214.91066 
L 181.677098 210.036421 
L 182.050909 209.225174 
L 182.237814 207.483094 
L 182.42472 209.045346 
L 182.79853 208.935592 
L 182.985436 208.552239 
L 183.919962 199.515248 
L 184.106868 197.275873 
L 184.854489 182.918447 
L 185.041394 181.035854 
L 185.789016 168.390161 
L 185.975921 168.011239 
L 186.723542 162.493757 
L 186.910447 162.763524 
L 187.097353 162.27469 
L 187.471163 159.984191 
L 188.40569 168.241462 
L 189.527122 182.523733 
L 190.087838 186.140459 
L 190.648554 195.817031 
L 191.20927 207.577717 
L 191.396175 207.530105 
L 191.583081 206.10065 
L 191.956891 206.98411 
L 192.891418 199.624631 
L 193.078323 198.607917 
L 193.265228 199.097819 
L 193.452134 198.728596 
L 194.573566 187.174176 
L 194.947376 186.117305 
L 195.321187 189.186888 
L 195.508092 190.105346 
L 196.068808 196.17179 
L 196.255714 197.85098 
L 196.442619 197.983532 
L 196.81643 196.496544 
L 197.19024 189.29004 
L 197.377146 189.700448 
L 197.564051 187.735853 
L 197.750956 187.924571 
L 197.937862 187.901213 
L 198.685483 178.12782 
L 198.872388 177.23239 
L 199.246199 178.831182 
L 199.433104 177.841225 
L 199.620009 177.733272 
L 199.806915 178.00781 
L 199.99382 178.838748 
L 200.367631 181.987185 
L 200.554536 183.133555 
L 201.115252 190.165756 
L 201.489063 191.781559 
L 201.862873 189.122188 
L 202.049779 190.121929 
L 202.236684 190.291216 
L 202.423589 191.315262 
L 202.610495 191.454616 
L 202.7974 191.268794 
L 202.984305 191.441052 
L 203.358116 193.4901 
L 203.545021 194.123962 
L 203.731927 194.302546 
L 203.918832 193.816305 
L 204.666453 197.526977 
L 205.227169 203.44561 
L 205.60098 210.185396 
L 205.787885 210.782952 
L 205.97479 210.96756 
L 206.161696 210.828594 
L 206.348601 210.889266 
L 206.535506 210.440214 
L 206.722412 210.289496 
L 207.096222 207.682716 
L 208.217654 198.17392 
L 208.77837 194.130622 
L 209.152181 192.60061 
L 209.525992 193.002445 
L 209.899802 194.410907 
L 210.460518 198.959412 
L 211.395045 204.043223 
L 212.142666 211.43976 
L 212.516477 215.027553 
L 212.890287 215.632269 
L 213.637909 214.274007 
L 214.198625 210.244286 
L 214.946246 206.162799 
L 216.254583 197.510944 
L 216.628394 198.184243 
L 217.002204 197.283226 
L 217.376015 197.661171 
L 217.749826 198.727416 
L 218.123636 198.392862 
L 218.497447 200.095065 
L 218.871258 203.937449 
L 219.805784 207.644126 
L 220.179595 208.401388 
L 220.3665 208.854353 
L 220.740311 212.782374 
L 221.114122 212.489191 
L 221.487932 210.017783 
L 221.861743 209.092435 
L 222.796269 203.179243 
L 222.983175 202.534075 
L 223.543891 198.987623 
L 224.104607 190.734646 
L 224.291512 191.436499 
L 224.478417 187.955518 
L 224.852228 187.261257 
L 225.039133 188.122927 
L 225.226039 188.455458 
L 225.599849 188.156311 
L 225.97366 188.252114 
L 226.534376 190.537342 
L 226.908187 192.798668 
L 227.095092 193.993549 
L 227.281997 196.199372 
L 227.842713 206.753126 
L 228.029618 205.543921 
L 228.216524 208.517557 
L 228.590334 210.456772 
L 228.77724 210.62257 
L 229.15105 212.22796 
L 229.524861 213.849372 
L 229.711766 214.256743 
L 230.085577 213.466148 
L 230.272482 213.700901 
L 230.459388 215.014325 
L 230.833198 219.091763 
L 231.020104 220.095114 
L 231.207009 219.924944 
L 231.767725 205.994545 
L 232.515346 175.378884 
L 233.076062 160.528889 
L 233.262967 154.570659 
L 233.823683 149.757382 
L 234.010589 149.802058 
L 234.197494 149.586497 
L 234.384399 146.397987 
L 234.945115 131.943901 
L 235.318926 129.123179 
L 235.505831 130.620565 
L 236.253453 147.314494 
L 236.440358 148.459787 
L 236.627263 151.177549 
L 236.814169 147.361391 
L 237.001074 150.313857 
L 237.187979 149.019838 
L 237.56179 142.543802 
L 238.122506 131.648805 
L 238.309411 132.486612 
L 238.683222 136.523145 
L 239.243938 151.443189 
L 239.430843 153.139169 
L 239.617748 153.573038 
L 239.991559 153.204542 
L 240.178464 153.095448 
L 240.36537 156.092242 
L 240.552275 163.956245 
L 240.926086 167.957203 
L 241.486802 180.68833 
L 241.860612 185.27646 
L 242.047518 186.280697 
L 242.234423 186.029656 
L 242.421328 186.619036 
L 242.608234 184.778352 
L 242.795139 181.816348 
L 242.982044 180.972147 
L 243.16895 181.797976 
L 243.916571 188.555155 
L 244.103476 188.720594 
L 244.290382 188.482268 
L 244.477287 188.951872 
L 245.038003 194.711021 
L 245.411813 197.777723 
L 245.598719 200.567578 
L 245.785624 199.585164 
L 246.159435 196.228061 
L 247.280867 186.505416 
L 247.654677 184.294551 
L 248.589204 175.063699 
L 249.336825 162.001351 
L 249.523731 162.859893 
L 250.271352 178.155146 
L 250.645163 181.586968 
L 251.766594 191.226296 
L 251.9535 192.164821 
L 252.140405 191.887767 
L 252.514216 194.555005 
L 252.701121 196.046911 
L 252.888026 196.136126 
L 253.074932 196.919827 
L 253.261837 196.331448 
L 254.009458 190.114154 
L 254.196364 191.807614 
L 254.383269 190.471929 
L 254.75708 186.711197 
L 254.943985 187.778506 
L 256.065417 202.784564 
L 256.439228 200.939757 
L 256.813038 198.381121 
L 256.999943 197.631955 
L 257.373754 193.836945 
L 257.747565 190.341957 
L 257.93447 187.445481 
L 258.121375 187.716064 
L 258.495186 186.640285 
L 258.682091 182.006289 
L 259.055902 170.169118 
L 259.242807 165.995694 
L 259.616618 154.982265 
L 259.803523 151.686687 
L 260.177334 155.656188 
L 261.298766 181.239432 
L 261.859482 186.365901 
L 262.233293 192.660362 
L 263.354724 222.837225 
L 263.54163 223.698826 
L 263.728535 222.021055 
L 264.102346 212.606158 
L 264.663062 197.22182 
L 265.036872 191.040838 
L 265.410683 192.600405 
L 265.597588 192.793906 
L 265.784494 192.655162 
L 265.971399 191.885711 
L 266.158304 190.492486 
L 266.34521 187.319898 
L 266.905926 174.245234 
L 267.092831 170.921022 
L 267.466642 169.558276 
L 268.214263 178.477059 
L 268.588073 181.924243 
L 268.774979 182.06372 
L 269.148789 180.49266 
L 269.709505 181.338916 
L 269.896411 182.678254 
L 270.083316 186.115719 
L 270.644032 201.665015 
L 271.017843 207.056702 
L 271.204748 208.446372 
L 271.391653 208.647464 
L 271.765464 207.283731 
L 271.952369 207.01806 
L 272.32618 202.469832 
L 273.634517 172.816656 
L 274.195233 158.461548 
L 274.569044 148.0573 
L 274.755949 144.948773 
L 275.12976 144.968416 
L 275.316665 145.397394 
L 275.50357 145.545693 
L 275.690476 146.2957 
L 275.877381 144.122127 
L 276.064286 143.346709 
L 276.625002 151.469566 
L 277.185718 150.94341 
L 277.746434 153.280726 
L 278.30715 161.883524 
L 278.494056 163.509838 
L 278.680961 162.17829 
L 278.867866 162.501411 
L 279.241677 164.518232 
L 279.428582 167.011974 
L 279.802393 175.906301 
L 280.363109 180.651545 
L 280.923825 189.255252 
L 281.297635 190.816167 
L 281.484541 190.067468 
L 282.045257 184.372825 
L 282.792878 181.87338 
L 283.353594 176.79111 
L 283.540499 176.834695 
L 283.91431 174.931576 
L 284.101215 174.667486 
L 284.288121 175.739978 
L 284.475026 177.480488 
L 284.848837 184.477653 
L 285.035742 185.893493 
L 285.409553 191.852579 
L 285.783363 196.771506 
L 287.0917 214.9059 
L 287.278606 215.994596 
L 287.652416 219.860687 
L 287.839322 220.218054 
L 288.586943 224.672881 
L 288.960754 229.621141 
L 289.334564 232.672266 
L 289.52147 233.02836 
L 289.708375 232.274158 
L 289.89528 232.229122 
L 290.082186 231.555409 
L 290.455996 228.599825 
L 290.642902 226.424492 
L 290.829807 225.933371 
L 291.016712 226.307572 
L 291.203618 226.416956 
L 291.390523 226.970346 
L 291.577428 228.20966 
L 291.764333 227.947484 
L 292.69886 222.090967 
L 293.072671 222.783782 
L 294.381008 237.057778 
L 294.567913 238.485668 
L 294.941724 239.803391 
L 295.689345 242.745633 
L 296.436967 241.026299 
L 297.932209 224.831981 
L 298.492925 222.280082 
L 299.427452 219.373168 
L 299.801262 221.565236 
L 300.175073 222.061648 
L 300.548884 223.217662 
L 301.296505 221.540989 
L 301.857221 226.401918 
L 302.231032 227.89922 
L 303.165558 230.407285 
L 303.539369 229.779545 
L 304.100085 231.489367 
L 304.473895 232.182094 
L 304.660801 232.456192 
L 305.034611 236.235035 
L 305.408422 236.056719 
L 305.782233 237.506729 
L 306.156043 237.372272 
L 306.529854 236.73998 
L 307.464381 233.78828 
L 307.651286 232.938276 
L 308.025097 232.548627 
L 308.398907 233.150791 
L 309.520339 223.914084 
L 310.081055 222.219185 
L 310.26796 221.932419 
L 310.828676 222.722603 
L 311.015582 222.862511 
L 311.389392 223.711135 
L 311.763203 226.006121 
L 312.510824 229.729175 
L 312.69773 230.172923 
L 312.884635 230.019328 
L 313.07154 230.065978 
L 313.632256 232.096889 
L 314.006067 232.966093 
L 314.192972 232.751279 
L 314.379878 232.921697 
L 314.753688 233.710911 
L 315.127499 234.975758 
L 315.314404 234.077872 
L 315.688215 233.657759 
L 316.062025 234.334581 
L 316.809647 241.552734 
L 317.557268 247.832547 
L 317.931079 248.414177 
L 318.117984 248.255171 
L 318.491795 247.596669 
L 319.239416 245.366539 
L 319.426321 245.039036 
L 319.800132 242.647585 
L 320.173943 239.0786 
L 320.547753 236.398881 
L 321.108469 231.443578 
L 321.295374 230.454115 
L 321.48228 230.474906 
L 322.042996 231.326121 
L 322.416806 231.870985 
L 322.603712 232.046321 
L 323.164428 233.730949 
L 323.351333 234.442116 
L 323.912049 240.004314 
L 324.098954 241.034866 
L 324.846576 248.212148 
L 325.220386 249.194218 
L 325.781102 248.976117 
L 325.968008 248.979445 
L 326.341818 249.750849 
L 326.715629 249.38312 
L 327.089439 248.372693 
L 327.650155 242.846162 
L 327.837061 241.75045 
L 328.584682 233.905605 
L 328.958493 232.694383 
L 329.706114 232.335424 
L 330.079925 231.56582 
L 330.827546 232.843479 
L 331.762073 240.306017 
L 332.322789 245.868098 
L 332.696599 247.845046 
L 333.07041 248.527942 
L 333.44422 247.939235 
L 333.818031 247.870036 
L 334.191842 247.227533 
L 334.565652 245.955099 
L 335.126368 241.59306 
L 336.2478 231.746916 
L 336.621611 229.960479 
L 336.808516 229.279449 
L 337.182327 229.750259 
L 337.556138 229.803748 
L 337.929948 230.429366 
L 338.490664 232.644668 
L 338.864475 235.012086 
L 340.546623 247.01645 
L 340.920433 246.932436 
L 341.294244 247.79133 
L 341.668055 247.905888 
L 342.228771 246.382897 
L 342.415676 245.737077 
L 342.976392 240.08026 
L 344.097824 232.061371 
L 344.284729 231.676075 
L 345.03235 231.344865 
L 345.406161 231.438745 
L 345.966877 233.315839 
L 346.153782 234.144395 
L 346.714498 239.565356 
L 347.46212 244.559335 
L 347.649025 246.066673 
L 348.022836 247.204014 
L 348.396646 247.177467 
L 349.144268 245.534223 
L 349.704984 243.175589 
L 349.891889 242.182837 
L 350.826415 234.566896 
L 351.760942 227.156969 
L 351.947847 226.398092 
L 352.321658 223.418677 
L 352.508563 223.065332 
L 352.882374 219.87179 
L 353.44309 217.43754 
L 355.125238 221.213126 
L 355.872859 225.19593 
L 356.059764 226.715418 
L 356.24667 227.190393 
L 356.62048 231.870724 
L 356.807386 233.23156 
L 357.181196 237.097431 
L 357.368102 237.64979 
L 357.741912 235.630772 
L 357.928818 233.914131 
L 358.115723 234.697873 
L 358.489534 233.441167 
L 359.05025 235.166754 
L 359.237155 235.642118 
L 359.610966 238.17336 
L 359.984776 239.145849 
L 360.171682 238.659062 
L 360.545492 239.113016 
L 360.732398 238.783499 
L 361.106208 239.31647 
L 361.666924 244.685805 
L 361.853829 243.806978 
L 362.22764 244.256961 
L 362.975261 237.359841 
L 363.535977 229.710903 
L 364.283599 222.126894 
L 364.470504 217.809425 
L 365.591936 174.348195 
L 366.339557 152.816332 
L 366.713368 147.729978 
L 367.087179 146.217264 
L 367.274084 146.741276 
L 367.647894 145.805613 
L 367.8348 146.558091 
L 368.021705 146.310656 
L 368.20861 148.254823 
L 368.769326 161.89755 
L 369.703853 184.048057 
L 370.264569 193.951498 
L 370.825285 197.528833 
L 371.572906 189.03992 
L 371.946717 181.329862 
L 372.320528 181.133668 
L 372.507433 180.410746 
L 372.694338 180.804294 
L 372.881244 180.271417 
L 373.068149 180.244022 
L 373.255054 178.592473 
L 373.628865 182.687766 
L 374.189581 181.623021 
L 374.376486 180.362959 
L 374.563391 180.188681 
L 374.750297 181.382813 
L 375.124107 184.480065 
L 375.311013 186.142456 
L 375.684823 193.401504 
L 376.058634 193.657253 
L 376.245539 194.412878 
L 376.61935 193.310163 
L 376.806255 193.97152 
L 376.993161 192.797117 
L 377.366971 185.894421 
L 377.740782 184.615711 
L 377.927687 184.624437 
L 378.114593 185.337378 
L 378.301498 185.316464 
L 378.488403 185.016714 
L 378.675309 185.070334 
L 379.049119 178.551838 
L 379.236024 178.934303 
L 379.609835 175.711733 
L 379.79674 175.425898 
L 380.357456 173.064906 
L 380.544362 171.238861 
L 380.918172 173.020508 
L 382.039604 186.630986 
L 382.413415 190.747234 
L 382.787226 200.246668 
L 382.974131 201.177212 
L 383.347942 207.368444 
L 384.282468 214.503966 
L 384.469374 214.313315 
L 384.656279 212.820831 
L 385.4039 194.446272 
L 385.964616 187.897125 
L 386.525332 175.861862 
L 386.712237 172.474631 
L 387.086048 160.788689 
L 387.272953 159.303224 
L 387.459859 160.330663 
L 387.646764 162.042956 
L 388.020575 159.423905 
L 388.955101 188.086742 
L 389.702723 196.094224 
L 390.824154 224.470716 
L 391.01106 224.996608 
L 391.38487 221.556633 
L 391.571776 224.272687 
L 391.758681 224.766413 
L 392.693208 206.938687 
L 393.067018 197.588792 
L 394.001545 188.073538 
L 394.375356 186.199055 
L 394.749166 182.111003 
L 394.936072 181.250122 
L 395.122977 182.885215 
L 395.309882 183.09331 
L 395.683693 187.341591 
L 396.431314 199.746832 
L 396.805125 208.495263 
L 397.739651 217.597527 
L 397.926557 218.547419 
L 398.487273 229.02349 
L 398.487273 229.02349 
" style="fill:none;stroke:#ff7f0e;stroke-linecap:square;stroke-width:1.5;"/>
   </g>
   <g id="patch_3">
    <path d="M 57.6 307.584 
L 57.6 41.472 
" style="fill:none;stroke:#000000;stroke-linecap:square;stroke-linejoin:miter;stroke-width:0.8;"/>
   </g>
   <g id="patch_4">
    <path d="M 414.72 307.584 
L 414.72 41.472 
" style="fill:none;stroke:#000000;stroke-linecap:square;stroke-linejoin:miter;stroke-width:0.8;"/>
   </g>
   <g id="patch_5">
    <path d="M 57.6 307.584 
L 414.72 307.584 
" style="fill:none;stroke:#000000;stroke-linecap:square;stroke-linejoin:miter;stroke-width:0.8;"/>
   </g>
   <g id="patch_6">
    <path d="M 57.6 41.472 
L 414.72 41.472 
" style="fill:none;stroke:#000000;stroke-linecap:square;stroke-linejoin:miter;stroke-width:0.8;"/>
   </g>
   <g id="legend_1">
    <g id="patch_7">
     <path d="M 283.879375 78.82825 
L 407.72 78.82825 
Q 409.72 78.82825 409.72 76.82825 
L 409.72 48.472 
Q 409.72 46.472 407.72 46.472 
L 283.879375 46.472 
Q 281.879375 46.472 281.879375 48.472 
L 281.879375 76.82825 
Q 281.879375 78.82825 283.879375 78.82825 
z
" style="fill:#ffffff;opacity:0.8;stroke:#cccccc;stroke-linejoin:miter;"/>
    </g>
    <g id="line2d_31">
     <path d="M 285.879375 54.570437 
L 305.879375 54.570437 
" style="fill:none;stroke:#1f77b4;stroke-linecap:square;stroke-width:1.5;"/>
    </g>
    <g id="line2d_32"/>
    <g id="text_15">
     <!-- Edge D-Optimality -->
     <defs>
      <path d="M 9.8125 72.90625 
L 55.90625 72.90625 
L 55.90625 64.59375 
L 19.671875 64.59375 
L 19.671875 43.015625 
L 54.390625 43.015625 
L 54.390625 34.71875 
L 19.671875 34.71875 
L 19.671875 8.296875 
L 56.78125 8.296875 
L 56.78125 0 
L 9.8125 0 
z
" id="DejaVuSans-69"/>
      <path d="M 45.40625 46.390625 
L 45.40625 75.984375 
L 54.390625 75.984375 
L 54.390625 0 
L 45.40625 0 
L 45.40625 8.203125 
Q 42.578125 3.328125 38.25 0.953125 
Q 33.9375 -1.421875 27.875 -1.421875 
Q 17.96875 -1.421875 11.734375 6.484375 
Q 5.515625 14.40625 5.515625 27.296875 
Q 5.515625 40.1875 11.734375 48.09375 
Q 17.96875 56 27.875 56 
Q 33.9375 56 38.25 53.625 
Q 42.578125 51.265625 45.40625 46.390625 
z
M 14.796875 27.296875 
Q 14.796875 17.390625 18.875 11.75 
Q 22.953125 6.109375 30.078125 6.109375 
Q 37.203125 6.109375 41.296875 11.75 
Q 45.40625 17.390625 45.40625 27.296875 
Q 45.40625 37.203125 41.296875 42.84375 
Q 37.203125 48.484375 30.078125 48.484375 
Q 22.953125 48.484375 18.875 42.84375 
Q 14.796875 37.203125 14.796875 27.296875 
z
" id="DejaVuSans-100"/>
      <path d="M 45.40625 27.984375 
Q 45.40625 37.75 41.375 43.109375 
Q 37.359375 48.484375 30.078125 48.484375 
Q 22.859375 48.484375 18.828125 43.109375 
Q 14.796875 37.75 14.796875 27.984375 
Q 14.796875 18.265625 18.828125 12.890625 
Q 22.859375 7.515625 30.078125 7.515625 
Q 37.359375 7.515625 41.375 12.890625 
Q 45.40625 18.265625 45.40625 27.984375 
z
M 54.390625 6.78125 
Q 54.390625 -7.171875 48.1875 -13.984375 
Q 42 -20.796875 29.203125 -20.796875 
Q 24.46875 -20.796875 20.265625 -20.09375 
Q 16.0625 -19.390625 12.109375 -17.921875 
L 12.109375 -9.1875 
Q 16.0625 -11.328125 19.921875 -12.34375 
Q 23.78125 -13.375 27.78125 -13.375 
Q 36.625 -13.375 41.015625 -8.765625 
Q 45.40625 -4.15625 45.40625 5.171875 
L 45.40625 9.625 
Q 42.625 4.78125 38.28125 2.390625 
Q 33.9375 0 27.875 0 
Q 17.828125 0 11.671875 7.65625 
Q 5.515625 15.328125 5.515625 27.984375 
Q 5.515625 40.671875 11.671875 48.328125 
Q 17.828125 56 27.875 56 
Q 33.9375 56 38.28125 53.609375 
Q 42.625 51.21875 45.40625 46.390625 
L 45.40625 54.6875 
L 54.390625 54.6875 
z
" id="DejaVuSans-103"/>
      <path d="M 56.203125 29.59375 
L 56.203125 25.203125 
L 14.890625 25.203125 
Q 15.484375 15.921875 20.484375 11.0625 
Q 25.484375 6.203125 34.421875 6.203125 
Q 39.59375 6.203125 44.453125 7.46875 
Q 49.3125 8.734375 54.109375 11.28125 
L 54.109375 2.78125 
Q 49.265625 0.734375 44.1875 -0.34375 
Q 39.109375 -1.421875 33.890625 -1.421875 
Q 20.796875 -1.421875 13.15625 6.1875 
Q 5.515625 13.8125 5.515625 26.8125 
Q 5.515625 40.234375 12.765625 48.109375 
Q 20.015625 56 32.328125 56 
Q 43.359375 56 49.78125 48.890625 
Q 56.203125 41.796875 56.203125 29.59375 
z
M 47.21875 32.234375 
Q 47.125 39.59375 43.09375 43.984375 
Q 39.0625 48.390625 32.421875 48.390625 
Q 24.90625 48.390625 20.390625 44.140625 
Q 15.875 39.890625 15.1875 32.171875 
z
" id="DejaVuSans-101"/>
      <path id="DejaVuSans-32"/>
      <path d="M 19.671875 64.796875 
L 19.671875 8.109375 
L 31.59375 8.109375 
Q 46.6875 8.109375 53.6875 14.9375 
Q 60.6875 21.78125 60.6875 36.53125 
Q 60.6875 51.171875 53.6875 57.984375 
Q 46.6875 64.796875 31.59375 64.796875 
z
M 9.8125 72.90625 
L 30.078125 72.90625 
Q 51.265625 72.90625 61.171875 64.09375 
Q 71.09375 55.28125 71.09375 36.53125 
Q 71.09375 17.671875 61.125 8.828125 
Q 51.171875 0 30.078125 0 
L 9.8125 0 
z
" id="DejaVuSans-68"/>
      <path d="M 4.890625 31.390625 
L 31.203125 31.390625 
L 31.203125 23.390625 
L 4.890625 23.390625 
z
" id="DejaVuSans-45"/>
      <path d="M 39.40625 66.21875 
Q 28.65625 66.21875 22.328125 58.203125 
Q 16.015625 50.203125 16.015625 36.375 
Q 16.015625 22.609375 22.328125 14.59375 
Q 28.65625 6.59375 39.40625 6.59375 
Q 50.140625 6.59375 56.421875 14.59375 
Q 62.703125 22.609375 62.703125 36.375 
Q 62.703125 50.203125 56.421875 58.203125 
Q 50.140625 66.21875 39.40625 66.21875 
z
M 39.40625 74.21875 
Q 54.734375 74.21875 63.90625 63.9375 
Q 73.09375 53.65625 73.09375 36.375 
Q 73.09375 19.140625 63.90625 8.859375 
Q 54.734375 -1.421875 39.40625 -1.421875 
Q 24.03125 -1.421875 14.8125 8.828125 
Q 5.609375 19.09375 5.609375 36.375 
Q 5.609375 53.65625 14.8125 63.9375 
Q 24.03125 74.21875 39.40625 74.21875 
z
" id="DejaVuSans-79"/>
      <path d="M 18.109375 8.203125 
L 18.109375 -20.796875 
L 9.078125 -20.796875 
L 9.078125 54.6875 
L 18.109375 54.6875 
L 18.109375 46.390625 
Q 20.953125 51.265625 25.265625 53.625 
Q 29.59375 56 35.59375 56 
Q 45.5625 56 51.78125 48.09375 
Q 58.015625 40.1875 58.015625 27.296875 
Q 58.015625 14.40625 51.78125 6.484375 
Q 45.5625 -1.421875 35.59375 -1.421875 
Q 29.59375 -1.421875 25.265625 0.953125 
Q 20.953125 3.328125 18.109375 8.203125 
z
M 48.6875 27.296875 
Q 48.6875 37.203125 44.609375 42.84375 
Q 40.53125 48.484375 33.40625 48.484375 
Q 26.265625 48.484375 22.1875 42.84375 
Q 18.109375 37.203125 18.109375 27.296875 
Q 18.109375 17.390625 22.1875 11.75 
Q 26.265625 6.109375 33.40625 6.109375 
Q 40.53125 6.109375 44.609375 11.75 
Q 48.6875 17.390625 48.6875 27.296875 
z
" id="DejaVuSans-112"/>
      <path d="M 18.3125 70.21875 
L 18.3125 54.6875 
L 36.8125 54.6875 
L 36.8125 47.703125 
L 18.3125 47.703125 
L 18.3125 18.015625 
Q 18.3125 11.328125 20.140625 9.421875 
Q 21.96875 7.515625 27.59375 7.515625 
L 36.8125 7.515625 
L 36.8125 0 
L 27.59375 0 
Q 17.1875 0 13.234375 3.875 
Q 9.28125 7.765625 9.28125 18.015625 
L 9.28125 47.703125 
L 2.6875 47.703125 
L 2.6875 54.6875 
L 9.28125 54.6875 
L 9.28125 70.21875 
z
" id="DejaVuSans-116"/>
      <path d="M 9.421875 54.6875 
L 18.40625 54.6875 
L 18.40625 0 
L 9.421875 0 
z
M 9.421875 75.984375 
L 18.40625 75.984375 
L 18.40625 64.59375 
L 9.421875 64.59375 
z
" id="DejaVuSans-105"/>
      <path d="M 52 44.1875 
Q 55.375 50.25 60.0625 53.125 
Q 64.75 56 71.09375 56 
Q 79.640625 56 84.28125 50.015625 
Q 88.921875 44.046875 88.921875 33.015625 
L 88.921875 0 
L 79.890625 0 
L 79.890625 32.71875 
Q 79.890625 40.578125 77.09375 44.375 
Q 74.3125 48.1875 68.609375 48.1875 
Q 61.625 48.1875 57.5625 43.546875 
Q 53.515625 38.921875 53.515625 30.90625 
L 53.515625 0 
L 44.484375 0 
L 44.484375 32.71875 
Q 44.484375 40.625 41.703125 44.40625 
Q 38.921875 48.1875 33.109375 48.1875 
Q 26.21875 48.1875 22.15625 43.53125 
Q 18.109375 38.875 18.109375 30.90625 
L 18.109375 0 
L 9.078125 0 
L 9.078125 54.6875 
L 18.109375 54.6875 
L 18.109375 46.1875 
Q 21.1875 51.21875 25.484375 53.609375 
Q 29.78125 56 35.6875 56 
Q 41.65625 56 45.828125 52.96875 
Q 50 49.953125 52 44.1875 
z
" id="DejaVuSans-109"/>
      <path d="M 34.28125 27.484375 
Q 23.390625 27.484375 19.1875 25 
Q 14.984375 22.515625 14.984375 16.5 
Q 14.984375 11.71875 18.140625 8.90625 
Q 21.296875 6.109375 26.703125 6.109375 
Q 34.1875 6.109375 38.703125 11.40625 
Q 43.21875 16.703125 43.21875 25.484375 
L 43.21875 27.484375 
z
M 52.203125 31.203125 
L 52.203125 0 
L 43.21875 0 
L 43.21875 8.296875 
Q 40.140625 3.328125 35.546875 0.953125 
Q 30.953125 -1.421875 24.3125 -1.421875 
Q 15.921875 -1.421875 10.953125 3.296875 
Q 6 8.015625 6 15.921875 
Q 6 25.140625 12.171875 29.828125 
Q 18.359375 34.515625 30.609375 34.515625 
L 43.21875 34.515625 
L 43.21875 35.40625 
Q 43.21875 41.609375 39.140625 45 
Q 35.0625 48.390625 27.6875 48.390625 
Q 23 48.390625 18.546875 47.265625 
Q 14.109375 46.140625 10.015625 43.890625 
L 10.015625 52.203125 
Q 14.9375 54.109375 19.578125 55.046875 
Q 24.21875 56 28.609375 56 
Q 40.484375 56 46.34375 49.84375 
Q 52.203125 43.703125 52.203125 31.203125 
z
" id="DejaVuSans-97"/>
      <path d="M 9.421875 75.984375 
L 18.40625 75.984375 
L 18.40625 0 
L 9.421875 0 
z
" id="DejaVuSans-108"/>
      <path d="M 32.171875 -5.078125 
Q 28.375 -14.84375 24.75 -17.8125 
Q 21.140625 -20.796875 15.09375 -20.796875 
L 7.90625 -20.796875 
L 7.90625 -13.28125 
L 13.1875 -13.28125 
Q 16.890625 -13.28125 18.9375 -11.515625 
Q 21 -9.765625 23.484375 -3.21875 
L 25.09375 0.875 
L 2.984375 54.6875 
L 12.5 54.6875 
L 29.59375 11.921875 
L 46.6875 54.6875 
L 56.203125 54.6875 
z
" id="DejaVuSans-121"/>
     </defs>
     <g transform="translate(313.879375 58.070437)scale(0.1 -0.1)">
      <use xlink:href="#DejaVuSans-69"/>
      <use x="63.183594" xlink:href="#DejaVuSans-100"/>
      <use x="126.660156" xlink:href="#DejaVuSans-103"/>
      <use x="190.136719" xlink:href="#DejaVuSans-101"/>
      <use x="251.660156" xlink:href="#DejaVuSans-32"/>
      <use x="283.447266" xlink:href="#DejaVuSans-68"/>
      <use x="360.449219" xlink:href="#DejaVuSans-45"/>
      <use x="396.564453" xlink:href="#DejaVuSans-79"/>
      <use x="475.275391" xlink:href="#DejaVuSans-112"/>
      <use x="538.751953" xlink:href="#DejaVuSans-116"/>
      <use x="577.960938" xlink:href="#DejaVuSans-105"/>
      <use x="605.744141" xlink:href="#DejaVuSans-109"/>
      <use x="703.15625" xlink:href="#DejaVuSans-97"/>
      <use x="764.435547" xlink:href="#DejaVuSans-108"/>
      <use x="792.21875" xlink:href="#DejaVuSans-105"/>
      <use x="820.001953" xlink:href="#DejaVuSans-116"/>
      <use x="859.210938" xlink:href="#DejaVuSans-121"/>
     </g>
    </g>
    <g id="line2d_33">
     <path d="M 285.879375 69.248562 
L 305.879375 69.248562 
" style="fill:none;stroke:#ff7f0e;stroke-linecap:square;stroke-width:1.5;"/>
    </g>
    <g id="line2d_34"/>
    <g id="text_16">
     <!-- Running Average -->
     <defs>
      <path d="M 44.390625 34.1875 
Q 47.5625 33.109375 50.5625 29.59375 
Q 53.5625 26.078125 56.59375 19.921875 
L 66.609375 0 
L 56 0 
L 46.6875 18.703125 
Q 43.0625 26.03125 39.671875 28.421875 
Q 36.28125 30.8125 30.421875 30.8125 
L 19.671875 30.8125 
L 19.671875 0 
L 9.8125 0 
L 9.8125 72.90625 
L 32.078125 72.90625 
Q 44.578125 72.90625 50.734375 67.671875 
Q 56.890625 62.453125 56.890625 51.90625 
Q 56.890625 45.015625 53.6875 40.46875 
Q 50.484375 35.9375 44.390625 34.1875 
z
M 19.671875 64.796875 
L 19.671875 38.921875 
L 32.078125 38.921875 
Q 39.203125 38.921875 42.84375 42.21875 
Q 46.484375 45.515625 46.484375 51.90625 
Q 46.484375 58.296875 42.84375 61.546875 
Q 39.203125 64.796875 32.078125 64.796875 
z
" id="DejaVuSans-82"/>
      <path d="M 8.5 21.578125 
L 8.5 54.6875 
L 17.484375 54.6875 
L 17.484375 21.921875 
Q 17.484375 14.15625 20.5 10.265625 
Q 23.53125 6.390625 29.59375 6.390625 
Q 36.859375 6.390625 41.078125 11.03125 
Q 45.3125 15.671875 45.3125 23.6875 
L 45.3125 54.6875 
L 54.296875 54.6875 
L 54.296875 0 
L 45.3125 0 
L 45.3125 8.40625 
Q 42.046875 3.421875 37.71875 1 
Q 33.40625 -1.421875 27.6875 -1.421875 
Q 18.265625 -1.421875 13.375 4.4375 
Q 8.5 10.296875 8.5 21.578125 
z
M 31.109375 56 
z
" id="DejaVuSans-117"/>
      <path d="M 54.890625 33.015625 
L 54.890625 0 
L 45.90625 0 
L 45.90625 32.71875 
Q 45.90625 40.484375 42.875 44.328125 
Q 39.84375 48.1875 33.796875 48.1875 
Q 26.515625 48.1875 22.3125 43.546875 
Q 18.109375 38.921875 18.109375 30.90625 
L 18.109375 0 
L 9.078125 0 
L 9.078125 54.6875 
L 18.109375 54.6875 
L 18.109375 46.1875 
Q 21.34375 51.125 25.703125 53.5625 
Q 30.078125 56 35.796875 56 
Q 45.21875 56 50.046875 50.171875 
Q 54.890625 44.34375 54.890625 33.015625 
z
" id="DejaVuSans-110"/>
      <path d="M 34.1875 63.1875 
L 20.796875 26.90625 
L 47.609375 26.90625 
z
M 28.609375 72.90625 
L 39.796875 72.90625 
L 67.578125 0 
L 57.328125 0 
L 50.6875 18.703125 
L 17.828125 18.703125 
L 11.1875 0 
L 0.78125 0 
z
" id="DejaVuSans-65"/>
      <path d="M 2.984375 54.6875 
L 12.5 54.6875 
L 29.59375 8.796875 
L 46.6875 54.6875 
L 56.203125 54.6875 
L 35.6875 0 
L 23.484375 0 
z
" id="DejaVuSans-118"/>
      <path d="M 41.109375 46.296875 
Q 39.59375 47.171875 37.8125 47.578125 
Q 36.03125 48 33.890625 48 
Q 26.265625 48 22.1875 43.046875 
Q 18.109375 38.09375 18.109375 28.8125 
L 18.109375 0 
L 9.078125 0 
L 9.078125 54.6875 
L 18.109375 54.6875 
L 18.109375 46.1875 
Q 20.953125 51.171875 25.484375 53.578125 
Q 30.03125 56 36.53125 56 
Q 37.453125 56 38.578125 55.875 
Q 39.703125 55.765625 41.0625 55.515625 
z
" id="DejaVuSans-114"/>
     </defs>
     <g transform="translate(313.879375 72.748562)scale(0.1 -0.1)">
      <use xlink:href="#DejaVuSans-82"/>
      <use x="69.419922" xlink:href="#DejaVuSans-117"/>
      <use x="132.798828" xlink:href="#DejaVuSans-110"/>
      <use x="196.177734" xlink:href="#DejaVuSans-110"/>
      <use x="259.556641" xlink:href="#DejaVuSans-105"/>
      <use x="287.339844" xlink:href="#DejaVuSans-110"/>
      <use x="350.71875" xlink:href="#DejaVuSans-103"/>
      <use x="414.195312" xlink:href="#DejaVuSans-32"/>
      <use x="445.982422" xlink:href="#DejaVuSans-65"/>
      <use x="514.3125" xlink:href="#DejaVuSans-118"/>
      <use x="573.492188" xlink:href="#DejaVuSans-101"/>
      <use x="635.015625" xlink:href="#DejaVuSans-114"/>
      <use x="676.128906" xlink:href="#DejaVuSans-97"/>
      <use x="737.408203" xlink:href="#DejaVuSans-103"/>
      <use x="800.884766" xlink:href="#DejaVuSans-101"/>
     </g>
    </g>
   </g>
  </g>
  <g id="text_17">
   <!-- D-Optimality -->
   <g transform="translate(179.605 19.0695)scale(0.16 -0.16)">
    <use xlink:href="#DejaVuSans-68"/>
    <use x="77.001953" xlink:href="#DejaVuSans-45"/>
    <use x="113.117188" xlink:href="#DejaVuSans-79"/>
    <use x="191.828125" xlink:href="#DejaVuSans-112"/>
    <use x="255.304688" xlink:href="#DejaVuSans-116"/>
    <use x="294.513672" xlink:href="#DejaVuSans-105"/>
    <use x="322.296875" xlink:href="#DejaVuSans-109"/>
    <use x="419.708984" xlink:href="#DejaVuSans-97"/>
    <use x="480.988281" xlink:href="#DejaVuSans-108"/>
    <use x="508.771484" xlink:href="#DejaVuSans-105"/>
    <use x="536.554688" xlink:href="#DejaVuSans-116"/>
    <use x="575.763672" xlink:href="#DejaVuSans-121"/>
   </g>
  </g>
 </g>
 <defs>
  <clipPath id="pdd5fb4ed7e">
   <rect height="266.112" width="357.12" x="57.6" y="41.472"/>
  </clipPath>
 </defs>
</svg>
