<?xml version="1.0" encoding="utf-8" standalone="no"?>
<!DOCTYPE svg PUBLIC "-//W3C//DTD SVG 1.1//EN"
  "http://www.w3.org/Graphics/SVG/1.1/DTD/svg11.dtd">
<!-- Created with matplotlib (https://matplotlib.org/) -->
<svg height="345.6pt" version="1.1" viewBox="0 0 460.8 345.6" width="460.8pt" xmlns="http://www.w3.org/2000/svg" xmlns:xlink="http://www.w3.org/1999/xlink">
 <defs>
  <style type="text/css">
*{stroke-linecap:butt;stroke-linejoin:round;}
  </style>
 </defs>
 <g id="figure_1">
  <g id="patch_1">
   <path d="M 0 345.6 
L 460.8 345.6 
L 460.8 0 
L 0 0 
z
" style="fill:#ffffff;"/>
  </g>
  <g id="axes_1">
   <g id="patch_2">
    <path d="M 57.6 307.584 
L 414.72 307.584 
L 414.72 41.472 
L 57.6 41.472 
z
" style="fill:#ffffff;"/>
   </g>
   <g id="matplotlib.axis_1">
    <g id="xtick_1">
     <g id="line2d_1">
      <path clip-path="url(#pfb0919e794)" d="M 73.832727 307.584 
L 73.832727 41.472 
" style="fill:none;stroke:#b0b0b0;stroke-linecap:square;stroke-width:0.8;"/>
     </g>
     <g id="line2d_2">
      <defs>
       <path d="M 0 0 
L 0 3.5 
" id="mf12422a305" style="stroke:#000000;stroke-width:0.8;"/>
      </defs>
      <g>
       <use style="stroke:#000000;stroke-width:0.8;" x="73.832727" xlink:href="#mf12422a305" y="307.584"/>
      </g>
     </g>
     <g id="text_1">
      <!-- 0 -->
      <defs>
       <path d="M 31.78125 66.40625 
Q 24.171875 66.40625 20.328125 58.90625 
Q 16.5 51.421875 16.5 36.375 
Q 16.5 21.390625 20.328125 13.890625 
Q 24.171875 6.390625 31.78125 6.390625 
Q 39.453125 6.390625 43.28125 13.890625 
Q 47.125 21.390625 47.125 36.375 
Q 47.125 51.421875 43.28125 58.90625 
Q 39.453125 66.40625 31.78125 66.40625 
z
M 31.78125 74.21875 
Q 44.046875 74.21875 50.515625 64.515625 
Q 56.984375 54.828125 56.984375 36.375 
Q 56.984375 17.96875 50.515625 8.265625 
Q 44.046875 -1.421875 31.78125 -1.421875 
Q 19.53125 -1.421875 13.0625 8.265625 
Q 6.59375 17.96875 6.59375 36.375 
Q 6.59375 54.828125 13.0625 64.515625 
Q 19.53125 74.21875 31.78125 74.21875 
z
" id="DejaVuSans-48"/>
      </defs>
      <g transform="translate(70.651477 322.182437)scale(0.1 -0.1)">
       <use xlink:href="#DejaVuSans-48"/>
      </g>
     </g>
    </g>
    <g id="xtick_2">
     <g id="line2d_3">
      <path clip-path="url(#pfb0919e794)" d="M 120.639899 307.584 
L 120.639899 41.472 
" style="fill:none;stroke:#b0b0b0;stroke-linecap:square;stroke-width:0.8;"/>
     </g>
     <g id="line2d_4">
      <g>
       <use style="stroke:#000000;stroke-width:0.8;" x="120.639899" xlink:href="#mf12422a305" y="307.584"/>
      </g>
     </g>
     <g id="text_2">
      <!-- 250 -->
      <defs>
       <path d="M 19.1875 8.296875 
L 53.609375 8.296875 
L 53.609375 0 
L 7.328125 0 
L 7.328125 8.296875 
Q 12.9375 14.109375 22.625 23.890625 
Q 32.328125 33.6875 34.8125 36.53125 
Q 39.546875 41.84375 41.421875 45.53125 
Q 43.3125 49.21875 43.3125 52.78125 
Q 43.3125 58.59375 39.234375 62.25 
Q 35.15625 65.921875 28.609375 65.921875 
Q 23.96875 65.921875 18.8125 64.3125 
Q 13.671875 62.703125 7.8125 59.421875 
L 7.8125 69.390625 
Q 13.765625 71.78125 18.9375 73 
Q 24.125 74.21875 28.421875 74.21875 
Q 39.75 74.21875 46.484375 68.546875 
Q 53.21875 62.890625 53.21875 53.421875 
Q 53.21875 48.921875 51.53125 44.890625 
Q 49.859375 40.875 45.40625 35.40625 
Q 44.1875 33.984375 37.640625 27.21875 
Q 31.109375 20.453125 19.1875 8.296875 
z
" id="DejaVuSans-50"/>
       <path d="M 10.796875 72.90625 
L 49.515625 72.90625 
L 49.515625 64.59375 
L 19.828125 64.59375 
L 19.828125 46.734375 
Q 21.96875 47.46875 24.109375 47.828125 
Q 26.265625 48.1875 28.421875 48.1875 
Q 40.625 48.1875 47.75 41.5 
Q 54.890625 34.8125 54.890625 23.390625 
Q 54.890625 11.625 47.5625 5.09375 
Q 40.234375 -1.421875 26.90625 -1.421875 
Q 22.3125 -1.421875 17.546875 -0.640625 
Q 12.796875 0.140625 7.71875 1.703125 
L 7.71875 11.625 
Q 12.109375 9.234375 16.796875 8.0625 
Q 21.484375 6.890625 26.703125 6.890625 
Q 35.15625 6.890625 40.078125 11.328125 
Q 45.015625 15.765625 45.015625 23.390625 
Q 45.015625 31 40.078125 35.4375 
Q 35.15625 39.890625 26.703125 39.890625 
Q 22.75 39.890625 18.8125 39.015625 
Q 14.890625 38.140625 10.796875 36.28125 
z
" id="DejaVuSans-53"/>
      </defs>
      <g transform="translate(111.096149 322.182437)scale(0.1 -0.1)">
       <use xlink:href="#DejaVuSans-50"/>
       <use x="63.623047" xlink:href="#DejaVuSans-53"/>
       <use x="127.246094" xlink:href="#DejaVuSans-48"/>
      </g>
     </g>
    </g>
    <g id="xtick_3">
     <g id="line2d_5">
      <path clip-path="url(#pfb0919e794)" d="M 167.447071 307.584 
L 167.447071 41.472 
" style="fill:none;stroke:#b0b0b0;stroke-linecap:square;stroke-width:0.8;"/>
     </g>
     <g id="line2d_6">
      <g>
       <use style="stroke:#000000;stroke-width:0.8;" x="167.447071" xlink:href="#mf12422a305" y="307.584"/>
      </g>
     </g>
     <g id="text_3">
      <!-- 500 -->
      <g transform="translate(157.903321 322.182437)scale(0.1 -0.1)">
       <use xlink:href="#DejaVuSans-53"/>
       <use x="63.623047" xlink:href="#DejaVuSans-48"/>
       <use x="127.246094" xlink:href="#DejaVuSans-48"/>
      </g>
     </g>
    </g>
    <g id="xtick_4">
     <g id="line2d_7">
      <path clip-path="url(#pfb0919e794)" d="M 214.254243 307.584 
L 214.254243 41.472 
" style="fill:none;stroke:#b0b0b0;stroke-linecap:square;stroke-width:0.8;"/>
     </g>
     <g id="line2d_8">
      <g>
       <use style="stroke:#000000;stroke-width:0.8;" x="214.254243" xlink:href="#mf12422a305" y="307.584"/>
      </g>
     </g>
     <g id="text_4">
      <!-- 750 -->
      <defs>
       <path d="M 8.203125 72.90625 
L 55.078125 72.90625 
L 55.078125 68.703125 
L 28.609375 0 
L 18.3125 0 
L 43.21875 64.59375 
L 8.203125 64.59375 
z
" id="DejaVuSans-55"/>
      </defs>
      <g transform="translate(204.710493 322.182437)scale(0.1 -0.1)">
       <use xlink:href="#DejaVuSans-55"/>
       <use x="63.623047" xlink:href="#DejaVuSans-53"/>
       <use x="127.246094" xlink:href="#DejaVuSans-48"/>
      </g>
     </g>
    </g>
    <g id="xtick_5">
     <g id="line2d_9">
      <path clip-path="url(#pfb0919e794)" d="M 261.061416 307.584 
L 261.061416 41.472 
" style="fill:none;stroke:#b0b0b0;stroke-linecap:square;stroke-width:0.8;"/>
     </g>
     <g id="line2d_10">
      <g>
       <use style="stroke:#000000;stroke-width:0.8;" x="261.061416" xlink:href="#mf12422a305" y="307.584"/>
      </g>
     </g>
     <g id="text_5">
      <!-- 1000 -->
      <defs>
       <path d="M 12.40625 8.296875 
L 28.515625 8.296875 
L 28.515625 63.921875 
L 10.984375 60.40625 
L 10.984375 69.390625 
L 28.421875 72.90625 
L 38.28125 72.90625 
L 38.28125 8.296875 
L 54.390625 8.296875 
L 54.390625 0 
L 12.40625 0 
z
" id="DejaVuSans-49"/>
      </defs>
      <g transform="translate(248.336416 322.182437)scale(0.1 -0.1)">
       <use xlink:href="#DejaVuSans-49"/>
       <use x="63.623047" xlink:href="#DejaVuSans-48"/>
       <use x="127.246094" xlink:href="#DejaVuSans-48"/>
       <use x="190.869141" xlink:href="#DejaVuSans-48"/>
      </g>
     </g>
    </g>
    <g id="xtick_6">
     <g id="line2d_11">
      <path clip-path="url(#pfb0919e794)" d="M 307.868588 307.584 
L 307.868588 41.472 
" style="fill:none;stroke:#b0b0b0;stroke-linecap:square;stroke-width:0.8;"/>
     </g>
     <g id="line2d_12">
      <g>
       <use style="stroke:#000000;stroke-width:0.8;" x="307.868588" xlink:href="#mf12422a305" y="307.584"/>
      </g>
     </g>
     <g id="text_6">
      <!-- 1250 -->
      <g transform="translate(295.143588 322.182437)scale(0.1 -0.1)">
       <use xlink:href="#DejaVuSans-49"/>
       <use x="63.623047" xlink:href="#DejaVuSans-50"/>
       <use x="127.246094" xlink:href="#DejaVuSans-53"/>
       <use x="190.869141" xlink:href="#DejaVuSans-48"/>
      </g>
     </g>
    </g>
    <g id="xtick_7">
     <g id="line2d_13">
      <path clip-path="url(#pfb0919e794)" d="M 354.67576 307.584 
L 354.67576 41.472 
" style="fill:none;stroke:#b0b0b0;stroke-linecap:square;stroke-width:0.8;"/>
     </g>
     <g id="line2d_14">
      <g>
       <use style="stroke:#000000;stroke-width:0.8;" x="354.67576" xlink:href="#mf12422a305" y="307.584"/>
      </g>
     </g>
     <g id="text_7">
      <!-- 1500 -->
      <g transform="translate(341.95076 322.182437)scale(0.1 -0.1)">
       <use xlink:href="#DejaVuSans-49"/>
       <use x="63.623047" xlink:href="#DejaVuSans-53"/>
       <use x="127.246094" xlink:href="#DejaVuSans-48"/>
       <use x="190.869141" xlink:href="#DejaVuSans-48"/>
      </g>
     </g>
    </g>
    <g id="xtick_8">
     <g id="line2d_15">
      <path clip-path="url(#pfb0919e794)" d="M 401.482932 307.584 
L 401.482932 41.472 
" style="fill:none;stroke:#b0b0b0;stroke-linecap:square;stroke-width:0.8;"/>
     </g>
     <g id="line2d_16">
      <g>
       <use style="stroke:#000000;stroke-width:0.8;" x="401.482932" xlink:href="#mf12422a305" y="307.584"/>
      </g>
     </g>
     <g id="text_8">
      <!-- 1750 -->
      <g transform="translate(388.757932 322.182437)scale(0.1 -0.1)">
       <use xlink:href="#DejaVuSans-49"/>
       <use x="63.623047" xlink:href="#DejaVuSans-55"/>
       <use x="127.246094" xlink:href="#DejaVuSans-53"/>
       <use x="190.869141" xlink:href="#DejaVuSans-48"/>
      </g>
     </g>
    </g>
   </g>
   <g id="matplotlib.axis_2">
    <g id="ytick_1">
     <g id="line2d_17">
      <path clip-path="url(#pfb0919e794)" d="M 57.6 307.584 
L 414.72 307.584 
" style="fill:none;stroke:#b0b0b0;stroke-linecap:square;stroke-width:0.8;"/>
     </g>
     <g id="line2d_18">
      <defs>
       <path d="M 0 0 
L -3.5 0 
" id="m34bbc5796c" style="stroke:#000000;stroke-width:0.8;"/>
      </defs>
      <g>
       <use style="stroke:#000000;stroke-width:0.8;" x="57.6" xlink:href="#m34bbc5796c" y="307.584"/>
      </g>
     </g>
     <g id="text_9">
      <!-- 0.0 -->
      <defs>
       <path d="M 10.6875 12.40625 
L 21 12.40625 
L 21 0 
L 10.6875 0 
z
" id="DejaVuSans-46"/>
      </defs>
      <g transform="translate(34.696875 311.383219)scale(0.1 -0.1)">
       <use xlink:href="#DejaVuSans-48"/>
       <use x="63.623047" xlink:href="#DejaVuSans-46"/>
       <use x="95.410156" xlink:href="#DejaVuSans-48"/>
      </g>
     </g>
    </g>
    <g id="ytick_2">
     <g id="line2d_19">
      <path clip-path="url(#pfb0919e794)" d="M 57.6 254.3616 
L 414.72 254.3616 
" style="fill:none;stroke:#b0b0b0;stroke-linecap:square;stroke-width:0.8;"/>
     </g>
     <g id="line2d_20">
      <g>
       <use style="stroke:#000000;stroke-width:0.8;" x="57.6" xlink:href="#m34bbc5796c" y="254.3616"/>
      </g>
     </g>
     <g id="text_10">
      <!-- 0.2 -->
      <g transform="translate(34.696875 258.160819)scale(0.1 -0.1)">
       <use xlink:href="#DejaVuSans-48"/>
       <use x="63.623047" xlink:href="#DejaVuSans-46"/>
       <use x="95.410156" xlink:href="#DejaVuSans-50"/>
      </g>
     </g>
    </g>
    <g id="ytick_3">
     <g id="line2d_21">
      <path clip-path="url(#pfb0919e794)" d="M 57.6 201.1392 
L 414.72 201.1392 
" style="fill:none;stroke:#b0b0b0;stroke-linecap:square;stroke-width:0.8;"/>
     </g>
     <g id="line2d_22">
      <g>
       <use style="stroke:#000000;stroke-width:0.8;" x="57.6" xlink:href="#m34bbc5796c" y="201.1392"/>
      </g>
     </g>
     <g id="text_11">
      <!-- 0.4 -->
      <defs>
       <path d="M 37.796875 64.3125 
L 12.890625 25.390625 
L 37.796875 25.390625 
z
M 35.203125 72.90625 
L 47.609375 72.90625 
L 47.609375 25.390625 
L 58.015625 25.390625 
L 58.015625 17.1875 
L 47.609375 17.1875 
L 47.609375 0 
L 37.796875 0 
L 37.796875 17.1875 
L 4.890625 17.1875 
L 4.890625 26.703125 
z
" id="DejaVuSans-52"/>
      </defs>
      <g transform="translate(34.696875 204.938419)scale(0.1 -0.1)">
       <use xlink:href="#DejaVuSans-48"/>
       <use x="63.623047" xlink:href="#DejaVuSans-46"/>
       <use x="95.410156" xlink:href="#DejaVuSans-52"/>
      </g>
     </g>
    </g>
    <g id="ytick_4">
     <g id="line2d_23">
      <path clip-path="url(#pfb0919e794)" d="M 57.6 147.9168 
L 414.72 147.9168 
" style="fill:none;stroke:#b0b0b0;stroke-linecap:square;stroke-width:0.8;"/>
     </g>
     <g id="line2d_24">
      <g>
       <use style="stroke:#000000;stroke-width:0.8;" x="57.6" xlink:href="#m34bbc5796c" y="147.9168"/>
      </g>
     </g>
     <g id="text_12">
      <!-- 0.6 -->
      <defs>
       <path d="M 33.015625 40.375 
Q 26.375 40.375 22.484375 35.828125 
Q 18.609375 31.296875 18.609375 23.390625 
Q 18.609375 15.53125 22.484375 10.953125 
Q 26.375 6.390625 33.015625 6.390625 
Q 39.65625 6.390625 43.53125 10.953125 
Q 47.40625 15.53125 47.40625 23.390625 
Q 47.40625 31.296875 43.53125 35.828125 
Q 39.65625 40.375 33.015625 40.375 
z
M 52.59375 71.296875 
L 52.59375 62.3125 
Q 48.875 64.0625 45.09375 64.984375 
Q 41.3125 65.921875 37.59375 65.921875 
Q 27.828125 65.921875 22.671875 59.328125 
Q 17.53125 52.734375 16.796875 39.40625 
Q 19.671875 43.65625 24.015625 45.921875 
Q 28.375 48.1875 33.59375 48.1875 
Q 44.578125 48.1875 50.953125 41.515625 
Q 57.328125 34.859375 57.328125 23.390625 
Q 57.328125 12.15625 50.6875 5.359375 
Q 44.046875 -1.421875 33.015625 -1.421875 
Q 20.359375 -1.421875 13.671875 8.265625 
Q 6.984375 17.96875 6.984375 36.375 
Q 6.984375 53.65625 15.1875 63.9375 
Q 23.390625 74.21875 37.203125 74.21875 
Q 40.921875 74.21875 44.703125 73.484375 
Q 48.484375 72.75 52.59375 71.296875 
z
" id="DejaVuSans-54"/>
      </defs>
      <g transform="translate(34.696875 151.716019)scale(0.1 -0.1)">
       <use xlink:href="#DejaVuSans-48"/>
       <use x="63.623047" xlink:href="#DejaVuSans-46"/>
       <use x="95.410156" xlink:href="#DejaVuSans-54"/>
      </g>
     </g>
    </g>
    <g id="ytick_5">
     <g id="line2d_25">
      <path clip-path="url(#pfb0919e794)" d="M 57.6 94.6944 
L 414.72 94.6944 
" style="fill:none;stroke:#b0b0b0;stroke-linecap:square;stroke-width:0.8;"/>
     </g>
     <g id="line2d_26">
      <g>
       <use style="stroke:#000000;stroke-width:0.8;" x="57.6" xlink:href="#m34bbc5796c" y="94.6944"/>
      </g>
     </g>
     <g id="text_13">
      <!-- 0.8 -->
      <defs>
       <path d="M 31.78125 34.625 
Q 24.75 34.625 20.71875 30.859375 
Q 16.703125 27.09375 16.703125 20.515625 
Q 16.703125 13.921875 20.71875 10.15625 
Q 24.75 6.390625 31.78125 6.390625 
Q 38.8125 6.390625 42.859375 10.171875 
Q 46.921875 13.96875 46.921875 20.515625 
Q 46.921875 27.09375 42.890625 30.859375 
Q 38.875 34.625 31.78125 34.625 
z
M 21.921875 38.8125 
Q 15.578125 40.375 12.03125 44.71875 
Q 8.5 49.078125 8.5 55.328125 
Q 8.5 64.0625 14.71875 69.140625 
Q 20.953125 74.21875 31.78125 74.21875 
Q 42.671875 74.21875 48.875 69.140625 
Q 55.078125 64.0625 55.078125 55.328125 
Q 55.078125 49.078125 51.53125 44.71875 
Q 48 40.375 41.703125 38.8125 
Q 48.828125 37.15625 52.796875 32.3125 
Q 56.78125 27.484375 56.78125 20.515625 
Q 56.78125 9.90625 50.3125 4.234375 
Q 43.84375 -1.421875 31.78125 -1.421875 
Q 19.734375 -1.421875 13.25 4.234375 
Q 6.78125 9.90625 6.78125 20.515625 
Q 6.78125 27.484375 10.78125 32.3125 
Q 14.796875 37.15625 21.921875 38.8125 
z
M 18.3125 54.390625 
Q 18.3125 48.734375 21.84375 45.5625 
Q 25.390625 42.390625 31.78125 42.390625 
Q 38.140625 42.390625 41.71875 45.5625 
Q 45.3125 48.734375 45.3125 54.390625 
Q 45.3125 60.0625 41.71875 63.234375 
Q 38.140625 66.40625 31.78125 66.40625 
Q 25.390625 66.40625 21.84375 63.234375 
Q 18.3125 60.0625 18.3125 54.390625 
z
" id="DejaVuSans-56"/>
      </defs>
      <g transform="translate(34.696875 98.493619)scale(0.1 -0.1)">
       <use xlink:href="#DejaVuSans-48"/>
       <use x="63.623047" xlink:href="#DejaVuSans-46"/>
       <use x="95.410156" xlink:href="#DejaVuSans-56"/>
      </g>
     </g>
    </g>
    <g id="ytick_6">
     <g id="line2d_27">
      <path clip-path="url(#pfb0919e794)" d="M 57.6 41.472 
L 414.72 41.472 
" style="fill:none;stroke:#b0b0b0;stroke-linecap:square;stroke-width:0.8;"/>
     </g>
     <g id="line2d_28">
      <g>
       <use style="stroke:#000000;stroke-width:0.8;" x="57.6" xlink:href="#m34bbc5796c" y="41.472"/>
      </g>
     </g>
     <g id="text_14">
      <!-- 1.0 -->
      <g transform="translate(34.696875 45.271219)scale(0.1 -0.1)">
       <use xlink:href="#DejaVuSans-49"/>
       <use x="63.623047" xlink:href="#DejaVuSans-46"/>
       <use x="95.410156" xlink:href="#DejaVuSans-48"/>
      </g>
     </g>
    </g>
   </g>
   <g id="line2d_29">
    <path clip-path="url(#pfb0919e794)" d="M 73.832727 92.985193 
L 74.019956 158.435632 
L 74.207185 180.588903 
L 74.394413 166.599187 
L 74.581642 135.872032 
L 75.143328 265.830006 
L 75.705014 292.369571 
L 75.892243 275.086189 
L 76.079472 238.301565 
L 76.2667 281.831674 
L 76.453929 262.54462 
L 76.828386 188.7812 
L 77.015615 184.386551 
L 77.202844 169.06577 
L 77.390072 185.391505 
L 77.577301 186.877233 
L 77.76453 209.067935 
L 77.951758 198.573262 
L 78.138987 221.042617 
L 78.326216 208.668411 
L 78.513444 182.582325 
L 78.700673 196.221126 
L 78.887902 196.221089 
L 79.075131 210.353325 
L 79.262359 210.353362 
L 79.449588 231.800978 
L 79.636817 231.800978 
L 79.824045 186.311944 
L 80.57296 250.732585 
L 80.760189 246.410273 
L 81.134646 204.103095 
L 81.321875 204.103132 
L 81.509103 200.911176 
L 81.696332 200.911213 
L 81.883561 221.337163 
L 82.07079 221.337014 
L 82.258018 216.264374 
L 82.445247 216.264114 
L 82.632476 206.803621 
L 82.819704 206.803547 
L 83.006933 207.005592 
L 83.194162 207.005592 
L 83.38139 205.606387 
L 83.568619 205.606349 
L 83.755848 180.533314 
L 84.504763 229.773578 
L 84.691991 222.862995 
L 84.87922 222.862995 
L 85.066449 217.947914 
L 85.253677 217.947914 
L 85.440906 218.596718 
L 85.628135 218.596606 
L 85.815363 230.638426 
L 86.002592 230.638463 
L 86.189821 255.891227 
L 86.377049 255.891227 
L 86.564278 256.872899 
L 86.751507 256.872899 
L 86.938735 261.938558 
L 87.125964 261.938558 
L 87.313193 222.024846 
L 87.500422 222.024883 
L 87.68765 230.032698 
L 87.874879 230.032735 
L 88.062108 241.942136 
L 88.249336 241.942136 
L 88.436565 272.369509 
L 88.623794 267.937503 
L 88.811022 275.493585 
L 88.998251 274.08439 
L 89.372708 275.348799 
L 89.559937 272.689343 
L 89.747166 271.807302 
L 89.934394 267.818378 
L 90.308852 274.866356 
L 90.496081 274.177076 
L 90.683309 273.06343 
L 90.870538 275.086708 
L 91.244995 265.935763 
L 91.432224 274.477155 
L 91.806681 249.822619 
L 91.99391 249.228996 
L 92.181139 241.584685 
L 92.368367 224.562094 
L 92.555596 223.482166 
L 92.742825 224.041885 
L 92.930053 223.360589 
L 93.117282 218.866867 
L 93.304511 217.964996 
L 93.49174 210.975986 
L 93.678968 220.775216 
L 93.866197 211.508858 
L 94.053426 184.594315 
L 94.240654 185.712639 
L 94.427883 147.257881 
L 94.615112 201.237137 
L 94.80234 201.2371 
L 95.176798 241.554495 
L 95.364026 241.554495 
L 95.738484 273.432059 
L 95.925712 276.881501 
L 96.30017 290.666164 
L 96.487399 290.666201 
L 96.674627 297.338384 
L 96.861856 297.338384 
L 97.049085 301.854201 
L 97.236313 303.193733 
L 97.423542 303.193733 
L 97.610771 302.035786 
L 97.797999 302.035786 
L 97.985228 302.38633 
L 98.172457 302.456885 
L 98.359685 287.624229 
L 98.546914 287.624229 
L 98.734143 264.985692 
L 98.921372 259.726157 
L 99.295829 272.018817 
L 99.483058 260.596056 
L 99.670286 219.254545 
L 99.857515 219.254508 
L 100.044744 153.933703 
L 100.231972 153.933815 
L 100.419201 133.387179 
L 100.60643 133.387142 
L 100.793658 172.485877 
L 100.980887 172.485951 
L 101.168116 174.298494 
L 101.355344 164.173452 
L 101.542573 164.173415 
L 101.729802 135.770099 
L 101.917031 135.770173 
L 102.104259 165.430212 
L 102.291488 165.4301 
L 102.478717 144.160839 
L 102.665945 144.160765 
L 102.853174 171.005496 
L 103.040403 171.005496 
L 103.227631 174.69824 
L 103.41486 184.49565 
L 103.602089 164.795816 
L 103.976546 231.24616 
L 104.163775 231.246048 
L 104.351003 254.407059 
L 104.538232 254.407171 
L 104.725461 267.966616 
L 104.91269 267.966579 
L 105.099918 270.189303 
L 105.287147 270.189378 
L 105.474376 274.066491 
L 105.661604 274.066417 
L 105.848833 276.310456 
L 106.036062 276.310456 
L 106.22329 271.286387 
L 106.410519 271.286499 
L 106.597748 263.744974 
L 106.784976 263.7449 
L 106.972205 282.253255 
L 107.159434 282.253255 
L 107.346662 272.072326 
L 107.533891 272.072438 
L 107.72112 273.394813 
L 107.908349 273.394888 
L 108.095577 250.442829 
L 108.282806 250.442829 
L 108.470035 229.768008 
L 108.657263 229.768045 
L 108.844492 229.61613 
L 109.031721 229.779222 
L 109.218949 231.33996 
L 109.406178 231.339923 
L 109.593407 214.573445 
L 109.780635 214.573296 
L 109.967864 220.167668 
L 110.155093 220.167593 
L 110.52955 209.682984 
L 110.716779 208.13476 
L 110.904008 208.134871 
L 111.091236 212.347639 
L 111.278465 203.857974 
L 111.465694 211.927134 
L 111.652922 190.431765 
L 111.840151 188.019138 
L 112.02738 188.874183 
L 112.214608 163.218888 
L 112.401837 203.162716 
L 112.589066 199.613086 
L 112.776294 157.866629 
L 112.963523 177.752801 
L 113.150752 173.356889 
L 113.33798 187.597371 
L 113.525209 183.765003 
L 113.712438 183.765003 
L 113.899667 144.808046 
L 114.086895 144.808343 
L 114.274124 142.296346 
L 114.461353 188.416248 
L 114.648581 176.737412 
L 114.83581 214.710877 
L 115.023039 211.420294 
L 115.210267 237.156244 
L 115.397496 237.156207 
L 115.584725 216.989377 
L 115.771953 227.443834 
L 115.959182 227.443834 
L 116.146411 216.653909 
L 116.33364 216.653909 
L 116.708097 247.014776 
L 116.895326 254.259044 
L 117.082554 218.874665 
L 117.457012 200.092262 
L 117.64424 170.100209 
L 117.831469 164.96225 
L 118.018698 188.881424 
L 118.393155 126.363969 
L 118.580384 216.382237 
L 118.767612 234.865156 
L 119.14207 176.299046 
L 119.516527 202.915218 
L 119.703756 193.915111 
L 119.890985 196.975093 
L 120.265442 220.466336 
L 120.639899 164.22763 
L 120.827128 176.948852 
L 121.201585 135.137634 
L 121.388814 137.043755 
L 121.576043 157.93128 
L 121.763271 157.931614 
L 121.9505 127.739409 
L 122.137729 175.7091 
L 122.324958 143.63001 
L 122.512186 142.976862 
L 122.699415 154.185285 
L 122.886644 106.915792 
L 123.073872 145.048674 
L 123.261101 159.224542 
L 123.44833 109.209071 
L 123.635558 98.572992 
L 123.822787 127.453404 
L 124.010016 127.453478 
L 124.197244 167.668495 
L 124.384473 150.79652 
L 124.571702 155.952042 
L 124.75893 164.457712 
L 124.946159 192.782378 
L 125.133388 190.838715 
L 125.320617 190.838864 
L 125.507845 172.62472 
L 125.695074 172.624535 
L 125.882303 196.27757 
L 126.069531 187.169514 
L 126.25676 191.514924 
L 126.443989 186.587032 
L 126.631217 186.586846 
L 126.818446 186.836311 
L 127.005675 211.057421 
L 127.192903 253.243877 
L 127.380132 221.797735 
L 127.567361 221.79766 
L 127.754589 225.501693 
L 128.129047 167.201239 
L 128.316276 158.496383 
L 128.503504 171.111774 
L 128.690733 50.802711 
L 128.877962 124.584773 
L 129.06519 124.584736 
L 129.252419 156.318814 
L 129.439648 156.318888 
L 129.626876 174.298605 
L 129.814105 174.298642 
L 130.001334 229.562843 
L 130.188562 229.562917 
L 130.375791 164.589574 
L 130.56302 164.589574 
L 130.750249 118.267367 
L 130.937477 118.267367 
L 131.124706 123.374059 
L 131.311935 167.835226 
L 131.499163 151.711945 
L 131.686392 169.807705 
L 131.873621 148.210403 
L 132.060849 176.863741 
L 132.248078 176.863741 
L 132.435307 175.60609 
L 132.622535 175.606053 
L 132.809764 196.842079 
L 132.996993 196.842265 
L 133.184221 213.557238 
L 133.37145 213.557238 
L 133.558679 229.399528 
L 133.745908 191.685925 
L 133.933136 191.685851 
L 134.120365 230.10574 
L 134.307594 230.105629 
L 134.494822 224.872682 
L 134.682051 224.872831 
L 134.86928 222.586682 
L 135.056508 222.586719 
L 135.243737 210.36298 
L 135.430966 210.36272 
L 135.618194 211.990782 
L 135.805423 218.563929 
L 135.992652 210.729269 
L 136.17988 196.105157 
L 136.367109 196.829268 
L 136.554338 192.497301 
L 136.741567 202.828585 
L 136.928795 165.568424 
L 137.116024 184.800334 
L 137.303253 233.914379 
L 137.490481 237.906423 
L 137.864939 231.192798 
L 138.052167 222.364844 
L 138.239396 222.364807 
L 138.426625 225.608119 
L 138.613853 219.521389 
L 138.801082 182.550502 
L 138.988311 168.137868 
L 139.175539 168.137756 
L 139.549997 133.450233 
L 139.737226 140.63219 
L 140.111683 174.592594 
L 140.298912 175.790311 
L 140.48614 175.853142 
L 140.673369 181.091436 
L 140.860598 203.815493 
L 141.047826 200.78466 
L 141.235055 227.350702 
L 141.422284 227.350739 
L 141.609512 246.727545 
L 141.796741 254.186224 
L 142.171198 300.146042 
L 142.358427 279.980771 
L 142.545656 278.085048 
L 142.732885 279.867587 
L 142.920113 282.83039 
L 143.294571 282.002973 
L 143.481799 282.127854 
L 143.669028 281.720606 
L 143.856257 285.862485 
L 144.043485 282.174754 
L 144.230714 280.885688 
L 144.605171 256.803756 
L 144.7924 226.040543 
L 144.979629 224.511183 
L 145.354086 188.94704 
L 145.541315 195.526239 
L 145.915772 189.423245 
L 146.103001 182.738288 
L 146.29023 185.790918 
L 146.477458 184.697918 
L 146.664687 198.424429 
L 146.851916 197.712721 
L 147.039144 197.721484 
L 147.226373 196.285591 
L 147.60083 212.131965 
L 147.975288 252.621847 
L 148.162517 264.353264 
L 148.349745 264.730322 
L 148.536974 279.580802 
L 148.724203 263.602194 
L 148.911431 263.602231 
L 149.09866 266.673094 
L 149.285889 266.673094 
L 149.473117 280.335734 
L 149.660346 280.335734 
L 149.847575 285.150665 
L 150.034803 285.150665 
L 150.409261 276.953653 
L 150.596489 279.55206 
L 150.783718 285.370201 
L 150.970947 286.363718 
L 151.158176 282.14876 
L 151.345404 282.943314 
L 151.532633 284.255292 
L 151.719862 284.055995 
L 151.90709 284.055995 
L 152.094319 287.334102 
L 152.281548 287.334102 
L 152.468776 286.207385 
L 152.656005 286.207385 
L 152.843234 282.758685 
L 153.030462 282.758685 
L 153.217691 278.766159 
L 153.40492 278.766159 
L 153.592148 278.259355 
L 153.779377 278.259355 
L 153.966606 279.458149 
L 154.153835 279.458149 
L 154.341063 274.265826 
L 154.528292 274.265826 
L 154.715521 273.877071 
L 154.902749 271.680861 
L 155.089978 270.965699 
L 155.277207 267.62439 
L 155.464435 272.112691 
L 155.651664 272.112654 
L 156.21335 244.625989 
L 156.400579 192.812159 
L 156.587807 192.812159 
L 156.775036 197.272201 
L 157.336722 197.167707 
L 157.523951 184.688969 
L 157.71118 184.689266 
L 157.898408 197.550928 
L 158.085637 167.123072 
L 158.272866 157.924001 
L 158.647323 217.257669 
L 159.209009 159.707728 
L 159.396238 187.332792 
L 159.583466 187.896076 
L 159.770695 220.579928 
L 159.957924 225.616623 
L 160.332381 161.701893 
L 160.51961 162.483599 
L 160.706839 162.694074 
L 160.894067 106.316896 
L 161.081296 146.846178 
L 161.268525 150.773756 
L 161.455753 142.564713 
L 161.642982 150.810965 
L 161.830211 151.177513 
L 162.017439 150.511294 
L 162.204668 126.637498 
L 162.391897 173.417455 
L 162.579126 148.9461 
L 162.766354 161.382319 
L 162.953583 156.951353 
L 163.32804 207.799478 
L 163.515269 207.799478 
L 163.702498 197.293628 
L 163.889726 197.293628 
L 164.076955 194.380324 
L 164.264184 194.38051 
L 164.451412 192.46013 
L 164.638641 192.459944 
L 164.82587 193.8033 
L 165.013098 193.8033 
L 165.200327 195.343058 
L 165.387556 195.343244 
L 165.574785 153.390731 
L 165.762013 136.468662 
L 165.949242 133.172582 
L 166.136471 142.30407 
L 166.323699 159.45778 
L 166.698157 165.393858 
L 166.885385 170.1024 
L 167.072614 170.366348 
L 167.447071 188.70437 
L 167.6343 184.243734 
L 168.008757 239.396681 
L 168.195986 239.396569 
L 168.383215 248.278962 
L 168.570444 248.279185 
L 168.757672 257.674026 
L 168.944901 257.673915 
L 169.13213 262.503105 
L 169.319358 262.503105 
L 169.506587 284.972274 
L 169.693816 284.972311 
L 170.068273 292.071348 
L 170.44273 282.052398 
L 170.629959 281.007895 
L 170.817188 282.506731 
L 171.004416 214.387738 
L 171.378874 174.159687 
L 171.566103 177.053607 
L 171.753331 158.194596 
L 171.94056 157.434428 
L 172.127789 141.189273 
L 172.315017 140.710802 
L 172.502246 120.987945 
L 173.251161 181.523192 
L 173.438389 249.101107 
L 173.625618 269.4187 
L 174.000075 277.964697 
L 174.187304 279.858267 
L 174.374533 271.139597 
L 174.561762 248.062992 
L 174.74899 276.880276 
L 174.936219 276.880313 
L 175.123448 237.699624 
L 175.310676 237.699847 
L 175.497905 213.35924 
L 175.685134 213.3595 
L 175.872362 204.005247 
L 176.059591 204.005247 
L 176.24682 188.940393 
L 176.434048 188.940318 
L 176.621277 184.707425 
L 176.808506 187.359602 
L 176.995735 192.25452 
L 177.557421 186.542174 
L 177.744649 178.201676 
L 177.931878 182.55726 
L 178.119107 180.683483 
L 178.306335 194.566625 
L 178.493564 195.494527 
L 178.680793 191.001102 
L 178.868021 182.545971 
L 179.05525 182.545897 
L 179.242479 138.843932 
L 179.429707 138.843932 
L 179.616936 170.32498 
L 179.804165 170.32524 
L 179.991394 183.794079 
L 180.178622 180.011694 
L 180.55308 155.415569 
L 180.740308 155.415643 
L 180.927537 176.145312 
L 181.114766 176.145312 
L 181.301994 154.960456 
L 181.489223 154.960493 
L 181.676452 163.988934 
L 181.86368 162.618173 
L 182.050909 223.384578 
L 182.238138 243.017051 
L 182.425366 213.706368 
L 182.612595 217.218084 
L 182.799824 207.708983 
L 182.987053 221.023716 
L 183.174281 212.85589 
L 183.36151 219.968184 
L 183.548739 211.138707 
L 183.923196 125.217646 
L 184.110425 137.490216 
L 184.484882 193.586661 
L 184.672111 198.439283 
L 184.859339 184.565907 
L 185.046568 201.690319 
L 185.233797 160.595674 
L 185.421025 160.595712 
L 185.608254 155.522069 
L 185.795483 155.522032 
L 185.982712 104.195956 
L 186.16994 104.196216 
L 186.357169 147.776827 
L 186.544398 147.776865 
L 186.731626 130.63526 
L 186.918855 183.458426 
L 187.106084 148.308102 
L 187.293312 159.850954 
L 187.480541 146.023439 
L 187.66777 151.301318 
L 187.854998 151.301541 
L 188.042227 147.818566 
L 188.229456 147.818566 
L 188.416684 131.224761 
L 188.791142 163.636199 
L 188.978371 163.555061 
L 189.352828 135.561889 
L 189.540057 128.002837 
L 189.914514 186.977717 
L 190.101743 184.646265 
L 190.288971 178.75991 
L 190.4762 182.459784 
L 190.663429 178.218089 
L 190.850657 184.561971 
L 191.037886 184.561748 
L 191.412344 188.190028 
L 191.599572 170.01818 
L 191.786801 170.018143 
L 191.97403 183.804254 
L 192.161258 183.804254 
L 192.348487 162.300269 
L 192.722944 162.261316 
L 192.910173 168.554139 
L 193.097402 160.053185 
L 193.28463 178.143227 
L 193.471859 178.143079 
L 193.659088 185.965261 
L 193.846316 185.965484 
L 194.033545 189.696253 
L 194.408003 189.579022 
L 194.595231 172.73408 
L 194.78246 172.734042 
L 194.969689 189.762166 
L 195.156917 189.762352 
L 195.344146 200.511095 
L 195.531375 200.510872 
L 195.718603 186.919194 
L 195.905832 194.719134 
L 196.280289 245.904138 
L 196.467518 232.611276 
L 196.654747 232.611017 
L 196.841975 233.654405 
L 197.029204 233.654294 
L 197.216433 221.966248 
L 197.403662 221.966174 
L 197.59089 241.230204 
L 197.778119 222.069778 
L 197.965348 222.069852 
L 198.152576 210.603719 
L 198.339805 210.603719 
L 198.527034 211.421222 
L 198.714262 217.776653 
L 198.901491 200.094935 
L 199.275948 197.328236 
L 199.650406 207.137566 
L 199.837634 177.609761 
L 200.024863 181.716808 
L 200.212092 250.329757 
L 200.586549 212.818756 
L 200.773778 227.028491 
L 200.961007 229.53904 
L 201.148235 211.568049 
L 201.522693 218.917703 
L 201.709921 236.802915 
L 201.89715 234.080182 
L 202.084379 236.949222 
L 202.458836 222.220987 
L 202.833293 208.656083 
L 203.020522 216.100577 
L 203.207751 209.410012 
L 203.39498 231.75456 
L 203.582208 226.567325 
L 203.769437 228.928484 
L 203.956666 241.504735 
L 204.143894 241.504698 
L 204.331123 243.708336 
L 204.518352 243.708373 
L 204.70558 221.62599 
L 204.892809 221.625805 
L 205.080038 235.291082 
L 205.267266 230.75499 
L 205.454495 216.874559 
L 205.641724 219.601376 
L 205.828953 211.535186 
L 206.20341 123.976482 
L 206.390639 136.996632 
L 206.577867 120.229448 
L 206.765096 120.229225 
L 206.952325 132.882381 
L 207.139553 169.739713 
L 207.326782 182.263345 
L 207.514011 155.495778 
L 207.701239 186.697988 
L 207.888468 167.442832 
L 208.075697 198.638172 
L 208.262925 198.637986 
L 208.450154 246.261403 
L 208.637383 238.062645 
L 208.824612 221.662233 
L 209.01184 218.949713 
L 209.199069 210.343522 
L 209.386298 210.343336 
L 209.573526 212.466504 
L 209.760755 222.814164 
L 209.947984 222.81409 
L 210.135212 219.613481 
L 210.322441 177.678385 
L 210.50967 177.678385 
L 210.696898 164.372007 
L 210.884127 164.372007 
L 211.071356 190.70793 
L 211.258584 183.39942 
L 211.445813 191.051121 
L 211.633042 169.52753 
L 212.007499 233.44523 
L 212.194728 227.815693 
L 212.381957 240.297438 
L 212.569185 240.549243 
L 212.756414 241.103541 
L 212.943643 239.435077 
L 213.130871 249.374041 
L 213.505329 253.607418 
L 213.692557 252.828794 
L 213.879786 250.002458 
L 214.067015 244.738133 
L 214.254243 233.804463 
L 214.441472 251.019704 
L 214.628701 251.880283 
L 214.81593 264.67904 
L 215.190387 235.634273 
L 215.377616 246.951314 
L 215.564844 243.213563 
L 215.752073 243.213563 
L 215.939302 233.199069 
L 216.12653 233.199069 
L 216.500988 211.777819 
L 216.688216 206.847402 
L 216.875445 217.829049 
L 217.062674 214.934981 
L 217.249902 223.079226 
L 217.437131 226.31474 
L 217.62436 226.314814 
L 217.811589 186.757736 
L 217.998817 186.757736 
L 218.186046 180.874797 
L 218.373275 205.522018 
L 218.560503 247.537213 
L 218.747732 240.260044 
L 218.934961 203.609548 
L 219.122189 203.609548 
L 219.309418 215.422809 
L 219.496647 215.422994 
L 219.683875 212.617268 
L 219.871104 212.617119 
L 220.058333 214.83665 
L 220.620019 187.540742 
L 220.807248 203.418345 
L 220.994476 203.418568 
L 221.181705 193.862566 
L 221.368934 193.862566 
L 221.556162 163.525205 
L 221.743391 184.235564 
L 221.93062 176.086974 
L 222.117848 195.536488 
L 222.679534 171.539853 
L 222.866763 172.174212 
L 223.241221 140.58347 
L 223.428449 181.973886 
L 223.615678 181.34495 
L 223.802907 174.002759 
L 223.990135 158.623901 
L 224.364593 108.710102 
L 224.551821 110.078301 
L 224.73905 99.968707 
L 224.926279 68.287544 
L 225.113507 90.934807 
L 225.300736 48.366764 
L 225.675193 110.373887 
L 225.862422 110.374295 
L 226.049651 87.652096 
L 226.23688 157.225104 
L 226.798566 229.5875 
L 226.985794 232.938612 
L 227.173023 232.9385 
L 227.360252 254.184887 
L 227.54748 254.184999 
L 227.734709 245.490874 
L 227.921938 245.490837 
L 228.109166 234.296227 
L 228.296395 234.296302 
L 228.483624 222.726342 
L 228.670852 222.726231 
L 229.04531 162.777997 
L 229.232539 163.137453 
L 229.419767 185.779072 
L 229.606996 186.920308 
L 230.168682 217.442113 
L 230.355911 218.981388 
L 230.730368 265.720683 
L 231.104825 300.197138 
L 231.292054 269.937907 
L 231.479283 264.242457 
L 231.666511 278.642911 
L 231.85374 280.876478 
L 232.040969 281.482912 
L 232.228198 281.086359 
L 232.415426 281.623464 
L 232.602655 281.027613 
L 233.164341 281.109011 
L 233.35157 275.941494 
L 233.726027 253.795761 
L 234.100484 184.386699 
L 234.287713 190.784574 
L 234.474942 167.953906 
L 234.849399 165.018322 
L 235.036628 174.226083 
L 235.223857 172.346105 
L 235.411085 191.723393 
L 235.598314 186.399505 
L 235.785543 196.714116 
L 235.972771 196.12662 
L 236.16 200.055276 
L 236.347229 198.475897 
L 236.534457 204.43017 
L 236.721686 220.906929 
L 236.908915 252.279658 
L 237.096143 251.303853 
L 237.283372 248.7734 
L 237.470601 260.430847 
L 237.65783 247.675908 
L 237.845058 242.75819 
L 238.032287 247.069251 
L 238.406744 241.819037 
L 238.593973 264.584126 
L 238.781202 259.115713 
L 238.96843 275.823037 
L 239.155659 275.822999 
L 239.342888 283.267271 
L 239.530116 283.267233 
L 239.717345 285.605964 
L 239.904574 284.92478 
L 240.091802 280.509818 
L 240.279031 280.515537 
L 240.46626 281.954179 
L 240.653489 282.458903 
L 240.840717 281.539913 
L 241.027946 281.21837 
L 241.215175 281.21837 
L 241.402403 281.939882 
L 241.589632 283.14109 
L 241.776861 283.14109 
L 241.964089 281.131254 
L 242.151318 281.131254 
L 242.338547 281.590972 
L 242.525775 281.590935 
L 242.713004 282.345384 
L 242.900233 282.345384 
L 243.087461 276.926211 
L 243.27469 276.926211 
L 243.461919 273.592143 
L 243.649148 273.592069 
L 243.836376 270.349685 
L 244.023605 270.349685 
L 244.210834 272.687487 
L 244.398062 272.687561 
L 244.77252 269.156387 
L 244.959748 264.161431 
L 245.146977 264.161319 
L 245.334206 232.368198 
L 245.521434 225.139823 
L 245.708663 209.620525 
L 246.08312 200.325982 
L 246.270349 194.536955 
L 246.457578 195.450635 
L 246.644807 136.778545 
L 246.832035 176.058047 
L 247.019264 152.838736 
L 247.206493 175.444223 
L 247.393721 158.608639 
L 247.58095 178.80759 
L 247.768179 180.98657 
L 247.955407 160.336962 
L 248.142636 161.832345 
L 248.329865 213.768827 
L 248.517093 213.453115 
L 248.704322 184.73145 
L 248.891551 180.786084 
L 249.078779 174.197155 
L 249.266008 134.788204 
L 249.453237 128.707193 
L 249.640466 130.354082 
L 249.827694 134.851518 
L 250.014923 124.570253 
L 250.202152 137.743766 
L 250.38938 136.98215 
L 250.576609 78.347231 
L 250.951066 125.367815 
L 251.138295 118.667633 
L 251.325524 126.784177 
L 251.512752 152.040951 
L 251.699981 152.198844 
L 251.88721 152.198584 
L 252.261667 184.117181 
L 252.636125 116.976481 
L 252.823353 116.976481 
L 253.010582 116.487985 
L 253.197811 116.488022 
L 253.385039 127.246494 
L 253.572268 127.246605 
L 253.759497 118.522811 
L 253.946725 118.522923 
L 254.133954 126.74552 
L 254.321183 126.74526 
L 254.508411 141.79203 
L 254.69564 141.792104 
L 255.070098 164.156482 
L 255.631784 204.358799 
L 255.819012 239.163183 
L 256.006241 239.163183 
L 256.19347 250.122327 
L 256.380698 250.122289 
L 256.567927 242.866027 
L 256.755156 227.853124 
L 256.942384 195.644548 
L 257.129613 195.644177 
L 257.316842 178.223511 
L 257.50407 178.223139 
L 257.691299 164.543417 
L 257.878528 164.360495 
L 258.065757 132.867602 
L 258.252985 137.289024 
L 259.0019 193.149187 
L 259.189129 191.820796 
L 259.376357 173.133083 
L 259.563586 170.605601 
L 259.750815 219.355104 
L 259.938043 204.502321 
L 260.125272 226.596958 
L 260.312501 215.420506 
L 260.499729 213.620886 
L 260.686958 204.717104 
L 260.874187 222.12715 
L 261.248644 214.342063 
L 261.435873 154.568247 
L 261.623102 145.225468 
L 261.81033 151.98603 
L 261.997559 165.16489 
L 262.184788 204.671095 
L 262.559245 214.975754 
L 262.746474 211.088094 
L 262.933702 210.930089 
L 263.120931 227.604549 
L 263.30816 227.979007 
L 263.682617 240.202115 
L 264.057075 240.920582 
L 264.618761 250.601874 
L 264.805989 247.384741 
L 264.993218 249.509877 
L 265.180447 246.391037 
L 265.554904 252.201157 
L 265.742133 260.483206 
L 266.303819 218.617698 
L 266.491047 186.788706 
L 266.678276 186.78904 
L 266.865505 205.966437 
L 267.052734 202.724573 
L 267.239962 192.525931 
L 267.427191 211.788476 
L 267.61442 198.046146 
L 267.801648 160.728985 
L 267.988877 158.920044 
L 268.176106 190.888512 
L 268.363334 190.888549 
L 268.550563 244.137158 
L 268.737792 244.137047 
L 268.92502 247.366768 
L 269.112249 247.366657 
L 269.299478 244.517038 
L 269.486707 244.516964 
L 269.673935 253.216509 
L 269.861164 253.216509 
L 270.048393 254.847653 
L 270.235621 254.847653 
L 270.42285 238.907033 
L 270.610079 238.907033 
L 270.797307 237.679126 
L 270.984536 237.679089 
L 271.171765 237.968102 
L 271.358993 237.968065 
L 271.546222 238.780778 
L 271.733451 238.780778 
L 271.920679 236.843093 
L 272.107908 236.843093 
L 272.669594 215.272342 
L 273.044052 227.772097 
L 273.23128 227.772209 
L 273.418509 222.144788 
L 273.605738 223.741843 
L 273.792966 223.741917 
L 273.980195 176.024738 
L 274.167424 176.024738 
L 274.354652 193.453425 
L 274.541881 193.453425 
L 274.72911 219.368212 
L 274.916338 219.368138 
L 275.103567 247.819987 
L 275.290796 240.826373 
L 275.478025 241.400872 
L 275.665253 241.400872 
L 275.852482 207.876716 
L 276.039711 207.876716 
L 276.226939 209.430213 
L 276.788625 190.967347 
L 277.163083 175.68927 
L 277.350311 172.543286 
L 277.53754 172.304775 
L 277.724769 187.628452 
L 277.911997 137.407667 
L 278.099226 190.483901 
L 278.473684 146.142639 
L 278.660912 146.699833 
L 278.848141 150.139138 
L 279.03537 145.845679 
L 279.222598 146.713647 
L 279.597056 252.723594 
L 279.784284 181.144761 
L 279.971513 165.322189 
L 280.158742 127.914421 
L 280.34597 128.755133 
L 280.533199 113.525999 
L 280.907656 194.687384 
L 281.094885 184.150825 
L 281.469343 122.799486 
L 281.656571 159.711479 
L 281.8438 134.520506 
L 282.031029 85.061152 
L 282.218257 117.429997 
L 282.592715 142.425646 
L 282.779943 157.481774 
L 282.967172 156.603668 
L 283.154401 175.074964 
L 283.528858 181.723827 
L 283.716087 173.076974 
L 283.903316 182.519792 
L 284.090544 209.513096 
L 284.277773 199.184338 
L 284.465002 199.1843 
L 284.65223 208.171597 
L 284.839459 191.680578 
L 285.026688 191.680652 
L 285.213916 206.028822 
L 285.401145 176.694411 
L 285.588374 172.926396 
L 285.775602 192.313488 
L 285.962831 182.449572 
L 286.15006 198.540398 
L 286.337288 192.86734 
L 286.524517 192.8676 
L 286.711746 173.626964 
L 286.898975 173.626667 
L 287.086203 162.980934 
L 287.273432 188.303175 
L 287.460661 195.445696 
L 287.647889 227.793412 
L 287.835118 231.621621 
L 288.022347 231.621918 
L 288.209575 224.783709 
L 288.396804 224.783746 
L 288.584033 211.352524 
L 288.771261 211.352561 
L 289.332947 177.081829 
L 289.520176 168.042099 
L 289.707405 175.491643 
L 289.894634 170.25398 
L 290.081862 196.034008 
L 290.269091 201.39711 
L 290.45632 201.310105 
L 291.392463 297.620528 
L 291.579692 270.762651 
L 291.76692 264.835671 
L 291.954149 276.947934 
L 292.141378 280.539525 
L 292.328606 280.971615 
L 292.515835 280.970019 
L 292.703064 280.801579 
L 292.890293 281.614663 
L 293.077521 281.62287 
L 293.26475 280.681265 
L 293.451979 281.163969 
L 293.639207 277.149423 
L 293.826436 268.930501 
L 294.013665 251.211947 
L 294.200893 206.937488 
L 294.575351 173.858531 
L 294.762579 180.231638 
L 294.949808 179.228503 
L 295.137037 164.365694 
L 295.324265 159.795624 
L 295.511494 172.24458 
L 295.698723 165.279114 
L 295.885952 175.055803 
L 296.07318 230.938914 
L 296.260409 171.149167 
L 296.634866 228.269135 
L 296.822095 200.867023 
L 297.009324 204.168747 
L 297.196552 202.034922 
L 297.758238 276.092072 
L 297.945467 276.091997 
L 298.132696 281.937803 
L 298.319925 297.637981 
L 298.694382 275.746652 
L 298.881611 235.868031 
L 299.068839 235.868031 
L 299.443297 158.798096 
L 299.630525 140.653393 
L 299.817754 136.405757 
L 300.004983 119.526726 
L 300.37944 172.598727 
L 300.941126 265.642442 
L 301.315584 265.688563 
L 301.502812 273.747474 
L 301.690041 273.7474 
L 301.87727 268.932729 
L 302.064498 268.932729 
L 302.251727 254.239028 
L 302.438956 254.239066 
L 302.626184 274.44678 
L 302.813413 274.44678 
L 303.18787 234.515466 
L 303.375099 234.51554 
L 303.562328 229.049764 
L 303.936785 237.397651 
L 304.124014 237.397614 
L 304.311243 240.114628 
L 304.498471 240.114591 
L 304.6857 236.621367 
L 304.872929 242.355287 
L 305.060157 251.79183 
L 305.247386 251.791793 
L 305.434615 235.207234 
L 305.621843 235.207271 
L 305.996301 282.966672 
L 306.183529 281.796434 
L 306.557987 283.517627 
L 306.745215 286.440029 
L 306.932444 284.431493 
L 307.119673 286.794397 
L 307.306902 284.029073 
L 307.49413 286.183025 
L 307.681359 286.404083 
L 307.868588 286.404083 
L 308.055816 284.869673 
L 308.243045 285.195189 
L 308.430274 285.195189 
L 308.617502 282.762584 
L 308.804731 282.762584 
L 308.99196 279.135789 
L 309.179188 279.135827 
L 309.366417 276.489999 
L 309.553646 276.489962 
L 309.740874 275.07839 
L 309.928103 270.999379 
L 310.115332 263.678541 
L 310.302561 263.122164 
L 310.489789 261.802871 
L 310.677018 248.713021 
L 310.864247 251.871742 
L 311.051475 216.535415 
L 311.425933 205.478534 
L 311.613161 188.813395 
L 311.987619 197.653232 
L 312.174847 195.651975 
L 312.362076 147.995806 
L 312.549305 193.40619 
L 312.923762 167.103131 
L 313.110991 162.540414 
L 313.29822 178.541674 
L 313.485448 179.169311 
L 313.672677 184.944116 
L 314.047134 159.972456 
L 314.234363 184.561488 
L 314.60882 166.809885 
L 314.796049 138.720351 
L 314.983278 128.084755 
L 315.170506 110.552798 
L 315.357735 133.637276 
L 315.544964 141.624482 
L 315.919421 99.59592 
L 316.10665 41.472 
L 316.293879 141.932396 
L 316.481107 148.248874 
L 316.668336 138.900264 
L 316.855565 144.473692 
L 317.042793 194.966817 
L 317.230022 215.450696 
L 317.417251 218.077289 
L 317.604479 214.451794 
L 317.978937 68.637531 
L 318.166165 74.004829 
L 318.353394 152.559266 
L 318.540623 106.41066 
L 318.727852 154.549532 
L 318.91508 133.645037 
L 319.102309 127.356744 
L 319.289538 163.819603 
L 319.476766 164.923705 
L 319.663995 189.989908 
L 319.851224 189.989908 
L 320.038452 182.443445 
L 320.225681 182.443185 
L 320.41291 202.362183 
L 320.600138 202.362443 
L 320.787367 215.281106 
L 320.974596 215.281031 
L 321.161824 207.930115 
L 321.349053 207.930152 
L 321.536282 212.158219 
L 321.723511 212.158367 
L 321.910739 212.947648 
L 322.097968 212.947648 
L 322.285197 203.719798 
L 322.472425 203.71965 
L 322.659654 182.947686 
L 323.034111 199.759839 
L 323.22134 199.759839 
L 323.408569 250.077877 
L 323.595797 250.077766 
L 323.783026 249.399441 
L 323.970255 249.399552 
L 324.344712 231.627674 
L 324.531941 201.439294 
L 324.71917 201.439034 
L 324.906398 171.828941 
L 325.093627 171.828941 
L 325.468084 151.259988 
L 325.655313 167.08657 
L 325.842542 156.215396 
L 326.216999 197.183414 
L 326.404228 214.371028 
L 326.591456 220.953235 
L 327.153142 285.677892 
L 327.340371 289.709706 
L 327.714829 262.771843 
L 327.902057 278.688846 
L 328.089286 280.424856 
L 328.276515 280.925941 
L 328.463743 280.846771 
L 328.650972 280.55553 
L 328.838201 281.526396 
L 329.025429 280.960364 
L 329.212658 281.04347 
L 329.399887 281.781692 
L 329.774344 265.224983 
L 330.148802 207.062036 
L 330.33603 176.46418 
L 330.523259 174.156977 
L 330.710488 168.591755 
L 330.897716 178.936593 
L 331.084945 177.44251 
L 331.272174 163.272843 
L 331.646631 194.246234 
L 331.83386 198.821428 
L 332.021088 196.008832 
L 332.208317 196.148938 
L 332.395546 200.403815 
L 332.770003 196.911334 
L 333.518918 289.67662 
L 333.706147 301.556313 
L 333.893375 301.556313 
L 334.080604 287.22983 
L 334.267833 283.148591 
L 334.455061 272.503934 
L 334.64229 270.427592 
L 335.203976 281.776641 
L 335.578433 301.738009 
L 335.765662 301.738009 
L 335.952891 296.405209 
L 336.14012 296.405172 
L 336.327348 299.547592 
L 336.514577 293.508208 
L 336.701806 247.994182 
L 336.889034 245.326594 
L 337.45072 208.014297 
L 337.637949 106.897299 
L 337.825178 106.896965 
L 338.199635 188.088615 
L 338.386864 188.088541 
L 338.574092 168.877798 
L 338.761321 181.50715 
L 338.94855 181.50715 
L 339.135779 229.387125 
L 339.323007 217.407653 
L 339.510236 217.40769 
L 339.884693 256.397994 
L 340.071922 256.397994 
L 340.259151 237.785626 
L 340.446379 237.785626 
L 340.633608 245.70963 
L 340.820837 272.492979 
L 341.008065 282.759204 
L 341.195294 280.689175 
L 341.382523 281.468913 
L 341.569751 283.365156 
L 341.75698 280.382894 
L 341.944209 284.976693 
L 342.131438 282.397817 
L 342.318666 281.773819 
L 342.505895 283.574851 
L 342.880352 280.685202 
L 343.067581 280.685202 
L 343.25481 281.040202 
L 343.442038 281.040202 
L 343.629267 280.560469 
L 343.816496 280.560469 
L 344.003724 278.867423 
L 344.190953 278.867423 
L 344.378182 275.938375 
L 344.565411 275.938412 
L 344.939868 269.428541 
L 345.127097 260.136598 
L 345.314325 258.306454 
L 345.501554 253.05208 
L 345.688783 238.663657 
L 345.876011 241.814544 
L 346.06324 210.746759 
L 346.250469 213.862962 
L 346.624926 192.387348 
L 346.812155 190.421181 
L 346.999383 191.104891 
L 347.186612 164.535136 
L 347.373841 173.712595 
L 347.56107 202.277815 
L 347.748298 147.565573 
L 347.935527 163.977385 
L 348.309984 177.938619 
L 348.684442 140.247854 
L 349.058899 230.94519 
L 349.246128 174.286722 
L 349.433356 173.959647 
L 349.807814 127.88386 
L 349.995042 109.730839 
L 350.182271 112.791564 
L 350.3695 138.095127 
L 350.556729 145.049825 
L 350.743957 144.373468 
L 350.931186 61.491371 
L 351.492872 160.132615 
L 351.680101 140.438017 
L 352.054558 156.945486 
L 352.429015 197.437076 
L 352.803473 107.592743 
L 353.17793 122.933205 
L 353.365159 97.424514 
L 353.552388 116.663851 
L 353.739616 116.388131 
L 353.926845 141.682225 
L 354.114074 147.019333 
L 354.301302 179.979276 
L 354.488531 179.776488 
L 354.67576 177.975902 
L 354.862988 180.491872 
L 355.050217 178.632355 
L 355.237446 187.044447 
L 355.424674 187.125585 
L 355.611903 200.507159 
L 355.799132 174.672618 
L 355.98636 202.370501 
L 356.173589 202.370464 
L 356.548047 215.906255 
L 356.922504 190.037217 
L 357.109733 184.114582 
L 357.296961 195.337636 
L 357.48419 167.318062 
L 357.671419 164.900608 
L 357.858647 192.170671 
L 358.045876 192.170448 
L 358.233105 155.74814 
L 358.420333 155.747954 
L 358.607562 173.434982 
L 358.794791 173.341256 
L 358.98202 188.754835 
L 359.169248 187.245193 
L 359.356477 179.018288 
L 359.543706 181.20774 
L 359.730934 181.207777 
L 359.918163 178.398077 
L 360.105392 178.397891 
L 360.29262 180.391017 
L 360.479849 192.11471 
L 360.667078 180.533871 
L 360.854306 180.534056 
L 361.041535 180.20906 
L 361.228764 180.209098 
L 361.415992 187.353921 
L 361.603221 160.014492 
L 361.79045 179.065819 
L 361.977679 179.065522 
L 362.164907 205.757447 
L 362.352136 205.757707 
L 362.539365 203.267879 
L 362.726593 203.267879 
L 362.913822 203.657785 
L 363.475508 203.758492 
L 363.662737 208.006648 
L 363.849965 208.006536 
L 364.037194 221.79339 
L 364.224423 221.79339 
L 364.411651 210.622472 
L 364.59888 210.622509 
L 364.786109 198.661492 
L 364.973338 198.661529 
L 365.160566 182.845345 
L 365.347795 177.609799 
L 365.722252 258.214324 
L 365.909481 249.668253 
L 366.283938 205.286849 
L 366.471167 179.282718 
L 367.220082 145.288633 
L 367.40731 159.982222 
L 367.781768 204.291289 
L 367.968997 214.627586 
L 368.717911 294.885615 
L 368.90514 289.478362 
L 369.092369 263.751844 
L 369.279597 267.602518 
L 369.466826 280.177433 
L 369.654055 281.371919 
L 370.028512 281.566463 
L 370.215741 280.892743 
L 370.402969 280.994787 
L 370.590198 280.561769 
L 370.777427 281.591529 
L 370.964656 281.663494 
L 371.151884 272.148451 
L 371.71357 205.747087 
L 371.900799 162.264249 
L 372.088028 173.902906 
L 372.275256 158.33979 
L 372.462485 178.472531 
L 372.649714 176.588579 
L 372.836942 160.459839 
L 373.024171 155.07182 
L 373.585857 199.518988 
L 373.773086 188.685357 
L 373.960315 215.071299 
L 374.147543 197.283787 
L 374.334772 208.761246 
L 374.522001 206.994266 
L 374.896458 260.134407 
L 375.083687 260.13437 
L 375.458144 295.859786 
L 375.645373 295.859786 
L 375.832601 300.232192 
L 376.01983 285.97734 
L 376.394288 201.552255 
L 376.581516 189.328739 
L 376.768745 122.070622 
L 376.955974 145.825144 
L 377.143202 138.034636 
L 377.51766 175.136086 
L 377.704888 194.06205 
L 377.892117 187.191571 
L 378.266574 208.381626 
L 378.82826 164.52459 
L 379.015489 177.217627 
L 379.202718 177.21759 
L 379.389947 188.387395 
L 379.577175 188.387395 
L 379.764404 214.603783 
L 379.951633 214.603858 
L 380.138861 206.614424 
L 380.32609 188.248737 
L 380.513319 149.91069 
L 380.700547 182.872267 
L 380.887776 186.196717 
L 381.075005 184.915894 
L 381.262233 184.915894 
L 381.449462 198.294461 
L 381.636691 198.294461 
L 381.823919 211.380003 
L 382.011148 255.314686 
L 382.572834 280.211707 
L 382.760063 286.821914 
L 382.947292 282.39065 
L 383.13452 282.39065 
L 383.321749 281.731932 
L 383.508978 281.731858 
L 383.696206 278.675626 
L 383.883435 278.675589 
L 384.070664 230.539316 
L 384.257892 234.642575 
L 384.445121 229.722444 
L 384.63235 232.667683 
L 384.819578 232.66772 
L 385.006807 241.56842 
L 385.194036 240.7286 
L 385.381265 237.719639 
L 385.568493 254.858533 
L 385.755722 254.858533 
L 385.942951 243.833922 
L 386.130179 243.833885 
L 386.504637 282.68308 
L 386.691865 281.704713 
L 386.879094 281.826327 
L 387.066323 282.3628 
L 387.253551 283.740171 
L 387.44078 284.052541 
L 387.815237 282.02659 
L 388.002466 283.125271 
L 388.189695 283.001429 
L 388.376924 281.183613 
L 388.564152 280.824157 
L 388.751381 280.901432 
L 388.93861 276.264819 
L 389.125838 277.228109 
L 389.687524 245.605544 
L 389.874753 260.930781 
L 390.061982 254.135573 
L 390.24921 231.223211 
L 390.436439 236.972951 
L 390.810897 207.784476 
L 390.998125 205.814002 
L 391.185354 201.177871 
L 391.372583 210.444897 
L 391.559811 190.181891 
L 391.74704 196.562461 
L 391.934269 143.720394 
L 392.121497 204.759659 
L 392.308726 220.933332 
L 392.495955 166.883113 
L 392.683183 152.522058 
L 392.870412 174.283566 
L 393.057641 143.64375 
L 393.244869 192.597748 
L 393.619327 170.265455 
L 393.806556 160.416652 
L 393.993784 185.016193 
L 394.368242 166.667513 
L 394.55547 133.935127 
L 394.742699 206.393328 
L 394.929928 148.560873 
L 395.117156 131.205599 
L 395.304385 137.467935 
L 395.491614 160.516059 
L 395.678842 157.278391 
L 395.866071 65.274313 
L 396.0533 148.909189 
L 396.240528 167.958251 
L 396.427757 143.895666 
L 396.614986 101.760752 
L 396.802215 140.610504 
L 396.989443 144.627612 
L 397.363901 184.919459 
L 397.551129 132.033871 
L 397.738358 114.658137 
L 397.925587 112.456505 
L 398.112815 76.679398 
L 398.300044 135.929961 
L 398.487273 146.918032 
L 398.487273 146.918032 
" style="fill:none;stroke:#1f77b4;stroke-linecap:square;stroke-width:1.5;"/>
   </g>
   <g id="line2d_30">
    <path clip-path="url(#pfb0919e794)" d="M 73.832727 92.985193 
L 74.207185 144.003243 
L 74.394413 149.652229 
L 74.581642 146.896189 
L 74.768871 152.483612 
L 75.705014 205.660538 
L 75.892243 211.446009 
L 76.079472 213.511821 
L 76.453929 221.335331 
L 76.641158 221.195673 
L 77.390072 213.33779 
L 77.76453 220.564007 
L 77.951758 221.463225 
L 78.326216 227.825216 
L 78.513444 227.933296 
L 78.700673 226.00794 
L 79.636817 210.648317 
L 80.198503 201.38693 
L 80.385731 202.212567 
L 80.947417 211.351126 
L 81.321875 213.148 
L 81.509103 212.740163 
L 81.883561 212.871787 
L 82.07079 213.505218 
L 82.445247 216.191469 
L 82.632476 216.720596 
L 83.006933 216.375719 
L 83.38139 213.82622 
L 83.568619 214.79094 
L 84.691991 208.94426 
L 85.440906 212.310607 
L 85.628135 212.173579 
L 86.002592 213.357354 
L 86.564278 220.296558 
L 87.313193 229.174105 
L 87.68765 233.089856 
L 88.249336 235.874842 
L 89.934394 256.684573 
L 90.870538 260.470705 
L 91.619453 268.738103 
L 91.99391 269.49647 
L 92.368367 265.788458 
L 93.866197 244.141582 
L 94.989569 219.436897 
L 95.364026 216.897283 
L 95.551255 217.49719 
L 95.925712 220.472184 
L 96.674627 233.896472 
L 97.610771 255.272667 
L 98.546914 283.377087 
L 98.734143 285.695239 
L 99.295829 288.440465 
L 99.483058 287.798665 
L 99.857515 281.616956 
L 101.729802 209.982977 
L 102.291488 189.429235 
L 103.040403 167.704866 
L 103.227631 163.409975 
L 103.602089 158.949096 
L 103.976546 165.312336 
L 105.474376 207.326188 
L 106.410519 238.041594 
L 107.72112 268.461741 
L 107.908349 270.569183 
L 108.282806 270.172755 
L 109.406178 258.03108 
L 110.342321 244.211509 
L 110.716779 237.802489 
L 111.840151 217.356887 
L 112.401837 209.620733 
L 112.589066 208.12058 
L 113.150752 198.946441 
L 113.712438 194.237089 
L 114.274124 183.686929 
L 114.648581 181.131131 
L 114.83581 181.249293 
L 115.023039 181.627409 
L 115.210267 182.888864 
L 115.959182 191.813328 
L 116.33364 193.339929 
L 116.895326 204.768462 
L 117.457012 208.540095 
L 117.831469 210.812399 
L 118.018698 213.141652 
L 118.205926 211.636209 
L 118.393155 209.117537 
L 118.580384 209.201105 
L 118.767612 210.373348 
L 118.954841 208.798395 
L 119.14207 205.755537 
L 120.078213 200.542297 
L 120.265442 199.751955 
L 120.452671 197.163568 
L 120.827128 190.565707 
L 121.388814 182.805164 
L 121.576043 182.453616 
L 121.9505 179.377727 
L 122.137729 181.844984 
L 123.073872 165.095678 
L 123.261101 162.911144 
L 124.197244 143.470061 
L 124.571702 141.748665 
L 124.75893 142.251883 
L 125.320617 149.469248 
L 125.507845 150.203903 
L 126.25676 158.080461 
L 126.443989 159.700549 
L 126.818446 165.773483 
L 127.005675 168.365127 
L 127.567361 186.445317 
L 127.754589 191.347728 
L 128.129047 193.104632 
L 128.316276 193.231849 
L 128.503504 193.564552 
L 128.877962 183.152871 
L 129.06519 179.840165 
L 129.814105 176.467095 
L 130.188562 180.518286 
L 130.56302 178.306085 
L 131.499163 155.608964 
L 131.873621 153.829715 
L 132.060849 154.748083 
L 132.248078 155.035682 
L 132.622535 163.826915 
L 132.996993 169.465954 
L 133.558679 177.045848 
L 133.933136 173.258149 
L 134.307594 179.80976 
L 135.056508 198.168504 
L 135.805423 208.402835 
L 136.17988 211.121065 
L 136.367109 212.182226 
L 136.554338 211.964987 
L 136.741567 212.264303 
L 137.116024 208.427017 
L 137.303253 208.652759 
L 137.67771 213.083412 
L 137.864939 213.137765 
L 138.052167 212.750725 
L 138.239396 212.625331 
L 138.426625 212.662096 
L 138.613853 212.508831 
L 139.175539 206.284517 
L 139.924454 193.484835 
L 140.48614 190.188879 
L 140.860598 191.915788 
L 141.047826 190.259302 
L 141.422284 189.395133 
L 141.609512 190.17187 
L 141.796741 191.762939 
L 142.358427 201.25031 
L 142.920113 217.348155 
L 144.230714 260.82756 
L 144.605171 267.96955 
L 144.7924 269.232344 
L 144.979629 269.090368 
L 145.166858 267.913702 
L 145.728544 257.882358 
L 146.477458 238.110904 
L 147.60083 213.681589 
L 147.975288 210.054531 
L 148.162517 209.725045 
L 148.349745 210.121374 
L 149.09866 221.62848 
L 149.660346 234.101807 
L 150.596489 256.98281 
L 151.345404 273.210804 
L 151.719862 277.100404 
L 153.030462 283.472471 
L 153.40492 283.315513 
L 153.779377 282.626382 
L 153.966606 282.590425 
L 154.153835 282.71565 
L 154.341063 282.451338 
L 155.089978 280.149512 
L 155.838893 276.807566 
L 156.21335 272.593094 
L 157.71118 237.525498 
L 158.085637 228.072999 
L 158.460094 218.299047 
L 158.834552 211.874978 
L 159.583466 193.484409 
L 159.957924 191.331634 
L 160.145153 191.429746 
L 160.706839 186.40589 
L 161.081296 179.347298 
L 161.455753 175.545309 
L 161.642982 173.208311 
L 162.017439 172.040398 
L 162.391897 166.443269 
L 162.579126 164.045199 
L 162.766354 163.608589 
L 163.140812 163.351266 
L 163.32804 164.346436 
L 163.515269 163.707414 
L 163.702498 162.291264 
L 163.889726 162.417226 
L 164.451412 167.134296 
L 164.82587 173.789305 
L 165.387556 180.806313 
L 165.574785 180.916974 
L 165.762013 180.214842 
L 165.949242 180.541596 
L 166.136471 178.985927 
L 166.323699 179.511511 
L 166.510928 179.551521 
L 166.698157 179.973646 
L 166.885385 179.231631 
L 167.259843 176.052317 
L 167.6343 174.97036 
L 167.821529 175.940873 
L 168.570444 186.053248 
L 169.13213 195.721321 
L 169.506587 208.60212 
L 170.44273 242.229645 
L 170.817188 253.381939 
L 171.004416 255.019009 
L 171.191645 255.484017 
L 171.378874 254.979815 
L 171.566103 253.142965 
L 172.127789 239.63027 
L 173.438389 203.373959 
L 174.000075 201.043612 
L 174.187304 200.933905 
L 174.374533 200.44049 
L 174.561762 198.718303 
L 176.621277 231.956784 
L 176.995735 233.784158 
L 177.370192 226.808981 
L 178.868021 194.262021 
L 179.242479 187.778558 
L 179.616936 182.368767 
L 179.804165 180.684766 
L 179.991394 180.427451 
L 180.178622 179.981019 
L 180.365851 179.019684 
L 180.927537 174.862276 
L 181.114766 174.244256 
L 181.489223 171.503111 
L 181.86368 169.671429 
L 182.050909 171.112327 
L 182.425366 174.623716 
L 182.799824 177.615476 
L 183.36151 187.907224 
L 183.548739 189.947897 
L 183.735967 189.269026 
L 184.110425 185.129799 
L 184.297653 185.623631 
L 184.672111 188.646881 
L 184.859339 189.067911 
L 185.046568 191.404404 
L 185.233797 191.686163 
L 185.421025 191.516502 
L 185.608254 191.161697 
L 185.795483 187.768569 
L 186.16994 175.352007 
L 187.106084 159.311038 
L 187.480541 155.536989 
L 187.854998 157.531739 
L 188.042227 156.658056 
L 188.791142 147.532555 
L 188.978371 147.680524 
L 189.165599 147.069642 
L 189.540057 144.695673 
L 190.101743 153.875631 
L 190.288971 155.424784 
L 190.4762 158.01601 
L 190.663429 157.753993 
L 191.412344 164.69281 
L 191.786801 166.738621 
L 192.348487 171.627263 
L 192.722944 171.495783 
L 193.097402 173.729151 
L 193.28463 176.236171 
L 193.471859 176.736116 
L 193.659088 176.685493 
L 193.846316 176.751454 
L 194.408003 178.222289 
L 194.78246 177.039509 
L 195.156917 177.258913 
L 195.531375 180.308195 
L 195.718603 180.463942 
L 195.905832 181.009686 
L 197.403662 205.649573 
L 197.778119 210.031485 
L 198.714262 217.935818 
L 198.901491 218.452447 
L 199.275948 218.201123 
L 199.650406 219.544048 
L 200.024863 213.807619 
L 200.212092 214.693543 
L 200.399321 214.439555 
L 200.586549 213.397772 
L 200.773778 213.066482 
L 200.961007 213.445122 
L 201.148235 212.925216 
L 201.335464 211.596713 
L 201.522693 211.439109 
L 201.89715 213.349586 
L 202.271607 215.486753 
L 202.458836 215.70897 
L 203.020522 217.989237 
L 203.207751 218.391774 
L 203.39498 219.622624 
L 203.769437 224.431086 
L 203.956666 223.989835 
L 204.143894 224.688507 
L 204.518352 227.06698 
L 204.70558 226.671328 
L 204.892809 227.174215 
L 205.267266 228.797626 
L 205.828953 225.806566 
L 206.577867 208.648225 
L 207.139553 196.927534 
L 207.326782 194.712335 
L 207.888468 184.597269 
L 208.262925 180.090241 
L 208.637383 182.143854 
L 209.01184 180.872148 
L 209.386298 180.082694 
L 209.573526 180.12926 
L 210.696898 200.098784 
L 210.884127 199.830399 
L 211.071356 200.252628 
L 211.258584 201.64781 
L 211.820271 202.152668 
L 212.007499 203.89303 
L 212.194728 202.970744 
L 212.381957 203.082484 
L 212.756414 205.134526 
L 213.130871 208.540639 
L 213.692557 213.514742 
L 213.879786 215.034191 
L 215.564844 245.221871 
L 215.939302 245.979456 
L 216.12653 245.624538 
L 216.500988 243.132088 
L 217.811589 231.179659 
L 218.560503 222.145072 
L 218.747732 221.51222 
L 219.683875 213.935739 
L 219.871104 212.906641 
L 220.245561 212.323407 
L 220.43279 211.923016 
L 220.620019 210.408601 
L 220.807248 209.832769 
L 220.994476 208.849736 
L 221.556162 204.442888 
L 221.93062 204.077389 
L 222.117848 203.578112 
L 222.679534 195.979759 
L 222.866763 194.407993 
L 223.428449 186.273432 
L 223.802907 182.668129 
L 224.177364 176.780145 
L 224.73905 162.999118 
L 225.487965 140.655736 
L 225.862422 133.111972 
L 226.049651 128.071769 
L 226.23688 126.960838 
L 226.424108 127.649716 
L 226.611337 129.764527 
L 227.734709 152.493623 
L 229.419767 203.244776 
L 230.168682 216.976972 
L 230.355911 217.20252 
L 230.543139 218.126164 
L 230.917597 222.268578 
L 231.104825 224.56919 
L 231.479283 226.294415 
L 231.85374 230.281031 
L 232.415426 238.503224 
L 232.977112 254.8975 
L 233.538798 267.279713 
L 233.726027 269.334735 
L 233.913256 268.895731 
L 234.100484 267.165996 
L 234.287713 264.302205 
L 236.534457 207.869525 
L 236.908915 203.421292 
L 237.283372 201.555668 
L 237.470601 201.887422 
L 237.845058 206.756691 
L 238.219516 213.354719 
L 238.781202 226.33089 
L 239.717345 249.354728 
L 240.46626 264.55653 
L 241.776861 275.774855 
L 242.338547 280.465881 
L 242.525775 281.589642 
L 242.900233 282.241879 
L 243.27469 281.607775 
L 244.210834 278.960814 
L 244.77252 277.311545 
L 245.146977 275.56977 
L 245.708663 266.555526 
L 246.457578 250.015914 
L 247.019264 231.48979 
L 248.517093 195.01156 
L 250.014923 164.867509 
L 250.202152 161.982165 
L 250.38938 161.992346 
L 250.763838 154.854841 
L 251.512752 146.305519 
L 251.88721 145.416925 
L 252.261667 141.712634 
L 252.448896 140.26659 
L 252.823353 134.215076 
L 253.197811 132.689106 
L 253.385039 132.533727 
L 253.759497 131.851109 
L 254.133954 130.378236 
L 254.508411 134.497765 
L 254.69564 135.31898 
L 255.257326 140.310931 
L 255.444555 141.754157 
L 256.006241 150.62168 
L 256.380698 161.994559 
L 256.942384 177.815119 
L 257.50407 186.768865 
L 257.878528 190.950639 
L 258.065757 191.256756 
L 258.252985 191.031605 
L 259.189129 193.914156 
L 259.376357 192.352871 
L 259.563586 188.924991 
L 259.750815 187.934588 
L 260.125272 184.477321 
L 260.499729 182.393433 
L 260.686958 182.847061 
L 261.061416 186.134735 
L 261.248644 187.940681 
L 261.435873 187.441923 
L 261.623102 186.485171 
L 261.997559 188.834886 
L 262.559245 195.752597 
L 262.933702 197.605007 
L 263.30816 203.19725 
L 263.495388 204.010705 
L 263.682617 205.795695 
L 263.869846 206.4982 
L 264.244303 209.323182 
L 264.618761 212.85794 
L 264.993218 216.110867 
L 265.929361 237.928191 
L 266.11659 239.387982 
L 266.303819 239.570079 
L 267.052734 234.80343 
L 267.801648 225.088209 
L 268.176106 218.000737 
L 268.363334 215.015071 
L 269.299478 214.110246 
L 269.486707 213.311934 
L 269.673935 213.535136 
L 269.861164 214.157387 
L 270.048393 215.968885 
L 270.42285 221.977732 
L 271.358993 230.935225 
L 271.920679 241.12858 
L 272.107908 243.426307 
L 272.482366 241.742624 
L 272.856823 238.965584 
L 273.23128 237.291099 
L 273.792966 232.708493 
L 274.167424 225.623233 
L 274.541881 221.139267 
L 274.916338 219.293725 
L 275.103567 219.786321 
L 275.478025 220.019606 
L 275.665253 220.247494 
L 276.039711 217.655815 
L 276.414168 216.33414 
L 276.788625 213.089598 
L 277.53754 203.297001 
L 277.724769 203.877187 
L 277.911997 201.946333 
L 278.099226 201.797857 
L 278.286455 200.555121 
L 278.848141 188.376384 
L 279.409827 176.712775 
L 279.597056 178.955119 
L 279.784284 177.618521 
L 279.971513 175.41312 
L 280.533199 164.419559 
L 280.720428 163.198122 
L 281.094885 164.728405 
L 281.282114 163.629392 
L 281.469343 160.387944 
L 281.656571 161.503134 
L 282.218257 153.092455 
L 282.592715 151.782174 
L 282.967172 152.85848 
L 283.154401 151.722398 
L 283.341629 148.071591 
L 283.528858 148.100544 
L 283.716087 148.488283 
L 284.090544 155.25645 
L 284.465002 161.669444 
L 284.839459 162.720142 
L 285.026688 164.787949 
L 285.213916 168.949416 
L 285.401145 169.798563 
L 285.588374 171.718857 
L 285.962831 180.332453 
L 286.337288 186.371172 
L 286.711746 188.991628 
L 286.898975 188.919213 
L 287.086203 188.082887 
L 287.273432 188.411855 
L 287.460661 189.530291 
L 287.835118 192.899398 
L 288.209575 195.801248 
L 288.771261 198.599048 
L 288.95849 198.153576 
L 289.332947 198.640348 
L 289.520176 197.426779 
L 289.707405 197.078882 
L 289.894634 195.664561 
L 290.081862 195.822895 
L 290.269091 196.24937 
L 290.45632 197.633527 
L 290.830777 203.908077 
L 291.579692 217.350513 
L 291.954149 221.619412 
L 292.515835 231.369029 
L 293.077521 245.747202 
L 293.826436 265.652374 
L 294.013665 268.143116 
L 294.200893 268.424485 
L 294.388122 266.782897 
L 294.762579 259.247952 
L 295.698723 231.875394 
L 296.260409 218.60853 
L 297.196552 199.91522 
L 297.383781 197.369251 
L 297.57101 197.060542 
L 297.758238 198.304548 
L 298.132696 206.363697 
L 298.694382 222.803395 
L 299.068839 230.182132 
L 299.256068 230.941983 
L 299.443297 230.617932 
L 299.630525 228.897812 
L 300.004983 221.590032 
L 300.37944 216.802851 
L 300.566669 216.954031 
L 300.753897 218.701758 
L 301.128355 223.855061 
L 301.315584 224.001673 
L 301.690041 223.767213 
L 301.87727 223.116959 
L 302.438956 218.881869 
L 303.000642 225.726585 
L 303.562328 238.837762 
L 303.936785 248.608899 
L 304.311243 253.660044 
L 304.498471 253.709608 
L 304.872929 251.091891 
L 305.247386 249.29927 
L 305.621843 245.685989 
L 305.809072 245.276341 
L 306.183529 248.090591 
L 306.557987 248.962132 
L 306.932444 253.421013 
L 308.430274 273.206344 
L 309.366417 282.403012 
L 309.553646 283.190522 
L 309.928103 282.256255 
L 310.489789 279.048215 
L 310.864247 275.516158 
L 311.425933 264.381198 
L 314.796049 179.051255 
L 315.544964 164.68774 
L 315.919421 156.242316 
L 316.293879 148.342436 
L 316.855565 144.432041 
L 317.042793 145.253298 
L 317.604479 151.027301 
L 317.791708 149.78693 
L 318.166165 138.980375 
L 318.353394 138.267844 
L 318.540623 136.65236 
L 318.91508 139.130211 
L 319.102309 138.816184 
L 319.289538 139.92594 
L 319.476766 141.932084 
L 319.663995 146.451784 
L 319.851224 153.877679 
L 320.41291 160.786043 
L 320.600138 163.680481 
L 320.787367 164.696195 
L 320.974596 164.687712 
L 321.349053 163.854271 
L 321.536282 167.70393 
L 321.910739 181.827113 
L 322.097968 184.846532 
L 322.472425 192.170495 
L 323.783026 210.812352 
L 324.157483 216.03775 
L 324.344712 217.501011 
L 324.71917 216.116821 
L 325.280856 209.976759 
L 325.842542 201.802174 
L 326.02977 200.694924 
L 326.216999 200.368113 
L 326.778685 205.497915 
L 327.153142 210.512136 
L 327.5276 213.693689 
L 327.714829 214.362303 
L 328.089286 218.740916 
L 328.650972 232.121965 
L 329.961573 267.287484 
L 330.148802 266.922034 
L 330.523259 261.257312 
L 332.582774 211.028876 
L 332.957232 203.967981 
L 333.144461 202.154773 
L 333.331689 202.123252 
L 333.518918 203.345834 
L 333.893375 211.851699 
L 335.391205 253.050339 
L 336.514577 283.197953 
L 336.701806 284.403932 
L 336.889034 284.394385 
L 337.076263 282.243454 
L 337.45072 273.483224 
L 338.012406 248.661085 
L 339.884693 208.540711 
L 340.446379 203.086675 
L 340.633608 203.105826 
L 340.820837 205.235495 
L 341.195294 212.606497 
L 341.75698 236.092747 
L 343.067581 267.161583 
L 343.442038 272.677817 
L 343.816496 275.094065 
L 344.378182 280.713681 
L 344.565411 280.885953 
L 344.939868 279.851347 
L 345.501554 276.165255 
L 346.06324 268.269087 
L 346.624926 256.246766 
L 347.56107 232.15502 
L 348.309984 209.665382 
L 348.87167 193.260399 
L 349.058899 191.892336 
L 350.556729 161.208742 
L 350.743957 158.872171 
L 351.118415 149.944673 
L 351.305643 147.120164 
L 351.492872 147.748517 
L 352.054558 144.354058 
L 352.241787 145.486306 
L 352.429015 148.345767 
L 352.616244 146.586034 
L 352.990701 137.61928 
L 353.365159 132.679706 
L 353.552388 132.118705 
L 353.739616 132.45157 
L 353.926845 133.896103 
L 354.114074 134.342313 
L 354.488531 137.858937 
L 354.862988 147.797437 
L 355.424674 153.119643 
L 355.611903 155.795969 
L 356.173589 158.115766 
L 356.360818 161.46531 
L 356.735275 170.861556 
L 357.671419 186.192365 
L 357.858647 188.449932 
L 358.045876 189.05949 
L 358.420333 186.746676 
L 358.794791 186.129276 
L 359.169248 186.220776 
L 359.356477 185.146333 
L 359.543706 185.473089 
L 359.918163 183.216333 
L 360.29262 179.842894 
L 360.854306 178.898661 
L 361.041535 178.142232 
L 361.228764 178.786784 
L 361.415992 179.909449 
L 361.79045 177.646409 
L 361.977679 178.812278 
L 362.352136 182.928889 
L 362.726593 185.150872 
L 363.101051 187.203467 
L 363.662737 190.938966 
L 364.973338 200.827546 
L 365.160566 200.602117 
L 365.347795 201.481883 
L 365.535024 203.066916 
L 365.909481 209.219896 
L 366.09671 210.452504 
L 366.283938 210.553453 
L 366.658396 207.665406 
L 367.032853 203.160478 
L 367.40731 197.835764 
L 367.781768 196.030746 
L 367.968997 195.672456 
L 368.156225 196.770203 
L 368.343454 198.789391 
L 368.717911 207.195759 
L 369.092369 216.834512 
L 369.279597 219.676314 
L 369.654055 222.359652 
L 370.028512 228.724543 
L 370.777427 251.602475 
L 371.151884 264.029529 
L 371.339113 267.077376 
L 371.526342 267.81949 
L 371.71357 267.375465 
L 372.088028 260.004639 
L 373.585857 218.386705 
L 374.147543 206.266028 
L 374.709229 196.684953 
L 374.896458 196.084251 
L 375.083687 196.572708 
L 375.458144 204.159471 
L 376.01983 223.53759 
L 376.207059 226.653414 
L 376.581516 229.345043 
L 377.143202 223.465457 
L 377.330431 221.140026 
L 378.079346 218.31469 
L 378.266574 218.384058 
L 378.453803 216.165728 
L 379.015489 202.30565 
L 379.764404 181.839003 
L 379.951633 180.529745 
L 380.138861 180.782854 
L 380.32609 180.728853 
L 380.700547 183.973213 
L 381.075005 187.976593 
L 381.823919 189.956087 
L 382.198377 195.963272 
L 383.883435 236.739358 
L 384.070664 238.853887 
L 384.445121 245.43299 
L 385.568493 259.243648 
L 385.755722 259.220841 
L 386.317408 255.892157 
L 386.504637 255.685216 
L 387.066323 255.654246 
L 387.253551 255.754662 
L 387.628009 256.243732 
L 388.751381 270.706449 
L 389.313067 275.09742 
L 389.500296 275.45534 
L 389.687524 275.543921 
L 389.874753 276.398766 
L 390.061982 275.716362 
L 390.810897 263.974571 
L 391.74704 243.382395 
L 392.121497 232.597145 
L 392.308726 229.602604 
L 393.244869 202.896887 
L 393.619327 194.965798 
L 393.993784 187.969501 
L 394.55547 178.581619 
L 394.742699 178.610585 
L 395.491614 167.579752 
L 395.678842 168.257652 
L 396.0533 157.682178 
L 396.240528 157.735935 
L 396.427757 157.304615 
L 396.614986 153.678474 
L 396.802215 153.526812 
L 396.989443 151.128305 
L 397.176672 150.290084 
L 397.363901 151.022784 
L 397.551129 149.603645 
L 398.112815 138.501281 
L 398.300044 138.601023 
L 398.487273 135.627258 
L 398.487273 135.627258 
" style="fill:none;stroke:#ff7f0e;stroke-linecap:square;stroke-width:1.5;"/>
   </g>
   <g id="patch_3">
    <path d="M 57.6 307.584 
L 57.6 41.472 
" style="fill:none;stroke:#000000;stroke-linecap:square;stroke-linejoin:miter;stroke-width:0.8;"/>
   </g>
   <g id="patch_4">
    <path d="M 414.72 307.584 
L 414.72 41.472 
" style="fill:none;stroke:#000000;stroke-linecap:square;stroke-linejoin:miter;stroke-width:0.8;"/>
   </g>
   <g id="patch_5">
    <path d="M 57.6 307.584 
L 414.72 307.584 
" style="fill:none;stroke:#000000;stroke-linecap:square;stroke-linejoin:miter;stroke-width:0.8;"/>
   </g>
   <g id="patch_6">
    <path d="M 57.6 41.472 
L 414.72 41.472 
" style="fill:none;stroke:#000000;stroke-linecap:square;stroke-linejoin:miter;stroke-width:0.8;"/>
   </g>
   <g id="legend_1">
    <g id="patch_7">
     <path d="M 64.6 78.82825 
L 188.440625 78.82825 
Q 190.440625 78.82825 190.440625 76.82825 
L 190.440625 48.472 
Q 190.440625 46.472 188.440625 46.472 
L 64.6 46.472 
Q 62.6 46.472 62.6 48.472 
L 62.6 76.82825 
Q 62.6 78.82825 64.6 78.82825 
z
" style="fill:#ffffff;opacity:0.8;stroke:#cccccc;stroke-linejoin:miter;"/>
    </g>
    <g id="line2d_31">
     <path d="M 66.6 54.570437 
L 86.6 54.570437 
" style="fill:none;stroke:#1f77b4;stroke-linecap:square;stroke-width:1.5;"/>
    </g>
    <g id="line2d_32"/>
    <g id="text_15">
     <!-- Edge D-Optimality -->
     <defs>
      <path d="M 9.8125 72.90625 
L 55.90625 72.90625 
L 55.90625 64.59375 
L 19.671875 64.59375 
L 19.671875 43.015625 
L 54.390625 43.015625 
L 54.390625 34.71875 
L 19.671875 34.71875 
L 19.671875 8.296875 
L 56.78125 8.296875 
L 56.78125 0 
L 9.8125 0 
z
" id="DejaVuSans-69"/>
      <path d="M 45.40625 46.390625 
L 45.40625 75.984375 
L 54.390625 75.984375 
L 54.390625 0 
L 45.40625 0 
L 45.40625 8.203125 
Q 42.578125 3.328125 38.25 0.953125 
Q 33.9375 -1.421875 27.875 -1.421875 
Q 17.96875 -1.421875 11.734375 6.484375 
Q 5.515625 14.40625 5.515625 27.296875 
Q 5.515625 40.1875 11.734375 48.09375 
Q 17.96875 56 27.875 56 
Q 33.9375 56 38.25 53.625 
Q 42.578125 51.265625 45.40625 46.390625 
z
M 14.796875 27.296875 
Q 14.796875 17.390625 18.875 11.75 
Q 22.953125 6.109375 30.078125 6.109375 
Q 37.203125 6.109375 41.296875 11.75 
Q 45.40625 17.390625 45.40625 27.296875 
Q 45.40625 37.203125 41.296875 42.84375 
Q 37.203125 48.484375 30.078125 48.484375 
Q 22.953125 48.484375 18.875 42.84375 
Q 14.796875 37.203125 14.796875 27.296875 
z
" id="DejaVuSans-100"/>
      <path d="M 45.40625 27.984375 
Q 45.40625 37.75 41.375 43.109375 
Q 37.359375 48.484375 30.078125 48.484375 
Q 22.859375 48.484375 18.828125 43.109375 
Q 14.796875 37.75 14.796875 27.984375 
Q 14.796875 18.265625 18.828125 12.890625 
Q 22.859375 7.515625 30.078125 7.515625 
Q 37.359375 7.515625 41.375 12.890625 
Q 45.40625 18.265625 45.40625 27.984375 
z
M 54.390625 6.78125 
Q 54.390625 -7.171875 48.1875 -13.984375 
Q 42 -20.796875 29.203125 -20.796875 
Q 24.46875 -20.796875 20.265625 -20.09375 
Q 16.0625 -19.390625 12.109375 -17.921875 
L 12.109375 -9.1875 
Q 16.0625 -11.328125 19.921875 -12.34375 
Q 23.78125 -13.375 27.78125 -13.375 
Q 36.625 -13.375 41.015625 -8.765625 
Q 45.40625 -4.15625 45.40625 5.171875 
L 45.40625 9.625 
Q 42.625 4.78125 38.28125 2.390625 
Q 33.9375 0 27.875 0 
Q 17.828125 0 11.671875 7.65625 
Q 5.515625 15.328125 5.515625 27.984375 
Q 5.515625 40.671875 11.671875 48.328125 
Q 17.828125 56 27.875 56 
Q 33.9375 56 38.28125 53.609375 
Q 42.625 51.21875 45.40625 46.390625 
L 45.40625 54.6875 
L 54.390625 54.6875 
z
" id="DejaVuSans-103"/>
      <path d="M 56.203125 29.59375 
L 56.203125 25.203125 
L 14.890625 25.203125 
Q 15.484375 15.921875 20.484375 11.0625 
Q 25.484375 6.203125 34.421875 6.203125 
Q 39.59375 6.203125 44.453125 7.46875 
Q 49.3125 8.734375 54.109375 11.28125 
L 54.109375 2.78125 
Q 49.265625 0.734375 44.1875 -0.34375 
Q 39.109375 -1.421875 33.890625 -1.421875 
Q 20.796875 -1.421875 13.15625 6.1875 
Q 5.515625 13.8125 5.515625 26.8125 
Q 5.515625 40.234375 12.765625 48.109375 
Q 20.015625 56 32.328125 56 
Q 43.359375 56 49.78125 48.890625 
Q 56.203125 41.796875 56.203125 29.59375 
z
M 47.21875 32.234375 
Q 47.125 39.59375 43.09375 43.984375 
Q 39.0625 48.390625 32.421875 48.390625 
Q 24.90625 48.390625 20.390625 44.140625 
Q 15.875 39.890625 15.1875 32.171875 
z
" id="DejaVuSans-101"/>
      <path id="DejaVuSans-32"/>
      <path d="M 19.671875 64.796875 
L 19.671875 8.109375 
L 31.59375 8.109375 
Q 46.6875 8.109375 53.6875 14.9375 
Q 60.6875 21.78125 60.6875 36.53125 
Q 60.6875 51.171875 53.6875 57.984375 
Q 46.6875 64.796875 31.59375 64.796875 
z
M 9.8125 72.90625 
L 30.078125 72.90625 
Q 51.265625 72.90625 61.171875 64.09375 
Q 71.09375 55.28125 71.09375 36.53125 
Q 71.09375 17.671875 61.125 8.828125 
Q 51.171875 0 30.078125 0 
L 9.8125 0 
z
" id="DejaVuSans-68"/>
      <path d="M 4.890625 31.390625 
L 31.203125 31.390625 
L 31.203125 23.390625 
L 4.890625 23.390625 
z
" id="DejaVuSans-45"/>
      <path d="M 39.40625 66.21875 
Q 28.65625 66.21875 22.328125 58.203125 
Q 16.015625 50.203125 16.015625 36.375 
Q 16.015625 22.609375 22.328125 14.59375 
Q 28.65625 6.59375 39.40625 6.59375 
Q 50.140625 6.59375 56.421875 14.59375 
Q 62.703125 22.609375 62.703125 36.375 
Q 62.703125 50.203125 56.421875 58.203125 
Q 50.140625 66.21875 39.40625 66.21875 
z
M 39.40625 74.21875 
Q 54.734375 74.21875 63.90625 63.9375 
Q 73.09375 53.65625 73.09375 36.375 
Q 73.09375 19.140625 63.90625 8.859375 
Q 54.734375 -1.421875 39.40625 -1.421875 
Q 24.03125 -1.421875 14.8125 8.828125 
Q 5.609375 19.09375 5.609375 36.375 
Q 5.609375 53.65625 14.8125 63.9375 
Q 24.03125 74.21875 39.40625 74.21875 
z
" id="DejaVuSans-79"/>
      <path d="M 18.109375 8.203125 
L 18.109375 -20.796875 
L 9.078125 -20.796875 
L 9.078125 54.6875 
L 18.109375 54.6875 
L 18.109375 46.390625 
Q 20.953125 51.265625 25.265625 53.625 
Q 29.59375 56 35.59375 56 
Q 45.5625 56 51.78125 48.09375 
Q 58.015625 40.1875 58.015625 27.296875 
Q 58.015625 14.40625 51.78125 6.484375 
Q 45.5625 -1.421875 35.59375 -1.421875 
Q 29.59375 -1.421875 25.265625 0.953125 
Q 20.953125 3.328125 18.109375 8.203125 
z
M 48.6875 27.296875 
Q 48.6875 37.203125 44.609375 42.84375 
Q 40.53125 48.484375 33.40625 48.484375 
Q 26.265625 48.484375 22.1875 42.84375 
Q 18.109375 37.203125 18.109375 27.296875 
Q 18.109375 17.390625 22.1875 11.75 
Q 26.265625 6.109375 33.40625 6.109375 
Q 40.53125 6.109375 44.609375 11.75 
Q 48.6875 17.390625 48.6875 27.296875 
z
" id="DejaVuSans-112"/>
      <path d="M 18.3125 70.21875 
L 18.3125 54.6875 
L 36.8125 54.6875 
L 36.8125 47.703125 
L 18.3125 47.703125 
L 18.3125 18.015625 
Q 18.3125 11.328125 20.140625 9.421875 
Q 21.96875 7.515625 27.59375 7.515625 
L 36.8125 7.515625 
L 36.8125 0 
L 27.59375 0 
Q 17.1875 0 13.234375 3.875 
Q 9.28125 7.765625 9.28125 18.015625 
L 9.28125 47.703125 
L 2.6875 47.703125 
L 2.6875 54.6875 
L 9.28125 54.6875 
L 9.28125 70.21875 
z
" id="DejaVuSans-116"/>
      <path d="M 9.421875 54.6875 
L 18.40625 54.6875 
L 18.40625 0 
L 9.421875 0 
z
M 9.421875 75.984375 
L 18.40625 75.984375 
L 18.40625 64.59375 
L 9.421875 64.59375 
z
" id="DejaVuSans-105"/>
      <path d="M 52 44.1875 
Q 55.375 50.25 60.0625 53.125 
Q 64.75 56 71.09375 56 
Q 79.640625 56 84.28125 50.015625 
Q 88.921875 44.046875 88.921875 33.015625 
L 88.921875 0 
L 79.890625 0 
L 79.890625 32.71875 
Q 79.890625 40.578125 77.09375 44.375 
Q 74.3125 48.1875 68.609375 48.1875 
Q 61.625 48.1875 57.5625 43.546875 
Q 53.515625 38.921875 53.515625 30.90625 
L 53.515625 0 
L 44.484375 0 
L 44.484375 32.71875 
Q 44.484375 40.625 41.703125 44.40625 
Q 38.921875 48.1875 33.109375 48.1875 
Q 26.21875 48.1875 22.15625 43.53125 
Q 18.109375 38.875 18.109375 30.90625 
L 18.109375 0 
L 9.078125 0 
L 9.078125 54.6875 
L 18.109375 54.6875 
L 18.109375 46.1875 
Q 21.1875 51.21875 25.484375 53.609375 
Q 29.78125 56 35.6875 56 
Q 41.65625 56 45.828125 52.96875 
Q 50 49.953125 52 44.1875 
z
" id="DejaVuSans-109"/>
      <path d="M 34.28125 27.484375 
Q 23.390625 27.484375 19.1875 25 
Q 14.984375 22.515625 14.984375 16.5 
Q 14.984375 11.71875 18.140625 8.90625 
Q 21.296875 6.109375 26.703125 6.109375 
Q 34.1875 6.109375 38.703125 11.40625 
Q 43.21875 16.703125 43.21875 25.484375 
L 43.21875 27.484375 
z
M 52.203125 31.203125 
L 52.203125 0 
L 43.21875 0 
L 43.21875 8.296875 
Q 40.140625 3.328125 35.546875 0.953125 
Q 30.953125 -1.421875 24.3125 -1.421875 
Q 15.921875 -1.421875 10.953125 3.296875 
Q 6 8.015625 6 15.921875 
Q 6 25.140625 12.171875 29.828125 
Q 18.359375 34.515625 30.609375 34.515625 
L 43.21875 34.515625 
L 43.21875 35.40625 
Q 43.21875 41.609375 39.140625 45 
Q 35.0625 48.390625 27.6875 48.390625 
Q 23 48.390625 18.546875 47.265625 
Q 14.109375 46.140625 10.015625 43.890625 
L 10.015625 52.203125 
Q 14.9375 54.109375 19.578125 55.046875 
Q 24.21875 56 28.609375 56 
Q 40.484375 56 46.34375 49.84375 
Q 52.203125 43.703125 52.203125 31.203125 
z
" id="DejaVuSans-97"/>
      <path d="M 9.421875 75.984375 
L 18.40625 75.984375 
L 18.40625 0 
L 9.421875 0 
z
" id="DejaVuSans-108"/>
      <path d="M 32.171875 -5.078125 
Q 28.375 -14.84375 24.75 -17.8125 
Q 21.140625 -20.796875 15.09375 -20.796875 
L 7.90625 -20.796875 
L 7.90625 -13.28125 
L 13.1875 -13.28125 
Q 16.890625 -13.28125 18.9375 -11.515625 
Q 21 -9.765625 23.484375 -3.21875 
L 25.09375 0.875 
L 2.984375 54.6875 
L 12.5 54.6875 
L 29.59375 11.921875 
L 46.6875 54.6875 
L 56.203125 54.6875 
z
" id="DejaVuSans-121"/>
     </defs>
     <g transform="translate(94.6 58.070437)scale(0.1 -0.1)">
      <use xlink:href="#DejaVuSans-69"/>
      <use x="63.183594" xlink:href="#DejaVuSans-100"/>
      <use x="126.660156" xlink:href="#DejaVuSans-103"/>
      <use x="190.136719" xlink:href="#DejaVuSans-101"/>
      <use x="251.660156" xlink:href="#DejaVuSans-32"/>
      <use x="283.447266" xlink:href="#DejaVuSans-68"/>
      <use x="360.449219" xlink:href="#DejaVuSans-45"/>
      <use x="396.564453" xlink:href="#DejaVuSans-79"/>
      <use x="475.275391" xlink:href="#DejaVuSans-112"/>
      <use x="538.751953" xlink:href="#DejaVuSans-116"/>
      <use x="577.960938" xlink:href="#DejaVuSans-105"/>
      <use x="605.744141" xlink:href="#DejaVuSans-109"/>
      <use x="703.15625" xlink:href="#DejaVuSans-97"/>
      <use x="764.435547" xlink:href="#DejaVuSans-108"/>
      <use x="792.21875" xlink:href="#DejaVuSans-105"/>
      <use x="820.001953" xlink:href="#DejaVuSans-116"/>
      <use x="859.210938" xlink:href="#DejaVuSans-121"/>
     </g>
    </g>
    <g id="line2d_33">
     <path d="M 66.6 69.248562 
L 86.6 69.248562 
" style="fill:none;stroke:#ff7f0e;stroke-linecap:square;stroke-width:1.5;"/>
    </g>
    <g id="line2d_34"/>
    <g id="text_16">
     <!-- Running Average -->
     <defs>
      <path d="M 44.390625 34.1875 
Q 47.5625 33.109375 50.5625 29.59375 
Q 53.5625 26.078125 56.59375 19.921875 
L 66.609375 0 
L 56 0 
L 46.6875 18.703125 
Q 43.0625 26.03125 39.671875 28.421875 
Q 36.28125 30.8125 30.421875 30.8125 
L 19.671875 30.8125 
L 19.671875 0 
L 9.8125 0 
L 9.8125 72.90625 
L 32.078125 72.90625 
Q 44.578125 72.90625 50.734375 67.671875 
Q 56.890625 62.453125 56.890625 51.90625 
Q 56.890625 45.015625 53.6875 40.46875 
Q 50.484375 35.9375 44.390625 34.1875 
z
M 19.671875 64.796875 
L 19.671875 38.921875 
L 32.078125 38.921875 
Q 39.203125 38.921875 42.84375 42.21875 
Q 46.484375 45.515625 46.484375 51.90625 
Q 46.484375 58.296875 42.84375 61.546875 
Q 39.203125 64.796875 32.078125 64.796875 
z
" id="DejaVuSans-82"/>
      <path d="M 8.5 21.578125 
L 8.5 54.6875 
L 17.484375 54.6875 
L 17.484375 21.921875 
Q 17.484375 14.15625 20.5 10.265625 
Q 23.53125 6.390625 29.59375 6.390625 
Q 36.859375 6.390625 41.078125 11.03125 
Q 45.3125 15.671875 45.3125 23.6875 
L 45.3125 54.6875 
L 54.296875 54.6875 
L 54.296875 0 
L 45.3125 0 
L 45.3125 8.40625 
Q 42.046875 3.421875 37.71875 1 
Q 33.40625 -1.421875 27.6875 -1.421875 
Q 18.265625 -1.421875 13.375 4.4375 
Q 8.5 10.296875 8.5 21.578125 
z
M 31.109375 56 
z
" id="DejaVuSans-117"/>
      <path d="M 54.890625 33.015625 
L 54.890625 0 
L 45.90625 0 
L 45.90625 32.71875 
Q 45.90625 40.484375 42.875 44.328125 
Q 39.84375 48.1875 33.796875 48.1875 
Q 26.515625 48.1875 22.3125 43.546875 
Q 18.109375 38.921875 18.109375 30.90625 
L 18.109375 0 
L 9.078125 0 
L 9.078125 54.6875 
L 18.109375 54.6875 
L 18.109375 46.1875 
Q 21.34375 51.125 25.703125 53.5625 
Q 30.078125 56 35.796875 56 
Q 45.21875 56 50.046875 50.171875 
Q 54.890625 44.34375 54.890625 33.015625 
z
" id="DejaVuSans-110"/>
      <path d="M 34.1875 63.1875 
L 20.796875 26.90625 
L 47.609375 26.90625 
z
M 28.609375 72.90625 
L 39.796875 72.90625 
L 67.578125 0 
L 57.328125 0 
L 50.6875 18.703125 
L 17.828125 18.703125 
L 11.1875 0 
L 0.78125 0 
z
" id="DejaVuSans-65"/>
      <path d="M 2.984375 54.6875 
L 12.5 54.6875 
L 29.59375 8.796875 
L 46.6875 54.6875 
L 56.203125 54.6875 
L 35.6875 0 
L 23.484375 0 
z
" id="DejaVuSans-118"/>
      <path d="M 41.109375 46.296875 
Q 39.59375 47.171875 37.8125 47.578125 
Q 36.03125 48 33.890625 48 
Q 26.265625 48 22.1875 43.046875 
Q 18.109375 38.09375 18.109375 28.8125 
L 18.109375 0 
L 9.078125 0 
L 9.078125 54.6875 
L 18.109375 54.6875 
L 18.109375 46.1875 
Q 20.953125 51.171875 25.484375 53.578125 
Q 30.03125 56 36.53125 56 
Q 37.453125 56 38.578125 55.875 
Q 39.703125 55.765625 41.0625 55.515625 
z
" id="DejaVuSans-114"/>
     </defs>
     <g transform="translate(94.6 72.748562)scale(0.1 -0.1)">
      <use xlink:href="#DejaVuSans-82"/>
      <use x="69.419922" xlink:href="#DejaVuSans-117"/>
      <use x="132.798828" xlink:href="#DejaVuSans-110"/>
      <use x="196.177734" xlink:href="#DejaVuSans-110"/>
      <use x="259.556641" xlink:href="#DejaVuSans-105"/>
      <use x="287.339844" xlink:href="#DejaVuSans-110"/>
      <use x="350.71875" xlink:href="#DejaVuSans-103"/>
      <use x="414.195312" xlink:href="#DejaVuSans-32"/>
      <use x="445.982422" xlink:href="#DejaVuSans-65"/>
      <use x="514.3125" xlink:href="#DejaVuSans-118"/>
      <use x="573.492188" xlink:href="#DejaVuSans-101"/>
      <use x="635.015625" xlink:href="#DejaVuSans-114"/>
      <use x="676.128906" xlink:href="#DejaVuSans-97"/>
      <use x="737.408203" xlink:href="#DejaVuSans-103"/>
      <use x="800.884766" xlink:href="#DejaVuSans-101"/>
     </g>
    </g>
   </g>
  </g>
  <g id="text_17">
   <!-- D-Optimality -->
   <g transform="translate(179.605 19.0695)scale(0.16 -0.16)">
    <use xlink:href="#DejaVuSans-68"/>
    <use x="77.001953" xlink:href="#DejaVuSans-45"/>
    <use x="113.117188" xlink:href="#DejaVuSans-79"/>
    <use x="191.828125" xlink:href="#DejaVuSans-112"/>
    <use x="255.304688" xlink:href="#DejaVuSans-116"/>
    <use x="294.513672" xlink:href="#DejaVuSans-105"/>
    <use x="322.296875" xlink:href="#DejaVuSans-109"/>
    <use x="419.708984" xlink:href="#DejaVuSans-97"/>
    <use x="480.988281" xlink:href="#DejaVuSans-108"/>
    <use x="508.771484" xlink:href="#DejaVuSans-105"/>
    <use x="536.554688" xlink:href="#DejaVuSans-116"/>
    <use x="575.763672" xlink:href="#DejaVuSans-121"/>
   </g>
  </g>
 </g>
 <defs>
  <clipPath id="pfb0919e794">
   <rect height="266.112" width="357.12" x="57.6" y="41.472"/>
  </clipPath>
 </defs>
</svg>
